<svg xmlns="http://www.w3.org/2000/svg" xmlns:xlink="http://www.w3.org/1999/xlink" preserveAspectRatio="xMidYMid" width="14" height="36" viewBox="0 0 14 36">
  <path d="M6.996,36.000 L0.001,28.720 L1.254,27.591 L6.142,32.680 L6.142,11.902 C6.142,11.446 6.525,11.075 6.998,11.075 C7.470,11.075 7.853,11.446 7.853,11.902 L7.853,32.677 L12.740,27.591 L13.994,28.720 L6.996,36.000 ZM6.984,8.842 C6.457,8.842 6.030,8.429 6.030,7.920 C6.030,7.410 6.457,6.997 6.984,6.997 C7.510,6.997 7.937,7.410 7.937,7.920 C7.937,8.429 7.510,8.842 6.984,8.842 ZM6.984,5.343 C6.457,5.343 6.030,4.930 6.030,4.421 C6.030,3.912 6.457,3.499 6.984,3.499 C7.510,3.499 7.937,3.912 7.937,4.421 C7.937,4.930 7.510,5.343 6.984,5.343 ZM6.984,1.845 C6.457,1.845 6.030,1.432 6.030,0.923 C6.030,0.413 6.457,-0.000 6.984,-0.000 C7.510,-0.000 7.937,0.413 7.937,0.923 C7.937,1.432 7.510,1.845 6.984,1.845 Z" style="fill: #fff; fill-rule: evenodd;"/>
</svg>
