<svg xmlns="http://www.w3.org/2000/svg" xmlns:xlink="http://www.w3.org/1999/xlink" preserveAspectRatio="xMidYMid" width="198.063" height="219.062" viewBox="0 0 198.063 219.062">
  <defs>
    <style>
      .cls-1 {
        fill: #e9e9e9;
        fill-rule: evenodd;
      }
    </style>
  </defs>
  <path d="M186.294,174.671 L87.267,219.053 L0.015,153.898 L11.791,44.367 L110.820,-0.012 L198.067,65.141 L186.294,174.671 ZM186.671,96.767 L129.781,107.396 L129.638,106.604 L114.533,134.657 L179.247,165.818 L186.671,96.767 ZM85.476,207.678 L96.137,168.583 L50.815,181.796 L85.476,207.678 ZM42.708,175.742 L97.948,159.638 L98.268,160.772 L104.543,137.758 L76.939,111.385 L11.339,152.318 L42.708,175.742 ZM9.047,144.254 L70.928,105.642 L18.580,55.631 L9.047,144.254 ZM22.602,48.368 L105.135,127.217 L106.282,10.863 L22.602,48.368 ZM93.842,207.265 L173.018,171.777 L111.586,142.196 L93.842,207.265 ZM114.216,12.562 L113.152,120.384 L154.865,42.916 L114.216,12.562 ZM161.330,47.744 L134.075,98.364 L187.575,88.369 L189.667,68.904 L161.330,47.744 Z" class="cls-1"/>
</svg>
