<svg xmlns="http://www.w3.org/2000/svg" xmlns:xlink="http://www.w3.org/1999/xlink" preserveAspectRatio="xMidYMid" width="385" height="384.938" viewBox="0 0 385 384.938">
  <defs>
    <style>
      .cls-1 {
        fill: #e9e9e9;
        fill-rule: evenodd;
      }
    </style>
  </defs>
  <path d="M192.499,384.944 C86.348,384.944 -0.008,298.601 -0.008,192.467 C-0.008,86.332 86.348,-0.011 192.499,-0.011 C298.650,-0.011 385.006,86.332 385.006,192.467 C385.006,298.601 298.650,384.944 192.499,384.944 ZM192.499,10.111 C91.935,10.111 10.117,91.917 10.117,192.467 C10.117,293.015 91.935,374.821 192.499,374.821 C293.063,374.821 374.881,293.015 374.881,192.467 C374.881,91.917 293.063,10.111 192.499,10.111 ZM192.499,355.889 C103.375,355.889 30.861,283.386 30.861,194.276 C30.861,105.164 103.375,32.661 192.499,32.661 C281.623,32.661 354.138,105.164 354.138,194.276 C354.138,283.386 281.623,355.889 192.499,355.889 ZM192.499,42.783 C108.952,42.783 40.986,110.739 40.986,194.276 C40.986,277.810 108.952,345.766 192.499,345.766 C276.048,345.766 344.013,277.810 344.013,194.276 C344.013,110.739 276.048,42.783 192.499,42.783 ZM192.499,320.320 C122.191,320.320 64.992,263.129 64.992,192.833 C64.992,122.535 122.191,65.343 192.499,65.343 C262.808,65.343 320.007,122.535 320.007,192.833 C320.007,263.129 262.808,320.320 192.499,320.320 ZM192.499,75.466 C127.776,75.466 75.117,128.120 75.117,192.833 C75.117,257.545 127.776,310.197 192.499,310.197 C257.222,310.197 309.882,257.545 309.882,192.833 C309.882,128.120 257.222,75.466 192.499,75.466 ZM192.499,288.290 C140.057,288.290 97.383,245.622 97.383,193.188 C97.383,140.754 140.057,98.086 192.499,98.086 C244.942,98.086 287.615,140.754 287.615,193.188 C287.615,245.622 244.942,288.290 192.499,288.290 ZM192.499,108.209 C145.633,108.209 107.508,146.329 107.508,193.188 C107.508,240.047 145.633,278.167 192.499,278.167 C239.365,278.167 277.490,240.047 277.490,193.188 C277.490,146.329 239.365,108.209 192.499,108.209 ZM192.499,254.204 C159.050,254.204 131.830,226.998 131.830,193.553 C131.830,160.110 159.050,132.894 192.499,132.894 C225.948,132.894 253.158,160.110 253.158,193.553 C253.158,226.998 225.948,254.204 192.499,254.204 ZM192.499,143.017 C164.627,143.017 141.955,165.684 141.955,193.553 C141.955,221.411 164.627,244.080 192.499,244.080 C220.362,244.080 243.033,221.411 243.033,193.553 C243.033,165.684 220.362,143.017 192.499,143.017 ZM192.499,219.672 C178.291,219.672 166.733,208.116 166.733,193.909 C166.733,179.714 178.291,168.157 192.499,168.157 C206.698,168.157 218.256,179.714 218.256,193.909 C218.256,208.116 206.698,219.672 192.499,219.672 ZM192.499,178.280 C183.877,178.280 176.858,185.289 176.858,193.909 C176.858,202.531 183.877,209.550 192.499,209.550 C201.121,209.550 208.132,202.531 208.132,193.909 C208.132,185.289 201.121,178.280 192.499,178.280 Z" class="cls-1"/>
</svg>
