<svg xmlns="http://www.w3.org/2000/svg" xmlns:xlink="http://www.w3.org/1999/xlink" preserveAspectRatio="xMidYMid" width="145" height="169.969" viewBox="0 0 145 169.969">
  <defs>
    <style>
      .cls-1 {
        fill: #e9e9e9;
        fill-rule: evenodd;
      }
    </style>
  </defs>
  <path d="M135.610,121.236 C135.610,121.236 124.248,134.951 128.359,148.004 C128.359,148.004 125.420,141.576 98.407,142.735 C96.647,142.939 94.869,143.036 93.076,143.048 C92.796,143.068 92.554,143.075 92.269,143.098 C87.930,143.426 85.263,143.066 83.836,142.220 C73.009,140.183 62.071,134.298 52.304,123.049 C40.649,109.626 31.401,97.688 24.387,87.068 C24.184,86.861 23.995,86.613 23.830,86.300 C21.024,80.978 15.686,82.203 15.686,82.203 L15.693,82.146 C14.579,82.483 13.422,82.718 12.199,82.718 C5.455,82.718 -0.012,77.217 -0.012,70.428 C-0.012,65.980 2.359,62.118 5.875,59.961 L5.817,59.963 C5.817,59.963 10.252,58.513 8.394,50.696 C8.166,49.736 8.192,49.043 8.404,48.556 C8.273,40.979 11.129,35.054 16.984,30.698 C16.984,30.698 58.799,2.094 66.106,50.721 C69.109,70.703 79.245,74.117 91.380,73.682 C97.151,72.603 97.488,68.941 97.488,68.941 L97.531,68.963 C98.258,62.875 103.349,58.136 109.595,58.136 C115.008,58.136 119.546,61.707 121.146,66.618 L121.168,66.548 C121.168,66.548 122.580,71.012 125.512,72.473 C125.892,72.572 126.261,72.705 126.635,72.822 C126.788,72.851 126.925,72.925 127.086,72.935 C127.674,72.978 127.974,73.129 128.147,73.323 C133.133,75.245 137.509,78.898 140.805,85.455 C146.655,97.099 143.673,110.348 135.582,121.215 L135.610,121.236 ZM47.403,14.676 C43.376,14.676 40.111,11.389 40.111,7.336 C40.111,3.283 43.376,-0.004 47.403,-0.004 C51.429,-0.004 54.694,3.283 54.694,7.336 C54.694,11.389 51.429,14.676 47.403,14.676 ZM142.798,157.400 C142.832,157.434 142.869,157.462 142.902,157.496 C142.964,157.555 143.017,157.608 143.017,157.608 L143.000,157.642 C144.227,158.954 145.009,160.698 145.009,162.642 C145.009,166.696 141.744,169.981 137.717,169.981 C134.046,169.981 131.135,167.206 130.628,163.651 C130.564,163.552 130.455,163.467 130.426,163.356 C129.893,161.323 130.426,150.991 130.426,150.991 C138.699,153.962 142.006,156.671 142.798,157.400 Z" class="cls-1"/>
</svg>
