<svg xmlns="http://www.w3.org/2000/svg" xmlns:xlink="http://www.w3.org/1999/xlink" preserveAspectRatio="xMidYMid" width="54" height="61" viewBox="0 0 54 61">
  <path d="M53.029,61.000 L51.735,61.000 C51.199,61.000 50.765,60.564 50.765,60.026 C50.765,59.489 51.199,59.053 51.735,59.053 L52.059,59.053 L52.059,5.841 L51.735,5.841 C51.199,5.841 50.765,5.405 50.765,4.867 C50.765,4.329 51.199,3.894 51.735,3.894 L53.029,3.894 C53.566,3.894 54.000,4.329 54.000,4.867 L54.000,60.026 C54.000,60.564 53.566,61.000 53.029,61.000 ZM47.853,61.000 L36.519,61.000 C35.983,61.000 35.549,60.564 35.549,60.026 C35.549,59.489 35.983,59.053 36.519,59.053 L46.882,59.053 L46.882,5.841 L46.559,5.841 C46.022,5.841 45.588,5.405 45.588,4.867 C45.588,4.329 46.022,3.894 46.559,3.894 L47.853,3.894 C48.389,3.894 48.823,4.329 48.823,4.867 L48.823,60.026 C48.823,60.564 48.389,61.000 47.853,61.000 ZM32.560,60.638 C32.382,60.858 32.110,61.000 31.796,61.000 L0.971,61.000 C0.434,61.000 -0.000,60.564 -0.000,60.026 L-0.000,4.867 C-0.000,4.329 0.434,3.894 0.971,3.894 L4.081,3.894 C4.780,1.624 6.907,0.000 9.337,0.000 C11.807,0.000 13.902,1.641 14.594,3.894 L42.676,3.894 C43.212,3.894 43.647,4.329 43.647,4.867 C43.647,4.867 43.647,49.116 43.647,49.125 C43.647,49.431 43.505,49.704 43.284,49.882 L32.560,60.638 ZM32.775,57.668 L40.324,50.098 L32.775,50.098 L32.775,57.668 ZM9.337,1.947 C7.977,1.947 6.764,2.732 6.168,3.894 L12.505,3.894 C11.915,2.739 10.717,1.947 9.337,1.947 ZM41.705,5.841 L14.837,5.841 L14.837,12.655 C14.837,14.622 13.241,16.223 11.278,16.223 C9.316,16.223 7.719,14.622 7.719,12.655 L7.719,8.761 C7.719,8.223 8.154,7.787 8.690,7.787 C9.226,7.787 9.661,8.223 9.661,8.761 L9.661,12.655 C9.661,13.549 10.386,14.276 11.278,14.276 C12.170,14.276 12.896,13.549 12.896,12.655 L12.896,5.841 L1.941,5.841 L1.941,59.053 L30.834,59.053 L30.834,49.125 C30.834,48.587 31.269,48.151 31.805,48.151 L41.705,48.151 L41.705,5.841 ZM7.765,43.868 C7.765,43.330 8.200,42.895 8.736,42.895 L34.911,42.895 C35.447,42.895 35.881,43.330 35.881,43.868 C35.881,44.406 35.447,44.842 34.911,44.842 L8.736,44.842 C8.200,44.842 7.765,44.406 7.765,43.868 ZM34.911,39.001 L8.736,39.001 C8.200,39.001 7.765,38.565 7.765,38.028 C7.765,37.490 8.200,37.054 8.736,37.054 L34.911,37.054 C35.447,37.054 35.881,37.490 35.881,38.028 C35.881,38.565 35.447,39.001 34.911,39.001 ZM34.911,33.161 L8.736,33.161 C8.200,33.161 7.765,32.725 7.765,32.188 C7.765,31.650 8.200,31.214 8.736,31.214 L34.911,31.214 C35.447,31.214 35.881,31.650 35.881,32.188 C35.881,32.725 35.447,33.161 34.911,33.161 ZM34.911,27.320 L8.736,27.320 C8.200,27.320 7.765,26.884 7.765,26.347 C7.765,25.809 8.200,25.374 8.736,25.374 L34.911,25.374 C35.447,25.374 35.881,25.809 35.881,26.347 C35.881,26.884 35.447,27.320 34.911,27.320 ZM34.911,21.480 L8.736,21.480 C8.200,21.480 7.765,21.044 7.765,20.507 C7.765,19.969 8.200,19.533 8.736,19.533 L34.911,19.533 C35.447,19.533 35.881,19.969 35.881,20.507 C35.881,21.044 35.447,21.480 34.911,21.480 Z" style="fill: #dd8f15;fill-rule: evenodd;"/>
</svg>
