<?xml version="1.0" encoding="utf-8"?>
<!-- Generator: Adobe Illustrator 19.0.0, SVG Export Plug-In . SVG Version: 6.00 Build 0)  -->
<svg version="1.1" id="Layer_1" xmlns="http://www.w3.org/2000/svg" xmlns:xlink="http://www.w3.org/1999/xlink" x="0px" y="0px"
	 width="9.5px" height="17.1px" viewBox="-300 388.9 9.5 17.1" style="enable-background:new -300 388.9 9.5 17.1;"
	 xml:space="preserve">
<path style="fill:#FFFFFF;" d="M-290.9,388.9l-2.3,0c-2.6,0-4.2,1.6-4.2,4.2v1.9h-2.3c-0.2,0-0.4,0.2-0.4,0.3v2.8
	c0,0.2,0.2,0.3,0.4,0.3h2.3v7.1c0,0.2,0.2,0.3,0.4,0.3h3c0.2,0,0.4-0.2,0.4-0.3v-7.1h2.7c0.2,0,0.4-0.2,0.4-0.3l0-2.8
	c0-0.1,0-0.2-0.1-0.2c-0.1-0.1-0.2-0.1-0.3-0.1h-2.7v-1.6c0-0.8,0.2-1.2,1.2-1.2l1.5,0c0.2,0,0.4-0.2,0.4-0.3v-2.6
	C-290.5,389.1-290.7,389-290.9,388.9L-290.9,388.9z"/>
</svg>
