<?xml version="1.0" encoding="utf-8"?>
<!-- Generator: Adobe Illustrator 19.0.0, SVG Export Plug-In . SVG Version: 6.00 Build 0)  -->
<svg version="1.1" id="Layer_1" xmlns="http://www.w3.org/2000/svg" xmlns:xlink="http://www.w3.org/1999/xlink" x="0px" y="0px"
	 width="16.3px" height="16.2px" viewBox="-297 388.8 16.3 16.2" style="enable-background:new -297 388.8 16.3 16.2;"
	 xml:space="preserve">
<path style="fill:#FFFFFF;" d="M-282.6,388.8H-295c-1.1,0-2,1-2,2.1v12.3c0,1.1,0.9,1.8,2,1.8h12.4c1.1,0,1.9-0.8,1.9-1.8v-12.3
	C-280.6,389.8-281.5,388.8-282.6,388.8L-282.6,388.8z M-283,391.1c0.3,0,0.6,0.2,0.6,0.6v1.8c0,0.3-0.3,0.6-0.6,0.6h-1.8
	c-0.3,0-0.6-0.2-0.6-0.6v-1.8c0-0.3,0.3-0.6,0.6-0.6H-283z M-288.8,393.9c1.7,0,3.1,1.4,3.1,3.1c0,1.7-1.4,3.1-3.1,3.1
	s-3.1-1.4-3.1-3.1C-291.9,395.3-290.5,393.9-288.8,393.9L-288.8,393.9z M-282.4,402.8c0,0.2-0.3,0.5-0.5,0.5h-11.7
	c-0.3,0-0.6-0.2-0.6-0.5v-7h1.7c-0.1,0.6-0.2,0.8-0.2,1.3c0,2.7,2.2,4.9,5,4.9s5-2.2,5-4.9c0-0.4-0.1-0.7-0.2-1.3h1.6V402.8z"/>
</svg>
