<?xml version="1.0" encoding="utf-8"?>
<!-- Generator: Adobe Illustrator 16.0.0, SVG Export Plug-In . SVG Version: 6.00 Build 0)  -->
<!DOCTYPE svg PUBLIC "-//W3C//DTD SVG 1.1//EN" "http://www.w3.org/Graphics/SVG/1.1/DTD/svg11.dtd">
<svg version="1.1" id="Layer_1" xmlns="http://www.w3.org/2000/svg" xmlns:xlink="http://www.w3.org/1999/xlink" x="0px" y="0px"
	 width="62.834px" height="118.667px" viewBox="0 0 62.834 118.667" style="enable-background:new 0 0 62.834 118.667;"
	 xml:space="preserve">
<rect x="39.372" y="83.469" transform="matrix(-0.8726 -0.4884 0.4884 -0.8726 45.9516 197.6969)" style="fill:#EE255C;" width="18.774" height="18.773"/>
<path style="fill:#1E1B1D;" d="M0.071,109.148c0.068-0.01,0.146-0.018,0.232-0.025c0.086-0.006,0.176-0.01,0.269-0.014
	c0.091-0.004,0.18-0.006,0.267-0.006c0.086-0.002,0.164-0.004,0.233-0.004c0.304,0,0.565,0.043,0.78,0.127
	c0.216,0.086,0.391,0.205,0.524,0.359s0.233,0.338,0.296,0.549c0.062,0.213,0.092,0.447,0.092,0.703
	c0,0.232-0.029,0.455-0.088,0.672s-0.158,0.406-0.293,0.574c-0.139,0.166-0.32,0.301-0.543,0.402
	c-0.225,0.1-0.502,0.152-0.832,0.152c-0.053,0-0.123-0.002-0.209-0.004c-0.086-0.006-0.177-0.01-0.27-0.014
	c-0.094-0.006-0.184-0.01-0.268-0.014c-0.086-0.006-0.149-0.012-0.191-0.018V109.148z M1.126,109.699
	c-0.072,0-0.145,0.002-0.219,0.004c-0.073,0.004-0.128,0.008-0.164,0.016v2.301c0.014,0.004,0.035,0.006,0.066,0.008
	s0.064,0.004,0.101,0.004c0.036,0.002,0.069,0.004,0.103,0.006s0.058,0.002,0.074,0.002c0.19,0,0.348-0.033,0.473-0.1
	c0.127-0.068,0.227-0.156,0.301-0.268c0.072-0.111,0.125-0.24,0.154-0.387c0.029-0.145,0.043-0.295,0.043-0.447
	c0-0.135-0.012-0.27-0.039-0.406c-0.025-0.135-0.073-0.258-0.145-0.365c-0.07-0.107-0.166-0.197-0.287-0.266
	S1.312,109.699,1.126,109.699"/>
<polygon style="fill:#1E1B1D;" points="5.21,109.148 7.245,109.148 7.245,109.748 5.882,109.748 5.882,110.547 7.122,110.547 
	7.122,111.146 5.882,111.146 5.882,111.984 7.271,111.984 7.271,112.584 5.21,112.584 "/>
<path style="fill:#1E1B1D;" d="M11.218,111.662c0-0.104-0.039-0.189-0.115-0.256c-0.078-0.066-0.174-0.125-0.291-0.178
	c-0.115-0.055-0.241-0.111-0.377-0.168c-0.137-0.059-0.262-0.127-0.379-0.211c-0.115-0.084-0.213-0.188-0.289-0.312
	c-0.076-0.123-0.115-0.281-0.115-0.475c0-0.166,0.027-0.312,0.084-0.436c0.055-0.123,0.135-0.225,0.236-0.307
	c0.104-0.08,0.226-0.143,0.367-0.182c0.141-0.039,0.299-0.059,0.471-0.059c0.201,0,0.388,0.018,0.564,0.051
	c0.178,0.035,0.322,0.084,0.436,0.15l-0.211,0.564c-0.07-0.045-0.178-0.088-0.322-0.125s-0.301-0.057-0.467-0.057
	c-0.157,0-0.277,0.031-0.36,0.094s-0.125,0.146-0.125,0.25c0,0.1,0.038,0.182,0.114,0.246c0.078,0.064,0.174,0.125,0.291,0.182
	c0.115,0.055,0.24,0.111,0.377,0.172c0.136,0.059,0.263,0.129,0.378,0.213c0.116,0.084,0.213,0.186,0.29,0.309
	c0.076,0.123,0.115,0.275,0.115,0.459s-0.03,0.342-0.092,0.475c-0.06,0.133-0.145,0.242-0.254,0.33
	c-0.109,0.09-0.242,0.154-0.398,0.195c-0.155,0.043-0.325,0.066-0.512,0.066c-0.246,0-0.463-0.025-0.648-0.07
	c-0.188-0.045-0.324-0.09-0.413-0.137l0.217-0.574c0.035,0.02,0.082,0.041,0.14,0.064c0.057,0.021,0.123,0.043,0.193,0.062
	c0.073,0.02,0.148,0.037,0.229,0.049c0.08,0.014,0.164,0.02,0.248,0.02c0.199,0,0.353-0.033,0.459-0.1
	S11.218,111.799,11.218,111.662"/>
<rect x="14.367" y="109.15" style="fill:#1E1B1D;" width="0.673" height="3.434"/>
<path style="fill:#1E1B1D;" d="M18.874,110.793h1.281v1.531c-0.139,0.115-0.303,0.197-0.494,0.25s-0.381,0.078-0.567,0.078
	c-0.219,0-0.422-0.033-0.61-0.104c-0.188-0.068-0.351-0.176-0.488-0.32c-0.137-0.146-0.245-0.332-0.324-0.557
	c-0.078-0.227-0.118-0.494-0.118-0.807c0-0.322,0.048-0.598,0.142-0.826c0.092-0.227,0.215-0.412,0.367-0.555
	c0.152-0.141,0.323-0.244,0.512-0.309c0.19-0.064,0.384-0.096,0.58-0.096s0.369,0.016,0.518,0.043
	c0.148,0.031,0.268,0.062,0.355,0.096l-0.137,0.562c-0.082-0.033-0.174-0.057-0.275-0.076c-0.102-0.018-0.23-0.025-0.388-0.025
	c-0.141,0-0.27,0.021-0.387,0.062c-0.119,0.043-0.222,0.113-0.308,0.209s-0.153,0.221-0.2,0.371
	c-0.048,0.15-0.072,0.334-0.072,0.549c0,0.207,0.022,0.383,0.069,0.533c0.045,0.148,0.109,0.271,0.191,0.369
	c0.081,0.096,0.178,0.166,0.287,0.213c0.109,0.045,0.227,0.068,0.352,0.068c0.084,0,0.168-0.012,0.25-0.031
	c0.082-0.023,0.15-0.053,0.205-0.096v-0.648l-0.74-0.08V110.793z"/>
<polygon style="fill:#1E1B1D;" points="23.468,110.793 23.196,110.252 23.173,110.252 23.251,110.793 23.251,112.584 
	22.613,112.584 22.613,109.123 23.104,109.123 24.404,110.955 24.664,111.48 24.688,111.48 24.61,110.955 24.61,109.148 
	25.248,109.148 25.248,112.609 24.757,112.609 "/>
<polygon style="fill:#1E1B1D;" points="2.735,116.691 2.81,116.01 2.78,116.01 2.568,116.559 1.837,117.84 1.622,117.84 
	0.851,116.555 0.636,116.01 0.61,116.01 0.708,116.688 0.708,118.473 0.071,118.473 0.071,115.039 0.685,115.039 1.603,116.607 
	1.765,117.002 1.784,117.002 1.931,116.6 2.8,115.039 3.409,115.039 3.409,118.473 2.735,118.473 "/>
<path style="fill:#1E1B1D;" d="M7.653,117.713H6.598l-0.26,0.76H5.666l1.237-3.459h0.494l1.237,3.459H7.928L7.653,117.713z
	 M6.771,117.174h0.736l-0.256-0.768l-0.104-0.539H7.122l-0.102,0.545L6.771,117.174z"/>
<polygon style="fill:#1E1B1D;" points="11.747,116.682 11.477,116.143 11.452,116.143 11.53,116.682 11.53,118.475 10.894,118.475 
	10.894,115.014 11.384,115.014 12.685,116.844 12.944,117.369 12.968,117.369 12.891,116.844 12.891,115.037 13.528,115.037 
	13.528,118.498 13.038,118.498 "/>
<path style="fill:#1E1B1D;" d="M17.944,115.039h0.639v2.219c0,0.221-0.029,0.414-0.088,0.574c-0.06,0.16-0.142,0.293-0.246,0.396
	c-0.104,0.105-0.231,0.182-0.383,0.23c-0.15,0.049-0.314,0.074-0.496,0.074c-0.871,0-1.305-0.398-1.305-1.193v-2.301h0.673v2.168
	c0,0.135,0.013,0.248,0.036,0.342s0.062,0.168,0.115,0.225c0.052,0.059,0.117,0.1,0.195,0.123c0.08,0.025,0.172,0.037,0.276,0.037
	c0.205,0,0.354-0.057,0.446-0.172c0.091-0.115,0.137-0.299,0.137-0.555V115.039z"/>
<polygon style="fill:#1E1B1D;" points="21.121,115.039 23.157,115.039 23.157,115.637 21.793,115.637 21.793,116.486 23.05,116.486 
	23.05,117.084 21.793,117.084 21.793,118.473 21.121,118.473 "/>
<path style="fill:#1E1B1D;" d="M27.271,117.713h-1.057l-0.26,0.76h-0.672l1.237-3.459h0.495l1.236,3.459h-0.707L27.271,117.713z
	 M26.386,117.174h0.737l-0.256-0.768l-0.103-0.539h-0.025l-0.104,0.545L26.386,117.174z"/>
<path style="fill:#1E1B1D;" d="M32.683,118.334c-0.104,0.072-0.236,0.127-0.399,0.16c-0.162,0.031-0.327,0.049-0.498,0.049
	c-0.206,0-0.402-0.031-0.587-0.098c-0.185-0.062-0.348-0.166-0.488-0.307c-0.14-0.143-0.252-0.328-0.336-0.557
	c-0.084-0.227-0.125-0.502-0.125-0.826c0-0.336,0.047-0.619,0.14-0.846c0.093-0.229,0.214-0.41,0.363-0.551
	c0.149-0.139,0.314-0.238,0.498-0.299s0.367-0.092,0.55-0.092c0.196,0,0.362,0.014,0.498,0.039c0.136,0.027,0.248,0.059,0.337,0.094
	l-0.133,0.57c-0.076-0.037-0.165-0.062-0.267-0.078c-0.104-0.018-0.229-0.025-0.377-0.025c-0.271,0-0.489,0.098-0.654,0.291
	c-0.166,0.193-0.248,0.492-0.248,0.898c0,0.178,0.019,0.34,0.059,0.486c0.039,0.145,0.1,0.27,0.18,0.373
	c0.079,0.104,0.18,0.184,0.299,0.24s0.258,0.086,0.415,0.086c0.146,0,0.271-0.016,0.373-0.043c0.102-0.029,0.189-0.066,0.265-0.113
	L32.683,118.334z"/>
<polygon style="fill:#1E1B1D;" points="37.286,115.637 36.284,115.637 36.284,118.473 35.613,118.473 35.613,115.637 
	34.606,115.637 34.606,115.039 37.286,115.039 "/>
<path style="fill:#1E1B1D;" d="M41.462,115.039h0.639v2.219c0,0.221-0.029,0.414-0.088,0.574c-0.06,0.16-0.142,0.293-0.245,0.396
	c-0.105,0.105-0.232,0.182-0.383,0.23c-0.151,0.049-0.315,0.074-0.496,0.074c-0.871,0-1.306-0.398-1.306-1.193v-2.301h0.674v2.168
	c0,0.135,0.012,0.248,0.035,0.342c0.024,0.094,0.063,0.168,0.115,0.225c0.052,0.059,0.118,0.1,0.196,0.123
	c0.079,0.025,0.171,0.037,0.275,0.037c0.205,0,0.354-0.057,0.446-0.172c0.091-0.115,0.137-0.299,0.137-0.555V115.039z"/>
<path style="fill:#1E1B1D;" d="M44.639,115.072c0.075-0.012,0.156-0.023,0.243-0.037c0.087-0.012,0.173-0.02,0.26-0.027
	c0.087-0.006,0.171-0.01,0.253-0.014s0.157-0.006,0.227-0.006c0.159,0,0.317,0.016,0.473,0.045c0.156,0.029,0.294,0.08,0.417,0.152
	s0.221,0.17,0.295,0.297c0.073,0.125,0.11,0.283,0.11,0.473c0,0.281-0.066,0.512-0.196,0.688c-0.131,0.178-0.306,0.299-0.525,0.369
	l0.241,0.15l0.785,1.312h-0.776l-0.78-1.346l-0.354-0.064v1.41h-0.672V115.072z M45.67,115.588c-0.069,0-0.138,0.002-0.204,0.006
	c-0.068,0.002-0.119,0.01-0.155,0.018v0.996h0.285c0.187,0,0.335-0.041,0.447-0.127c0.11-0.084,0.167-0.225,0.167-0.422
	c0-0.146-0.046-0.262-0.139-0.346C45.98,115.631,45.846,115.588,45.67,115.588"/>
<polygon style="fill:#1E1B1D;" points="49.557,115.039 51.592,115.039 51.592,115.637 50.229,115.637 50.229,116.436 
	51.469,116.436 51.469,117.035 50.229,117.035 50.229,117.875 51.616,117.875 51.616,118.473 49.557,118.473 "/>
<polygon style="fill:#1E1B1D;" points="7.708,4.57 7.917,2.635 7.833,2.635 7.233,4.194 5.159,7.83 4.547,7.83 2.358,4.18 
	1.747,2.635 1.677,2.635 1.956,4.556 1.956,9.626 0.146,9.626 0.146,-0.123 1.886,-0.123 4.491,4.334 4.95,5.448 5.006,5.448 
	5.424,4.306 7.889,-0.123 9.616,-0.123 9.616,9.626 7.708,9.626 "/>
<path style="fill:#1E1B1D;" d="M27.493,7.577h-2.996l-0.738,2.159h-1.908l3.51-9.819h1.407l3.51,9.819h-2.006L27.493,7.577z
	 M24.984,6.044h2.089l-0.723-2.173L26.058,2.34h-0.07l-0.291,1.546L24.984,6.044z"/>
<polygon style="fill:#1E1B1D;" points="45.844,4.667 43.128,-0.123 45.427,-0.123 46.931,2.689 47.265,3.679 47.586,2.689 
	49.158,-0.123 51.233,-0.123 48.421,4.57 51.374,9.626 49.104,9.626 47.391,6.617 47.015,5.587 46.651,6.617 44.924,9.626 
	42.849,9.626 "/>
<polygon style="fill:#1E1B1D;" points="0.146,21.946 10.196,21.946 10.196,24.9 3.463,24.9 3.463,29.09 9.664,29.09 9.664,32.045 
	3.463,32.045 3.463,38.9 0.146,38.9 "/>
<path style="fill:#1E1B1D;" d="M28.548,35.146H23.34l-1.285,3.755h-3.317l6.104-17.077h2.447l6.103,17.077h-3.487L28.548,35.146z
	 M24.187,32.482h3.633l-1.258-3.779l-0.509-2.664h-0.121l-0.509,2.688L24.187,32.482z"/>
<path style="fill:#1E1B1D;" d="M53.061,25.894c0,0.42-0.053,0.839-0.157,1.259c-0.105,0.42-0.278,0.803-0.521,1.151
	c-0.24,0.346-0.556,0.654-0.942,0.919c-0.39,0.268-0.857,0.467-1.406,0.595v0.144c0.485,0.081,0.945,0.219,1.38,0.413
	c0.438,0.193,0.816,0.46,1.139,0.799c0.324,0.339,0.578,0.75,0.765,1.235c0.184,0.484,0.278,1.059,0.278,1.721
	c0,0.871-0.187,1.626-0.559,2.264c-0.37,0.639-0.868,1.159-1.489,1.562c-0.622,0.404-1.327,0.704-2.119,0.897
	c-0.791,0.194-1.607,0.29-2.447,0.29h-1.054c-0.428,0-0.889-0.011-1.381-0.035c-0.49-0.024-0.992-0.061-1.501-0.109
	c-0.509-0.05-0.973-0.122-1.393-0.219V22.065c0.306-0.048,0.658-0.096,1.054-0.146c0.395-0.048,0.82-0.088,1.271-0.119
	c0.452-0.034,0.916-0.058,1.393-0.074c0.476-0.015,0.949-0.024,1.417-0.024c0.792,0,1.562,0.061,2.314,0.182
	c0.75,0.12,1.42,0.336,2.01,0.641c0.589,0.308,1.061,0.736,1.417,1.285C52.883,24.359,53.061,25.053,53.061,25.894 M45.915,29.066
	c0.228,0,0.489-0.008,0.787-0.024c0.298-0.017,0.545-0.041,0.739-0.072c0.613-0.192,1.142-0.479,1.586-0.862
	c0.444-0.383,0.667-0.888,0.667-1.511c0-0.416-0.081-0.759-0.243-1.03c-0.16-0.272-0.374-0.488-0.641-0.648
	c-0.268-0.159-0.57-0.271-0.909-0.336c-0.339-0.062-0.694-0.095-1.066-0.095c-0.42,0-0.807,0.009-1.163,0.024
	c-0.354,0.016-0.628,0.04-0.822,0.071v4.483H45.915z M47.006,36.356c0.403,0,0.794-0.046,1.175-0.144
	c0.379-0.096,0.714-0.243,1.006-0.442c0.291-0.201,0.524-0.451,0.701-0.755c0.177-0.304,0.268-0.665,0.268-1.08
	c0-0.527-0.105-0.943-0.315-1.247s-0.484-0.54-0.823-0.708c-0.339-0.167-0.72-0.276-1.14-0.324c-0.42-0.046-0.84-0.072-1.26-0.072
	H44.85v4.628c0.081,0.033,0.21,0.057,0.388,0.072c0.177,0.017,0.367,0.03,0.57,0.037c0.199,0.007,0.41,0.017,0.63,0.024
	C46.654,36.353,46.845,36.356,47.006,36.356"/>
<path style="fill:#1E1B1D;" d="M0.145,51.182c0.371-0.065,0.771-0.126,1.2-0.183c0.427-0.057,0.854-0.101,1.284-0.132
	c0.427-0.034,0.842-0.058,1.247-0.074c0.404-0.015,0.773-0.024,1.113-0.024c0.791,0,1.57,0.074,2.338,0.217
	c0.766,0.146,1.453,0.396,2.06,0.752c0.604,0.356,1.088,0.844,1.453,1.465c0.362,0.622,0.544,1.402,0.544,2.338
	c0,1.389-0.323,2.52-0.969,3.391c-0.646,0.872-1.51,1.479-2.592,1.817L9.011,61.5l3.876,6.467H9.059L5.208,61.33l-1.745-0.313v6.95
	H0.145V51.182z M5.231,53.724c-0.339,0-0.674,0.009-1.006,0.024c-0.33,0.017-0.586,0.05-0.763,0.098v4.917h1.405
	c0.92,0,1.654-0.21,2.205-0.63c0.549-0.42,0.822-1.115,0.822-2.084c0-0.726-0.227-1.295-0.678-1.708
	C6.767,53.93,6.103,53.724,5.231,53.724"/>
<rect x="24.15" y="51.013" style="fill:#1E1B1D;" width="3.317" height="16.954"/>
<path style="fill:#1E1B1D;" d="M39.229,59.489c0-2.824,0.621-5.001,1.865-6.528c1.243-1.525,3.019-2.29,5.33-2.29
	c1.21,0,2.268,0.21,3.172,0.63c0.905,0.421,1.655,1.019,2.253,1.793c0.597,0.776,1.041,1.704,1.332,2.786
	c0.291,1.083,0.435,2.286,0.435,3.608c0,2.826-0.624,5.001-1.877,6.529c-1.251,1.525-3.022,2.287-5.314,2.287
	c-1.229,0-2.294-0.209-3.199-0.629c-0.904-0.42-1.65-1.018-2.24-1.793c-0.59-0.773-1.03-1.703-1.321-2.785
	C39.376,62.016,39.229,60.813,39.229,59.489 M42.718,59.489c0,0.858,0.071,1.643,0.217,2.361c0.146,0.719,0.367,1.338,0.667,1.854
	c0.299,0.518,0.682,0.922,1.15,1.211c0.468,0.291,1.025,0.436,1.673,0.436c1.177,0,2.091-0.459,2.735-1.379
	c0.646-0.922,0.97-2.416,0.97-4.482c0-0.824-0.069-1.59-0.207-2.301c-0.137-0.71-0.351-1.332-0.642-1.865
	c-0.291-0.532-0.67-0.948-1.138-1.247c-0.468-0.298-1.041-0.448-1.719-0.448c-1.18,0-2.094,0.472-2.738,1.417
	C43.039,55.988,42.718,57.472,42.718,59.489 M55.313,72.855c-0.776,0.213-1.559,0.32-2.351,0.32c-0.823,0-1.621-0.086-2.397-0.256
	c-0.775-0.168-1.527-0.352-2.253-0.545S46.883,72,46.204,71.83c-0.678-0.17-1.314-0.254-1.911-0.254
	c-0.39,0-0.762,0.047-1.115,0.145v-2.859c0.452-0.096,0.92-0.143,1.403-0.143c0.679,0,1.354,0.078,2.023,0.238
	c0.671,0.156,1.352,0.33,2.047,0.512s1.406,0.354,2.132,0.512c0.728,0.16,1.494,0.24,2.302,0.24c0.354,0,0.718-0.021,1.09-0.061
	c0.371-0.041,0.75-0.109,1.139-0.207V72.855z"/>
<path style="fill:#1E1B1D;" d="M9.35,80.078h3.149v10.947c0,1.1-0.146,2.043-0.436,2.836c-0.291,0.789-0.695,1.443-1.212,1.963
	c-0.517,0.516-1.146,0.895-1.89,1.137s-1.559,0.363-2.446,0.363c-4.296,0-6.444-1.963-6.444-5.887V80.078h3.32v10.707
	c0,0.66,0.061,1.223,0.18,1.684c0.122,0.459,0.312,0.83,0.57,1.113s0.582,0.482,0.969,0.605c0.389,0.121,0.84,0.182,1.355,0.182
	c1.02,0,1.752-0.283,2.205-0.848c0.451-0.564,0.679-1.477,0.679-2.736V80.078z"/>
<polygon style="fill:#1E1B1D;" points="20.917,80.078 30.969,80.078 30.969,83.033 24.234,83.033 24.234,86.98 30.364,86.98 
	30.364,89.936 24.234,89.936 24.234,94.078 31.09,94.078 31.09,97.033 20.917,97.033 "/>
</svg>
