<?xml version="1.0" encoding="utf-8"?>
<!-- Generator: Adobe Illustrator 16.0.0, SVG Export Plug-In . SVG Version: 6.00 Build 0)  -->
<!DOCTYPE svg PUBLIC "-//W3C//DTD SVG 1.1//EN" "http://www.w3.org/Graphics/SVG/1.1/DTD/svg11.dtd">
<svg version="1.1" id="Layer_1" xmlns="http://www.w3.org/2000/svg" xmlns:xlink="http://www.w3.org/1999/xlink" x="0px" y="0px"
	 width="62.834px" height="118.667px" viewBox="0 0 62.834 118.667" style="enable-background:new 0 0 62.834 118.667;"
	 xml:space="preserve">
<path style="fill:#E9A837;" d="M40.129,100.152c0,0.72-0.583,1.304-1.303,1.304c-0.719,0-1.302-0.584-1.302-1.304
	c0-0.719,0.583-1.303,1.302-1.303C39.546,98.85,40.129,99.434,40.129,100.152"/>
<path style="fill:#00B8B0;" d="M57.373,97.516l0.003-0.006c0,0-0.009-0.01-0.02-0.021c-0.006-0.006-0.014-0.011-0.02-0.017
	c-0.142-0.129-0.731-0.61-2.211-1.138c0,0-0.095,1.834,0,2.194c0.006,0.021,0.025,0.035,0.037,0.053
	c0.09,0.632,0.61,1.123,1.267,1.123c0.72,0,1.303-0.583,1.303-1.302C57.732,98.058,57.592,97.748,57.373,97.516"/>
<path style="fill:#00B8B0;" d="M40.294,72.14c0.719,0,1.303-0.583,1.303-1.303c0-0.719-0.584-1.302-1.303-1.302
	s-1.303,0.583-1.303,1.302C38.991,71.557,39.575,72.14,40.294,72.14"/>
<path style="fill:#00B8B0;" d="M56.053,91.054l-0.005-0.004c1.446-1.928,1.978-4.28,0.933-6.347
	c-0.589-1.164-1.37-1.812-2.261-2.153c-0.031-0.035-0.085-0.062-0.189-0.069c-0.029-0.002-0.054-0.015-0.08-0.02
	c-0.067-0.021-0.134-0.045-0.201-0.062c-0.524-0.259-0.776-1.052-0.776-1.052l-0.004,0.013c-0.286-0.872-1.097-1.506-2.063-1.506
	c-1.116,0-2.025,0.841-2.155,1.922l-0.008-0.004c0,0-0.061,0.65-1.092,0.841c-2.168,0.078-3.979-0.527-4.515-4.074
	c-1.306-8.632-8.776-3.555-8.776-3.555c-1.046,0.773-1.557,1.825-1.532,3.17c-0.038,0.086-0.043,0.209-0.002,0.381
	c0.332,1.387-0.46,1.645-0.46,1.645l0.01-0.001c-0.628,0.383-1.052,1.068-1.052,1.858c0,1.204,0.977,2.182,2.182,2.182
	c0.218,0,0.425-0.042,0.624-0.103l-0.001,0.011c0,0,0.953-0.217,1.455,0.727c0.028,0.057,0.062,0.101,0.099,0.137
	c1.253,1.885,2.906,4.004,4.988,6.387c1.745,1.996,3.699,3.041,5.633,3.402c0.255,0.15,0.732,0.215,1.507,0.155
	c0.051-0.004,0.094-0.005,0.145-0.008c0.319-0.003,0.638-0.021,0.953-0.056c4.825-0.206,5.351,0.935,5.351,0.935
	C54.022,93.487,56.053,91.054,56.053,91.054"/>
<path style="fill:#E9A837;" d="M50.435,93.779c0,2.838-2.302,5.14-5.14,5.14s-5.139-2.302-5.139-5.14s2.301-5.139,5.139-5.139
	S50.435,90.941,50.435,93.779"/>
<path style="fill:#1E1B1D;" d="M0,109.273c0.068-0.01,0.146-0.018,0.232-0.025c0.086-0.006,0.176-0.011,0.269-0.014
	c0.091-0.004,0.18-0.006,0.267-0.007c0.086-0.002,0.164-0.003,0.233-0.003c0.304,0,0.565,0.043,0.78,0.127
	c0.216,0.086,0.391,0.205,0.524,0.358c0.134,0.154,0.233,0.338,0.296,0.55c0.062,0.213,0.092,0.446,0.092,0.702
	c0,0.232-0.029,0.455-0.088,0.673c-0.059,0.216-0.158,0.406-0.293,0.573c-0.139,0.167-0.32,0.302-0.543,0.402
	c-0.225,0.101-0.502,0.152-0.832,0.152c-0.053,0-0.123-0.001-0.209-0.004c-0.086-0.005-0.177-0.009-0.27-0.013
	c-0.094-0.006-0.184-0.01-0.268-0.015c-0.086-0.006-0.149-0.011-0.191-0.018V109.273z M1.055,109.823
	c-0.072,0-0.145,0.002-0.219,0.005c-0.073,0.003-0.128,0.008-0.164,0.016v2.301c0.014,0.004,0.035,0.005,0.066,0.007
	s0.064,0.004,0.101,0.005c0.036,0.002,0.069,0.004,0.103,0.006c0.033,0.001,0.058,0.001,0.074,0.001c0.19,0,0.348-0.032,0.473-0.1
	c0.127-0.067,0.227-0.156,0.301-0.267c0.072-0.112,0.125-0.24,0.154-0.387c0.029-0.145,0.043-0.295,0.043-0.448
	c0-0.134-0.012-0.27-0.039-0.405c-0.025-0.135-0.073-0.258-0.145-0.366c-0.07-0.107-0.166-0.196-0.287-0.265
	S1.24,109.823,1.055,109.823"/>
<polygon style="fill:#1E1B1D;" points="5.139,109.273 7.174,109.273 7.174,109.872 5.811,109.872 5.811,110.672 7.051,110.672 
	7.051,111.271 5.811,111.271 5.811,112.109 7.199,112.109 7.199,112.709 5.139,112.709 "/>
<path style="fill:#1E1B1D;" d="M11.146,111.786c0-0.104-0.039-0.189-0.115-0.255c-0.078-0.066-0.174-0.125-0.291-0.179
	c-0.115-0.055-0.241-0.11-0.377-0.167c-0.137-0.059-0.262-0.127-0.379-0.211c-0.115-0.084-0.213-0.188-0.289-0.312
	c-0.076-0.124-0.115-0.282-0.115-0.476c0-0.166,0.027-0.312,0.084-0.435c0.055-0.123,0.135-0.225,0.236-0.307
	c0.104-0.081,0.226-0.144,0.367-0.182c0.141-0.039,0.299-0.059,0.471-0.059c0.201,0,0.388,0.017,0.564,0.051
	c0.178,0.034,0.322,0.084,0.436,0.15l-0.211,0.563c-0.07-0.045-0.178-0.087-0.322-0.125c-0.145-0.037-0.301-0.056-0.467-0.056
	c-0.157,0-0.277,0.031-0.36,0.093c-0.083,0.062-0.125,0.146-0.125,0.25c0,0.1,0.038,0.182,0.114,0.246
	c0.078,0.065,0.174,0.125,0.291,0.182c0.115,0.056,0.24,0.112,0.377,0.172c0.136,0.059,0.263,0.13,0.378,0.213
	c0.116,0.084,0.213,0.187,0.29,0.31c0.076,0.123,0.115,0.275,0.115,0.459s-0.03,0.341-0.092,0.474
	c-0.06,0.133-0.145,0.242-0.254,0.331s-0.242,0.154-0.398,0.195c-0.155,0.043-0.325,0.065-0.512,0.065
	c-0.246,0-0.463-0.024-0.648-0.069c-0.188-0.046-0.324-0.091-0.413-0.138l0.217-0.574c0.035,0.021,0.082,0.041,0.14,0.064
	c0.057,0.022,0.123,0.044,0.193,0.063c0.073,0.02,0.148,0.036,0.229,0.049c0.08,0.014,0.164,0.02,0.248,0.02
	c0.199,0,0.353-0.033,0.459-0.101C11.093,112.026,11.146,111.924,11.146,111.786"/>
<rect x="14.296" y="109.274" style="fill:#1E1B1D;" width="0.673" height="3.435"/>
<path style="fill:#1E1B1D;" d="M18.803,110.917h1.281v1.531c-0.139,0.115-0.303,0.198-0.494,0.25
	c-0.191,0.053-0.381,0.079-0.567,0.079c-0.219,0-0.422-0.034-0.61-0.104c-0.188-0.068-0.351-0.176-0.488-0.321
	c-0.137-0.146-0.245-0.331-0.324-0.557c-0.078-0.226-0.118-0.493-0.118-0.806c0-0.323,0.048-0.599,0.142-0.826
	c0.092-0.227,0.215-0.413,0.367-0.555s0.323-0.245,0.512-0.31c0.19-0.063,0.384-0.096,0.58-0.096s0.369,0.016,0.518,0.044
	c0.148,0.03,0.268,0.062,0.355,0.095l-0.137,0.563c-0.082-0.033-0.174-0.058-0.275-0.076c-0.102-0.018-0.23-0.025-0.388-0.025
	c-0.141,0-0.27,0.021-0.387,0.062c-0.119,0.043-0.222,0.112-0.308,0.208c-0.086,0.097-0.153,0.221-0.2,0.371
	c-0.048,0.151-0.072,0.334-0.072,0.55c0,0.206,0.022,0.383,0.069,0.532c0.045,0.149,0.109,0.271,0.191,0.369
	c0.081,0.096,0.178,0.167,0.287,0.213s0.227,0.068,0.352,0.068c0.084,0,0.168-0.011,0.25-0.031c0.082-0.022,0.15-0.053,0.205-0.096
	v-0.647l-0.74-0.08V110.917z"/>
<polygon style="fill:#1E1B1D;" points="23.396,110.917 23.125,110.377 23.102,110.377 23.18,110.917 23.18,112.709 22.542,112.709 
	22.542,109.248 23.032,109.248 24.333,111.079 24.593,111.604 24.617,111.604 24.539,111.079 24.539,109.273 25.177,109.273 
	25.177,112.733 24.686,112.733 "/>
<polygon style="fill:#1E1B1D;" points="2.664,116.816 2.738,116.134 2.709,116.134 2.497,116.684 1.766,117.965 1.551,117.965 
	0.779,116.679 0.564,116.134 0.539,116.134 0.637,116.812 0.637,118.598 0,118.598 0,115.163 0.613,115.163 1.531,116.732 
	1.693,117.126 1.713,117.126 1.859,116.724 2.729,115.163 3.338,115.163 3.338,118.598 2.664,118.598 "/>
<path style="fill:#1E1B1D;" d="M7.582,117.838H6.526l-0.26,0.76H5.595l1.237-3.46h0.494l1.237,3.46H7.856L7.582,117.838z
	 M6.699,117.298h0.736l-0.256-0.767l-0.104-0.54H7.051l-0.102,0.546L6.699,117.298z"/>
<polygon style="fill:#1E1B1D;" points="11.676,116.807 11.405,116.267 11.381,116.267 11.459,116.807 11.459,118.599 
	10.822,118.599 10.822,115.138 11.312,115.138 12.613,116.969 12.873,117.493 12.896,117.493 12.819,116.969 12.819,115.162 
	13.457,115.162 13.457,118.623 12.967,118.623 "/>
<path style="fill:#1E1B1D;" d="M17.873,115.163h0.639v2.219c0,0.222-0.029,0.414-0.088,0.574c-0.06,0.16-0.142,0.293-0.246,0.396
	c-0.104,0.105-0.231,0.182-0.383,0.23c-0.15,0.05-0.314,0.074-0.496,0.074c-0.871,0-1.305-0.397-1.305-1.193v-2.301h0.673v2.169
	c0,0.134,0.013,0.248,0.036,0.341c0.023,0.094,0.062,0.169,0.115,0.226c0.052,0.058,0.117,0.099,0.195,0.123
	c0.08,0.024,0.172,0.037,0.276,0.037c0.205,0,0.354-0.058,0.446-0.172c0.091-0.115,0.137-0.3,0.137-0.555V115.163z"/>
<polygon style="fill:#1E1B1D;" points="21.05,115.163 23.086,115.163 23.086,115.761 21.722,115.761 21.722,116.61 22.979,116.61 
	22.979,117.209 21.722,117.209 21.722,118.598 21.05,118.598 "/>
<path style="fill:#1E1B1D;" d="M27.199,117.838h-1.057l-0.26,0.76h-0.672l1.237-3.46h0.495l1.236,3.46h-0.707L27.199,117.838z
	 M26.314,117.298h0.737l-0.256-0.767l-0.103-0.54h-0.025l-0.104,0.546L26.314,117.298z"/>
<path style="fill:#1E1B1D;" d="M32.611,118.458c-0.104,0.073-0.236,0.128-0.399,0.161c-0.162,0.031-0.327,0.048-0.498,0.048
	c-0.206,0-0.402-0.031-0.587-0.097c-0.185-0.063-0.348-0.166-0.488-0.308c-0.14-0.143-0.252-0.328-0.336-0.556
	s-0.125-0.502-0.125-0.827c0-0.336,0.047-0.618,0.14-0.846s0.214-0.41,0.363-0.551c0.149-0.139,0.314-0.237,0.498-0.299
	c0.184-0.061,0.367-0.091,0.55-0.091c0.196,0,0.362,0.013,0.498,0.039s0.248,0.058,0.337,0.093l-0.133,0.57
	c-0.076-0.036-0.165-0.062-0.267-0.078c-0.104-0.017-0.229-0.025-0.377-0.025c-0.271,0-0.489,0.098-0.654,0.291
	c-0.166,0.193-0.248,0.493-0.248,0.899c0,0.177,0.019,0.339,0.059,0.485c0.039,0.146,0.1,0.27,0.18,0.373
	c0.079,0.104,0.18,0.184,0.299,0.241c0.119,0.057,0.258,0.085,0.415,0.085c0.146,0,0.271-0.015,0.373-0.043
	c0.102-0.029,0.189-0.066,0.265-0.113L32.611,118.458z"/>
<polygon style="fill:#1E1B1D;" points="37.215,115.761 36.213,115.761 36.213,118.598 35.542,118.598 35.542,115.761 
	34.535,115.761 34.535,115.163 37.215,115.163 "/>
<path style="fill:#1E1B1D;" d="M41.391,115.163h0.639v2.219c0,0.222-0.029,0.414-0.088,0.574c-0.06,0.16-0.142,0.293-0.245,0.396
	c-0.105,0.105-0.232,0.182-0.383,0.23c-0.151,0.05-0.315,0.074-0.496,0.074c-0.871,0-1.306-0.397-1.306-1.193v-2.301h0.674v2.169
	c0,0.134,0.012,0.248,0.035,0.341c0.024,0.094,0.063,0.169,0.115,0.226c0.052,0.058,0.118,0.099,0.196,0.123
	c0.079,0.024,0.171,0.037,0.275,0.037c0.205,0,0.354-0.058,0.446-0.172c0.091-0.115,0.137-0.3,0.137-0.555V115.163z"/>
<path style="fill:#1E1B1D;" d="M44.567,115.197c0.075-0.013,0.156-0.024,0.243-0.038c0.087-0.011,0.173-0.02,0.26-0.026
	c0.087-0.006,0.171-0.011,0.253-0.015c0.082-0.003,0.157-0.005,0.227-0.005c0.159,0,0.317,0.016,0.473,0.045
	c0.156,0.028,0.294,0.08,0.417,0.151c0.123,0.072,0.221,0.171,0.295,0.297c0.073,0.126,0.11,0.284,0.11,0.474
	c0,0.281-0.066,0.511-0.196,0.688c-0.131,0.177-0.306,0.299-0.525,0.368l0.241,0.151l0.785,1.312h-0.776l-0.78-1.346l-0.354-0.063
	v1.409h-0.672V115.197z M45.599,115.713c-0.069,0-0.138,0.002-0.204,0.005c-0.068,0.003-0.119,0.01-0.155,0.019v0.996h0.285
	c0.187,0,0.335-0.042,0.447-0.127c0.11-0.085,0.167-0.226,0.167-0.422c0-0.147-0.046-0.263-0.139-0.346
	C45.909,115.755,45.774,115.713,45.599,115.713"/>
<polygon style="fill:#1E1B1D;" points="49.485,115.163 51.521,115.163 51.521,115.761 50.157,115.761 50.157,116.561 
	51.397,116.561 51.397,117.16 50.157,117.16 50.157,117.999 51.545,117.999 51.545,118.598 49.485,118.598 "/>
<polygon style="fill:#1E1B1D;" points="7.637,4.693 7.846,2.758 7.762,2.758 7.162,4.317 5.088,7.954 4.476,7.954 2.287,4.303 
	1.676,2.758 1.605,2.758 1.885,4.679 1.885,9.75 0.074,9.75 0.074,0 1.814,0 4.42,4.458 4.879,5.571 4.935,5.571 5.353,4.429 
	7.817,0 9.545,0 9.545,9.75 7.637,9.75 "/>
<path style="fill:#1E1B1D;" d="M27.422,7.7h-2.996l-0.738,2.159h-1.908l3.51-9.819h1.407l3.51,9.819H28.2L27.422,7.7z M24.913,6.168
	h2.089l-0.723-2.173l-0.293-1.532h-0.07l-0.291,1.546L24.913,6.168z"/>
<polygon style="fill:#1E1B1D;" points="45.772,4.791 43.057,0.001 45.355,0.001 46.859,2.813 47.193,3.803 47.515,2.813 
	49.087,0.001 51.162,0.001 48.35,4.694 51.303,9.75 49.032,9.75 47.319,6.741 46.943,5.711 46.58,6.741 44.853,9.75 42.777,9.75 "/>
<polygon style="fill:#1E1B1D;" points="0.074,22.069 10.125,22.069 10.125,25.024 3.392,25.024 3.392,29.214 9.593,29.214 
	9.593,32.169 3.392,32.169 3.392,39.024 0.074,39.024 "/>
<path style="fill:#1E1B1D;" d="M28.477,35.27h-5.208l-1.285,3.755h-3.317l6.104-17.077h2.447l6.103,17.077h-3.487L28.477,35.27z
	 M24.115,32.605h3.633l-1.258-3.779l-0.509-2.664H25.86l-0.509,2.688L24.115,32.605z"/>
<path style="fill:#1E1B1D;" d="M52.989,26.017c0,0.42-0.053,0.839-0.157,1.259c-0.105,0.42-0.278,0.803-0.521,1.151
	c-0.24,0.346-0.556,0.654-0.942,0.919c-0.39,0.268-0.857,0.467-1.406,0.595v0.144c0.485,0.081,0.945,0.219,1.38,0.413
	c0.438,0.193,0.816,0.46,1.139,0.799c0.324,0.339,0.578,0.75,0.765,1.235c0.184,0.484,0.278,1.059,0.278,1.721
	c0,0.871-0.187,1.626-0.559,2.264c-0.37,0.639-0.868,1.159-1.489,1.562c-0.622,0.404-1.327,0.704-2.119,0.897
	c-0.791,0.194-1.607,0.29-2.447,0.29h-1.054c-0.428,0-0.889-0.011-1.381-0.035c-0.49-0.024-0.992-0.061-1.501-0.109
	c-0.509-0.05-0.973-0.122-1.393-0.219V22.189c0.306-0.048,0.658-0.096,1.054-0.146c0.395-0.048,0.82-0.088,1.271-0.119
	c0.452-0.034,0.916-0.058,1.393-0.074c0.476-0.015,0.949-0.024,1.417-0.024c0.792,0,1.562,0.061,2.314,0.182
	c0.75,0.12,1.42,0.336,2.01,0.641c0.589,0.308,1.061,0.736,1.417,1.285C52.812,24.483,52.989,25.177,52.989,26.017 M45.844,29.19
	c0.228,0,0.489-0.008,0.787-0.024c0.298-0.017,0.545-0.041,0.739-0.072c0.613-0.192,1.142-0.479,1.586-0.862
	c0.444-0.383,0.667-0.888,0.667-1.511c0-0.416-0.081-0.759-0.243-1.03c-0.16-0.272-0.374-0.488-0.641-0.648
	c-0.268-0.159-0.57-0.271-0.909-0.336c-0.339-0.062-0.694-0.095-1.066-0.095c-0.42,0-0.807,0.009-1.163,0.024
	c-0.354,0.016-0.628,0.04-0.822,0.071v4.483H45.844z M46.935,36.48c0.403,0,0.794-0.046,1.175-0.144
	c0.379-0.096,0.714-0.243,1.006-0.442c0.291-0.201,0.524-0.451,0.701-0.755c0.177-0.304,0.268-0.665,0.268-1.08
	c0-0.527-0.105-0.943-0.315-1.247s-0.484-0.54-0.823-0.708c-0.339-0.167-0.72-0.276-1.14-0.324c-0.42-0.046-0.84-0.072-1.26-0.072
	h-1.768v4.628c0.081,0.033,0.21,0.057,0.388,0.072c0.177,0.017,0.367,0.03,0.57,0.037c0.199,0.007,0.41,0.017,0.63,0.024
	C46.583,36.476,46.773,36.48,46.935,36.48"/>
<path style="fill:#1E1B1D;" d="M0.073,51.306c0.371-0.065,0.771-0.126,1.2-0.183c0.427-0.057,0.854-0.101,1.284-0.132
	c0.427-0.034,0.842-0.058,1.247-0.074c0.404-0.015,0.773-0.024,1.113-0.024c0.791,0,1.57,0.074,2.338,0.217
	c0.766,0.146,1.453,0.396,2.06,0.752c0.604,0.356,1.088,0.844,1.453,1.465c0.362,0.622,0.544,1.402,0.544,2.338
	c0,1.389-0.323,2.52-0.969,3.391c-0.646,0.872-1.51,1.478-2.592,1.817l1.188,0.752l3.876,6.466H8.987l-3.851-6.636L3.392,61.14
	v6.951H0.073V51.306z M5.16,53.848c-0.339,0-0.674,0.009-1.006,0.024c-0.33,0.017-0.586,0.05-0.763,0.098v4.917h1.405
	c0.92,0,1.654-0.21,2.205-0.63c0.549-0.42,0.822-1.115,0.822-2.084c0-0.726-0.227-1.295-0.678-1.708
	C6.695,54.054,6.031,53.848,5.16,53.848"/>
<rect x="24.079" y="51.136" style="fill:#1E1B1D;" width="3.317" height="16.955"/>
<path style="fill:#1E1B1D;" d="M39.158,59.613c0-2.824,0.621-5.002,1.865-6.528c1.243-1.525,3.019-2.29,5.33-2.29
	c1.21,0,2.268,0.21,3.172,0.63c0.905,0.421,1.655,1.019,2.253,1.793c0.597,0.776,1.041,1.704,1.332,2.786
	c0.291,1.083,0.435,2.286,0.435,3.609c0,2.826-0.624,5.001-1.877,6.529c-1.251,1.526-3.022,2.288-5.314,2.288
	c-1.229,0-2.294-0.21-3.199-0.63c-0.904-0.42-1.65-1.018-2.24-1.792s-1.03-1.703-1.321-2.786
	C39.305,62.141,39.158,60.938,39.158,59.613 M42.646,59.613c0,0.857,0.071,1.643,0.217,2.362c0.146,0.718,0.367,1.337,0.667,1.854
	c0.299,0.518,0.682,0.921,1.15,1.211c0.468,0.291,1.025,0.436,1.673,0.436c1.177,0,2.091-0.46,2.735-1.38
	c0.646-0.921,0.97-2.415,0.97-4.482c0-0.824-0.069-1.59-0.207-2.301c-0.137-0.71-0.351-1.332-0.642-1.865
	c-0.291-0.532-0.67-0.948-1.138-1.247c-0.468-0.298-1.041-0.448-1.719-0.448c-1.18,0-2.094,0.472-2.738,1.417
	C42.968,56.112,42.646,57.596,42.646,59.613 M55.242,72.98c-0.776,0.212-1.559,0.319-2.351,0.319c-0.823,0-1.621-0.085-2.397-0.255
	c-0.775-0.169-1.527-0.352-2.253-0.545s-1.43-0.376-2.108-0.545c-0.678-0.17-1.314-0.254-1.911-0.254
	c-0.39,0-0.762,0.047-1.115,0.145v-2.859c0.452-0.096,0.92-0.144,1.403-0.144c0.679,0,1.354,0.079,2.023,0.238
	c0.671,0.157,1.352,0.33,2.047,0.512s1.406,0.354,2.132,0.512c0.728,0.16,1.494,0.24,2.302,0.24c0.354,0,0.718-0.021,1.09-0.061
	c0.371-0.041,0.75-0.109,1.139-0.207V72.98z"/>
<path style="fill:#1E1B1D;" d="M9.278,80.203h3.149v10.946c0,1.101-0.146,2.043-0.436,2.836c-0.291,0.79-0.695,1.444-1.212,1.963
	c-0.517,0.516-1.146,0.895-1.89,1.138c-0.744,0.242-1.559,0.363-2.446,0.363C2.148,97.449,0,95.486,0,91.562V80.203h3.32v10.706
	c0,0.66,0.061,1.223,0.18,1.684c0.122,0.459,0.312,0.831,0.57,1.113c0.258,0.283,0.582,0.483,0.969,0.605
	c0.389,0.121,0.84,0.183,1.355,0.183c1.02,0,1.752-0.284,2.205-0.848c0.451-0.565,0.679-1.478,0.679-2.737V80.203z"/>
<polygon style="fill:#1E1B1D;" points="20.846,80.203 30.897,80.203 30.897,83.158 24.163,83.158 24.163,87.105 30.293,87.105 
	30.293,90.061 24.163,90.061 24.163,94.203 31.019,94.203 31.019,97.158 20.846,97.158 "/>
</svg>
