<?xml version="1.0" encoding="utf-8"?>
<!-- Generator: Adobe Illustrator 16.0.0, SVG Export Plug-In . SVG Version: 6.00 Build 0)  -->
<!DOCTYPE svg PUBLIC "-//W3C//DTD SVG 1.1//EN" "http://www.w3.org/Graphics/SVG/1.1/DTD/svg11.dtd">
<svg version="1.1" id="Layer_1" xmlns="http://www.w3.org/2000/svg" xmlns:xlink="http://www.w3.org/1999/xlink" x="0px" y="0px"
	 width="56.028px" height="120px" viewBox="0 0 56.028 120" style="enable-background:new 0 0 56.028 120;" xml:space="preserve">
<path style="fill:#FFFFFF;" d="M0,110.283c0.069-0.01,0.148-0.018,0.234-0.025c0.087-0.006,0.178-0.01,0.271-0.014
	c0.092-0.004,0.182-0.006,0.27-0.006c0.086-0.002,0.166-0.004,0.235-0.004c0.307,0,0.571,0.043,0.788,0.128
	c0.218,0.087,0.394,0.207,0.529,0.362c0.135,0.156,0.235,0.341,0.298,0.554c0.062,0.215,0.093,0.452,0.093,0.71
	c0,0.234-0.03,0.459-0.089,0.678s-0.16,0.41-0.295,0.58c-0.14,0.167-0.323,0.304-0.548,0.406c-0.227,0.101-0.506,0.153-0.839,0.153
	c-0.053,0-0.125-0.002-0.211-0.004c-0.087-0.006-0.179-0.01-0.272-0.014c-0.095-0.006-0.186-0.01-0.27-0.014
	c-0.087-0.006-0.151-0.012-0.193-0.018V110.283z M1.064,110.838c-0.073,0-0.146,0.002-0.221,0.004
	c-0.074,0.004-0.129,0.008-0.166,0.016v2.322c0.014,0.004,0.035,0.006,0.067,0.008s0.065,0.004,0.102,0.004
	c0.037,0.002,0.07,0.004,0.104,0.006c0.033,0.002,0.058,0.002,0.075,0.002c0.192,0,0.351-0.033,0.477-0.1
	c0.128-0.069,0.229-0.158,0.304-0.271c0.073-0.112,0.126-0.242,0.156-0.391c0.029-0.146,0.043-0.297,0.043-0.451
	c0-0.136-0.012-0.271-0.04-0.41c-0.026-0.136-0.074-0.26-0.146-0.368c-0.071-0.108-0.167-0.199-0.29-0.269
	C1.407,110.873,1.251,110.838,1.064,110.838"/>
<polygon style="fill:#FFFFFF;" points="5.186,110.283 7.24,110.283 7.24,110.888 5.864,110.888 5.864,111.694 7.116,111.694 
	7.116,112.299 5.864,112.299 5.864,113.145 7.266,113.145 7.266,113.75 5.186,113.75 "/>
<path style="fill:#FFFFFF;" d="M11.25,112.82c0-0.104-0.04-0.191-0.116-0.259c-0.079-0.066-0.176-0.126-0.294-0.179
	c-0.116-0.056-0.243-0.112-0.38-0.17c-0.138-0.059-0.264-0.128-0.382-0.213c-0.116-0.085-0.215-0.189-0.292-0.315
	c-0.077-0.124-0.117-0.283-0.117-0.479c0-0.168,0.028-0.315,0.085-0.439c0.055-0.125,0.136-0.228,0.238-0.31
	c0.105-0.081,0.228-0.145,0.371-0.184c0.142-0.039,0.302-0.06,0.475-0.06c0.203,0,0.392,0.019,0.57,0.052
	c0.179,0.035,0.325,0.085,0.439,0.151l-0.213,0.57c-0.071-0.046-0.179-0.089-0.325-0.126c-0.146-0.038-0.304-0.058-0.471-0.058
	c-0.159,0-0.28,0.031-0.364,0.095c-0.083,0.062-0.126,0.147-0.126,0.252c0,0.101,0.039,0.184,0.115,0.249
	c0.079,0.064,0.176,0.126,0.294,0.183c0.116,0.056,0.242,0.112,0.38,0.174c0.137,0.059,0.265,0.13,0.381,0.215
	c0.117,0.085,0.215,0.188,0.293,0.312c0.077,0.124,0.116,0.277,0.116,0.463s-0.031,0.345-0.093,0.479
	c-0.06,0.134-0.146,0.244-0.256,0.333c-0.11,0.091-0.244,0.155-0.402,0.197c-0.157,0.043-0.329,0.066-0.517,0.066
	c-0.249,0-0.467-0.025-0.654-0.07c-0.189-0.046-0.327-0.091-0.417-0.139l0.219-0.579c0.036,0.02,0.083,0.041,0.141,0.064
	c0.057,0.022,0.124,0.044,0.195,0.063c0.074,0.02,0.15,0.037,0.231,0.05c0.081,0.014,0.166,0.02,0.25,0.02
	c0.201,0,0.356-0.034,0.463-0.101C11.195,113.062,11.25,112.958,11.25,112.82"/>
<rect x="14.428" y="110.285" style="fill:#FFFFFF;" width="0.679" height="3.466"/>
<path style="fill:#FFFFFF;" d="M18.977,111.943h1.293v1.545c-0.14,0.116-0.306,0.199-0.499,0.253
	c-0.193,0.053-0.384,0.078-0.573,0.078c-0.221,0-0.426-0.033-0.616-0.104c-0.19-0.068-0.354-0.177-0.493-0.323
	c-0.138-0.147-0.247-0.335-0.327-0.562c-0.079-0.229-0.119-0.499-0.119-0.814c0-0.325,0.048-0.603,0.143-0.833
	c0.092-0.229,0.217-0.416,0.371-0.561c0.153-0.142,0.326-0.246,0.516-0.312c0.192-0.064,0.387-0.097,0.585-0.097
	s0.373,0.017,0.522,0.044c0.15,0.031,0.27,0.062,0.359,0.097l-0.138,0.567c-0.083-0.033-0.175-0.057-0.278-0.077
	c-0.103-0.018-0.232-0.025-0.391-0.025c-0.142,0-0.272,0.021-0.391,0.063c-0.12,0.043-0.224,0.114-0.311,0.211
	c-0.086,0.097-0.154,0.223-0.202,0.374c-0.048,0.152-0.073,0.337-0.073,0.554c0,0.209,0.023,0.387,0.07,0.538
	c0.045,0.15,0.11,0.274,0.193,0.373c0.082,0.097,0.18,0.168,0.29,0.215c0.11,0.045,0.229,0.069,0.354,0.069
	c0.085,0,0.169-0.013,0.252-0.032c0.083-0.023,0.152-0.053,0.207-0.097v-0.654l-0.747-0.08V111.943z"/>
<polygon style="fill:#FFFFFF;" points="23.613,111.943 23.339,111.397 23.315,111.397 23.394,111.943 23.394,113.75 22.75,113.75 
	22.75,110.257 23.245,110.257 24.558,112.106 24.82,112.636 24.845,112.636 24.766,112.106 24.766,110.283 25.41,110.283 
	25.41,113.776 24.914,113.776 "/>
<polygon style="fill:#FFFFFF;" points="2.688,117.895 2.764,117.208 2.734,117.208 2.52,117.761 1.782,119.054 1.565,119.054 
	0.787,117.757 0.57,117.208 0.544,117.208 0.643,117.891 0.643,119.693 0,119.693 0,116.228 0.619,116.228 1.545,117.811 
	1.709,118.208 1.729,118.208 1.876,117.803 2.754,116.228 3.369,116.228 3.369,119.693 2.688,119.693 "/>
<path style="fill:#FFFFFF;" d="M7.652,118.926H6.587l-0.262,0.767H5.646l1.249-3.49h0.499l1.249,3.49H7.929L7.652,118.926z
	 M6.761,118.382h0.743l-0.258-0.774l-0.104-0.544H7.116l-0.102,0.55L6.761,118.382z"/>
<polygon style="fill:#FFFFFF;" points="11.784,117.885 11.511,117.341 11.486,117.341 11.565,117.885 11.565,119.695 
	10.922,119.695 10.922,116.203 11.417,116.203 12.73,118.049 12.992,118.58 13.016,118.58 12.938,118.049 12.938,116.226 
	13.582,116.226 13.582,119.719 13.086,119.719 "/>
<path style="fill:#FFFFFF;" d="M18.038,116.228h0.645v2.239c0,0.223-0.029,0.418-0.088,0.579c-0.06,0.162-0.143,0.296-0.249,0.4
	c-0.105,0.106-0.233,0.184-0.386,0.232c-0.152,0.05-0.317,0.075-0.501,0.075c-0.879,0-1.316-0.402-1.316-1.204v-2.322h0.679v2.188
	c0,0.137,0.013,0.251,0.037,0.346c0.024,0.094,0.063,0.169,0.116,0.227c0.052,0.059,0.119,0.101,0.197,0.124
	c0.081,0.025,0.173,0.037,0.279,0.037c0.207,0,0.358-0.057,0.451-0.173c0.091-0.116,0.138-0.302,0.138-0.561V116.228z"/>
<polygon style="fill:#FFFFFF;" points="21.244,116.228 23.299,116.228 23.299,116.831 21.922,116.831 21.922,117.689 
	23.191,117.689 23.191,118.292 21.922,118.292 21.922,119.693 21.244,119.693 "/>
<path style="fill:#FFFFFF;" d="M27.45,118.926h-1.066l-0.262,0.767h-0.678l1.249-3.49h0.5l1.248,3.49h-0.714L27.45,118.926z
	 M26.558,118.382h0.744l-0.258-0.774l-0.104-0.544h-0.026l-0.104,0.55L26.558,118.382z"/>
<path style="fill:#FFFFFF;" d="M32.913,119.553c-0.104,0.073-0.239,0.128-0.403,0.162c-0.164,0.031-0.33,0.049-0.503,0.049
	c-0.208,0-0.406-0.031-0.592-0.099c-0.187-0.063-0.352-0.167-0.493-0.31c-0.141-0.144-0.254-0.331-0.339-0.562
	c-0.085-0.229-0.126-0.507-0.126-0.834c0-0.339,0.047-0.625,0.141-0.854c0.094-0.23,0.216-0.414,0.366-0.556
	c0.151-0.14,0.317-0.24,0.503-0.302s0.371-0.093,0.555-0.093c0.198,0,0.366,0.014,0.503,0.04c0.137,0.027,0.25,0.059,0.34,0.094
	l-0.134,0.576c-0.077-0.038-0.167-0.063-0.27-0.079c-0.105-0.018-0.231-0.025-0.38-0.025c-0.274,0-0.494,0.099-0.66,0.294
	c-0.168,0.194-0.251,0.496-0.251,0.906c0,0.18,0.019,0.343,0.06,0.491c0.039,0.146,0.101,0.271,0.182,0.376
	c0.079,0.104,0.181,0.186,0.301,0.243c0.12,0.057,0.261,0.086,0.419,0.086c0.148,0,0.274-0.016,0.377-0.043
	c0.103-0.029,0.191-0.067,0.267-0.114L32.913,119.553z"/>
<polygon style="fill:#FFFFFF;" points="37.559,116.831 36.548,116.831 36.548,119.693 35.87,119.693 35.87,116.831 34.854,116.831 
	34.854,116.228 37.559,116.228 "/>
<path style="fill:#FFFFFF;" d="M41.773,116.228h0.645v2.239c0,0.223-0.03,0.418-0.089,0.579c-0.061,0.162-0.143,0.296-0.247,0.4
	c-0.106,0.106-0.235,0.184-0.387,0.232c-0.152,0.05-0.318,0.075-0.501,0.075c-0.879,0-1.317-0.402-1.317-1.204v-2.322h0.68v2.188
	c0,0.137,0.012,0.251,0.036,0.346c0.024,0.094,0.063,0.169,0.116,0.227c0.052,0.059,0.119,0.101,0.198,0.124
	c0.079,0.025,0.172,0.037,0.277,0.037c0.207,0,0.358-0.057,0.45-0.173s0.139-0.302,0.139-0.561V116.228z"/>
<path style="fill:#FFFFFF;" d="M44.979,116.261c0.075-0.012,0.157-0.023,0.245-0.037c0.088-0.012,0.175-0.02,0.263-0.027
	c0.087-0.007,0.172-0.011,0.255-0.015s0.158-0.006,0.229-0.006c0.161,0,0.32,0.017,0.478,0.046s0.296,0.081,0.42,0.153
	c0.125,0.073,0.224,0.172,0.298,0.3c0.074,0.126,0.111,0.286,0.111,0.478c0,0.283-0.066,0.516-0.198,0.693
	c-0.132,0.18-0.308,0.302-0.53,0.373l0.244,0.151l0.792,1.324h-0.783l-0.788-1.357l-0.356-0.065v1.423h-0.678V116.261z
	 M46.021,116.782c-0.07,0-0.14,0.002-0.206,0.006c-0.069,0.002-0.121,0.01-0.157,0.018v1.006h0.288c0.188,0,0.338-0.042,0.451-0.129
	c0.111-0.084,0.169-0.227,0.169-0.426c0-0.147-0.047-0.264-0.141-0.349C46.333,116.825,46.197,116.782,46.021,116.782"/>
<polygon style="fill:#FFFFFF;" points="49.942,116.228 51.997,116.228 51.997,116.831 50.621,116.831 50.621,117.637 
	51.872,117.637 51.872,118.243 50.621,118.243 50.621,119.09 52.021,119.09 52.021,119.693 49.942,119.693 "/>
<polygon style="fill:#FFFFFF;" points="7.708,4.737 7.918,2.784 7.833,2.784 7.229,4.357 5.135,8.027 4.517,8.027 2.308,4.343 
	1.691,2.784 1.62,2.784 1.902,4.723 1.902,9.84 0.075,9.84 0.075,0 1.831,0 4.461,4.499 4.924,5.623 4.98,5.623 5.402,4.47 7.89,0 
	9.633,0 9.633,9.84 7.708,9.84 "/>
<path style="fill:#FFFFFF;" d="M27.674,7.771h-3.022l-0.745,2.179H21.98l3.542-9.91h1.42l3.542,9.91h-2.024L27.674,7.771z
	 M25.144,6.225h2.108l-0.73-2.193l-0.295-1.546h-0.071l-0.294,1.56L25.144,6.225z"/>
<polygon style="fill:#FFFFFF;" points="46.195,4.835 43.454,0.001 45.774,0.001 47.292,2.839 47.63,3.838 47.954,2.839 
	49.541,0.001 51.635,0.001 48.797,4.737 51.777,9.84 49.485,9.84 47.757,6.803 47.377,5.764 47.011,6.803 45.267,9.84 43.173,9.84 
	"/>
<polygon style="fill:#FFFFFF;" points="0.075,22.273 10.219,22.273 10.219,25.255 3.423,25.255 3.423,29.484 9.682,29.484 
	9.682,32.466 3.423,32.466 3.423,39.385 0.075,39.385 "/>
<path style="fill:#FFFFFF;" d="M28.739,35.596h-5.256l-1.297,3.79h-3.348l6.16-17.235h2.47l6.158,17.235h-3.52L28.739,35.596z
	 M24.338,32.907h3.667l-1.27-3.813l-0.514-2.689h-0.123l-0.513,2.713L24.338,32.907z"/>
<path style="fill:#FFFFFF;" d="M53.479,26.257c0,0.424-0.053,0.847-0.158,1.271c-0.106,0.424-0.281,0.811-0.526,1.162
	c-0.242,0.35-0.561,0.66-0.951,0.928c-0.394,0.27-0.865,0.471-1.419,0.601v0.145c0.489,0.082,0.954,0.222,1.393,0.417
	c0.441,0.195,0.824,0.464,1.149,0.806c0.327,0.343,0.583,0.757,0.771,1.247c0.186,0.488,0.281,1.068,0.281,1.736
	c0,0.879-0.188,1.641-0.564,2.285c-0.373,0.645-0.876,1.169-1.503,1.577c-0.628,0.407-1.339,0.71-2.139,0.905
	c-0.798,0.195-1.622,0.292-2.47,0.292h-1.063c-0.432,0-0.896-0.011-1.394-0.035c-0.495-0.024-1.002-0.062-1.515-0.11
	c-0.514-0.05-0.982-0.123-1.405-0.221V22.394c0.308-0.048,0.664-0.097,1.062-0.147c0.398-0.048,0.828-0.088,1.284-0.12
	c0.456-0.034,0.924-0.058,1.405-0.074c0.479-0.016,0.958-0.024,1.43-0.024c0.8,0,1.577,0.062,2.336,0.184
	c0.757,0.121,1.433,0.339,2.028,0.647c0.595,0.311,1.07,0.743,1.43,1.297C53.3,24.709,53.479,25.41,53.479,26.257 M46.268,29.459
	c0.229,0,0.493-0.008,0.794-0.024c0.301-0.017,0.55-0.042,0.746-0.072c0.619-0.194,1.152-0.483,1.601-0.871
	c0.449-0.386,0.674-0.896,0.674-1.524c0-0.42-0.082-0.767-0.246-1.04c-0.161-0.274-0.377-0.492-0.646-0.654
	c-0.27-0.161-0.575-0.273-0.917-0.339c-0.343-0.063-0.701-0.096-1.076-0.096c-0.424,0-0.814,0.009-1.174,0.024
	c-0.358,0.016-0.634,0.04-0.83,0.072v4.524H46.268z M47.368,36.817c0.407,0,0.802-0.046,1.186-0.145
	c0.383-0.097,0.721-0.246,1.016-0.446c0.294-0.203,0.529-0.455,0.707-0.762c0.179-0.307,0.271-0.671,0.271-1.09
	c0-0.532-0.106-0.952-0.318-1.259s-0.489-0.545-0.831-0.714c-0.342-0.169-0.727-0.279-1.15-0.328
	c-0.424-0.046-0.848-0.072-1.271-0.072h-1.783v4.671c0.082,0.033,0.212,0.058,0.391,0.073c0.179,0.017,0.371,0.03,0.576,0.037
	c0.201,0.007,0.414,0.017,0.636,0.024C47.014,36.813,47.206,36.817,47.368,36.817"/>
<path style="fill:#FFFFFF;" d="M0.074,51.78c0.375-0.065,0.778-0.127,1.211-0.184c0.431-0.058,0.861-0.102,1.296-0.134
	c0.431-0.034,0.85-0.058,1.259-0.074c0.408-0.016,0.781-0.024,1.124-0.024c0.798,0,1.585,0.075,2.359,0.219
	c0.773,0.147,1.467,0.4,2.079,0.759c0.61,0.359,1.098,0.852,1.467,1.478c0.366,0.628,0.549,1.416,0.549,2.36
	c0,1.401-0.326,2.543-0.978,3.422c-0.651,0.88-1.524,1.492-2.616,1.834l1.198,0.758l3.912,6.526H9.07l-3.886-6.697l-1.761-0.318
	v7.016H0.074V51.78z M5.208,54.345c-0.342,0-0.68,0.009-1.015,0.025c-0.333,0.017-0.591,0.05-0.77,0.098v4.963h1.418
	c0.928,0,1.669-0.212,2.226-0.636c0.554-0.424,0.83-1.125,0.83-2.104c0-0.733-0.229-1.307-0.684-1.724
	C6.757,54.553,6.087,54.345,5.208,54.345"/>
<rect x="24.302" y="51.609" style="fill:#FFFFFF;" width="3.349" height="17.111"/>
<path style="fill:#FFFFFF;" d="M39.521,60.164c0-2.85,0.626-5.048,1.882-6.588c1.255-1.539,3.047-2.311,5.38-2.311
	c1.221,0,2.288,0.212,3.201,0.636c0.913,0.425,1.67,1.029,2.273,1.81c0.603,0.783,1.051,1.72,1.345,2.812
	c0.293,1.093,0.438,2.307,0.438,3.642c0,2.853-0.63,5.048-1.895,6.59c-1.263,1.539-3.051,2.309-5.363,2.309
	c-1.241,0-2.315-0.211-3.229-0.635c-0.912-0.424-1.665-1.027-2.261-1.81c-0.595-0.781-1.04-1.719-1.333-2.812
	C39.668,62.714,39.521,61.5,39.521,60.164 M43.041,60.164c0,0.865,0.071,1.658,0.219,2.383c0.146,0.726,0.37,1.351,0.673,1.871
	c0.302,0.522,0.688,0.931,1.161,1.222c0.472,0.294,1.035,0.44,1.688,0.44c1.188,0,2.109-0.464,2.761-1.392
	c0.652-0.931,0.979-2.438,0.979-4.524c0-0.832-0.07-1.605-0.209-2.322c-0.139-0.717-0.354-1.344-0.647-1.882
	c-0.294-0.537-0.677-0.957-1.148-1.258c-0.472-0.301-1.051-0.453-1.734-0.453c-1.19,0-2.113,0.477-2.764,1.43
	C43.365,56.63,43.041,58.128,43.041,60.164 M55.753,73.655c-0.784,0.215-1.573,0.323-2.372,0.323c-0.831,0-1.637-0.087-2.42-0.259
	c-0.782-0.169-1.542-0.354-2.273-0.55c-0.732-0.195-1.443-0.378-2.128-0.55s-1.327-0.256-1.93-0.256
	c-0.393,0-0.769,0.047-1.125,0.146v-2.886c0.456-0.097,0.929-0.145,1.416-0.145c0.686,0,1.366,0.079,2.042,0.241
	c0.678,0.157,1.364,0.333,2.066,0.517c0.701,0.183,1.419,0.356,2.151,0.516c0.734,0.162,1.508,0.243,2.323,0.243
	c0.357,0,0.724-0.021,1.1-0.062c0.375-0.041,0.757-0.11,1.149-0.209V73.655z"/>
<path style="fill:#FFFFFF;" d="M9.364,80.944h3.178v11.049c0,1.109-0.148,2.062-0.439,2.861c-0.294,0.797-0.702,1.457-1.223,1.981
	c-0.521,0.521-1.156,0.902-1.907,1.147c-0.751,0.244-1.573,0.366-2.469,0.366C2.168,98.349,0,96.369,0,92.408V80.944h3.351V91.75
	c0,0.667,0.061,1.234,0.181,1.699c0.124,0.464,0.315,0.838,0.576,1.124c0.26,0.285,0.587,0.486,0.978,0.611
	c0.393,0.122,0.848,0.183,1.368,0.183c1.029,0,1.768-0.285,2.226-0.855c0.455-0.569,0.685-1.49,0.685-2.762V80.944z"/>
<polygon style="fill:#FFFFFF;" points="21.039,80.944 31.183,80.944 31.183,83.926 24.386,83.926 24.386,87.91 30.573,87.91 
	30.573,90.892 24.386,90.892 24.386,95.073 31.306,95.073 31.306,98.055 21.039,98.055 "/>
</svg>
