<?xml version="1.0" encoding="utf-8"?>
<!-- Generator: Adobe Illustrator 16.0.0, SVG Export Plug-In . SVG Version: 6.00 Build 0)  -->
<!DOCTYPE svg PUBLIC "-//W3C//DTD SVG 1.1//EN" "http://www.w3.org/Graphics/SVG/1.1/DTD/svg11.dtd">
<svg version="1.1" id="Layer_1" xmlns="http://www.w3.org/2000/svg" xmlns:xlink="http://www.w3.org/1999/xlink" x="0px" y="0px"
	 width="67.365px" height="118.667px" viewBox="0 0 67.365 118.667" style="enable-background:new 0 0 67.365 118.667;"
	 xml:space="preserve">
<g>
	<path style="fill:#63666A;" d="M0,109.069c0.068-0.01,0.146-0.017,0.231-0.024c0.086-0.006,0.176-0.01,0.268-0.014
		s0.18-0.006,0.267-0.006c0.085-0.002,0.163-0.004,0.231-0.004c0.304,0,0.564,0.042,0.778,0.126
		c0.215,0.086,0.389,0.204,0.522,0.357c0.134,0.155,0.232,0.337,0.294,0.547c0.062,0.213,0.094,0.447,0.094,0.701
		c0,0.232-0.03,0.454-0.09,0.669c-0.058,0.217-0.156,0.406-0.29,0.573c-0.14,0.165-0.319,0.3-0.543,0.401
		c-0.224,0.1-0.499,0.151-0.828,0.151c-0.053,0-0.123-0.002-0.208-0.004c-0.087-0.006-0.177-0.01-0.27-0.014
		c-0.093-0.005-0.184-0.009-0.266-0.013C0.104,112.512,0.043,112.506,0,112.5V109.069z M1.051,109.618
		c-0.071,0-0.144,0.002-0.218,0.004c-0.072,0.004-0.127,0.008-0.164,0.016v2.293c0.014,0.004,0.035,0.006,0.067,0.008
		c0.031,0.002,0.063,0.004,0.1,0.004c0.036,0.002,0.069,0.004,0.103,0.006c0.032,0.002,0.057,0.002,0.074,0.002
		c0.188,0,0.346-0.032,0.47-0.099c0.128-0.068,0.227-0.155,0.301-0.268c0.072-0.11,0.124-0.238,0.153-0.385
		c0.029-0.145,0.044-0.294,0.044-0.446c0-0.134-0.013-0.268-0.04-0.404c-0.025-0.135-0.073-0.257-0.144-0.363
		c-0.07-0.107-0.165-0.197-0.287-0.266C1.39,109.652,1.236,109.618,1.051,109.618"/>
	<polygon style="fill:#63666A;" points="5.121,109.069 7.149,109.069 7.149,109.667 5.791,109.667 5.791,110.463 7.027,110.463 
		7.027,111.061 5.791,111.061 5.791,111.896 7.175,111.896 7.175,112.494 5.121,112.494 	"/>
	<path style="fill:#63666A;" d="M11.109,111.574c0-0.103-0.04-0.188-0.115-0.255c-0.077-0.065-0.174-0.124-0.29-0.177
		c-0.115-0.055-0.24-0.11-0.376-0.167c-0.136-0.059-0.26-0.126-0.378-0.211c-0.114-0.083-0.212-0.187-0.288-0.312
		c-0.075-0.122-0.115-0.279-0.115-0.472c0-0.166,0.028-0.312,0.086-0.435c0.053-0.123,0.133-0.225,0.234-0.306
		c0.104-0.08,0.225-0.143,0.365-0.182c0.14-0.038,0.298-0.059,0.47-0.059c0.201,0,0.386,0.019,0.562,0.052
		c0.177,0.034,0.321,0.084,0.435,0.148l-0.211,0.563c-0.07-0.045-0.176-0.088-0.32-0.124c-0.145-0.037-0.301-0.057-0.466-0.057
		c-0.157,0-0.276,0.03-0.358,0.093c-0.083,0.062-0.126,0.146-0.126,0.249c0,0.1,0.039,0.182,0.114,0.246
		c0.078,0.063,0.174,0.125,0.29,0.181c0.115,0.055,0.239,0.11,0.376,0.172c0.135,0.058,0.262,0.128,0.377,0.211
		c0.115,0.085,0.212,0.186,0.289,0.309c0.076,0.122,0.114,0.273,0.114,0.457s-0.03,0.34-0.091,0.473
		c-0.06,0.133-0.145,0.242-0.254,0.329c-0.108,0.09-0.24,0.153-0.396,0.195c-0.155,0.042-0.325,0.065-0.511,0.065
		c-0.244,0-0.46-0.025-0.646-0.069c-0.188-0.046-0.323-0.09-0.412-0.137l0.216-0.572c0.036,0.02,0.083,0.041,0.14,0.063
		s0.122,0.044,0.192,0.063c0.073,0.019,0.147,0.036,0.229,0.049c0.079,0.013,0.163,0.019,0.247,0.019
		c0.199,0,0.352-0.033,0.457-0.099C11.055,111.814,11.109,111.711,11.109,111.574"/>
	<rect x="14.248" y="109.071" style="fill:#63666A;" width="0.671" height="3.423"/>
	<path style="fill:#63666A;" d="M18.739,110.709h1.277v1.526c-0.138,0.114-0.302,0.196-0.491,0.249
		c-0.191,0.052-0.381,0.077-0.567,0.077c-0.218,0-0.42-0.032-0.608-0.104c-0.188-0.067-0.35-0.175-0.486-0.319
		c-0.137-0.146-0.244-0.33-0.323-0.555c-0.077-0.225-0.117-0.492-0.117-0.804c0-0.321,0.047-0.596,0.142-0.822
		c0.091-0.227,0.214-0.411,0.365-0.554c0.152-0.14,0.322-0.243,0.51-0.308c0.19-0.063,0.383-0.096,0.578-0.096
		c0.196,0,0.367,0.017,0.516,0.044c0.148,0.03,0.268,0.062,0.355,0.096l-0.137,0.56c-0.082-0.033-0.174-0.056-0.274-0.076
		c-0.103-0.017-0.23-0.024-0.387-0.024c-0.14,0-0.269,0.021-0.387,0.062c-0.117,0.042-0.219,0.112-0.306,0.208
		c-0.086,0.096-0.152,0.22-0.199,0.369c-0.049,0.15-0.072,0.333-0.072,0.547c0,0.207,0.021,0.382,0.069,0.531
		c0.045,0.148,0.109,0.271,0.19,0.369c0.081,0.095,0.177,0.165,0.287,0.212c0.108,0.044,0.226,0.068,0.35,0.068
		c0.084,0,0.168-0.013,0.249-0.032c0.083-0.022,0.149-0.052,0.205-0.096v-0.646l-0.738-0.079V110.709z"/>
	<polygon style="fill:#63666A;" points="23.318,110.709 23.047,110.17 23.023,110.17 23.103,110.709 23.103,112.494 22.466,112.494 
		22.466,109.045 22.955,109.045 24.251,110.87 24.511,111.395 24.534,111.395 24.456,110.87 24.456,109.069 25.092,109.069 
		25.092,112.52 24.603,112.52 	"/>
	<polygon style="fill:#63666A;" points="2.655,116.587 2.729,115.908 2.701,115.908 2.488,116.454 1.759,117.731 1.545,117.731 
		0.777,116.45 0.563,115.908 0.537,115.908 0.635,116.583 0.635,118.362 0,118.362 0,114.94 0.611,114.94 1.525,116.504 
		1.688,116.896 1.707,116.896 1.854,116.496 2.719,114.94 3.327,114.94 3.327,118.362 2.655,118.362 	"/>
	<path style="fill:#63666A;" d="M7.557,117.605H6.504l-0.259,0.757H5.576l1.232-3.447h0.494l1.232,3.447H7.831L7.557,117.605z
		 M6.678,117.068H7.41l-0.255-0.766l-0.104-0.537H7.027l-0.102,0.543L6.678,117.068z"/>
	<polygon style="fill:#63666A;" points="11.636,116.577 11.367,116.04 11.343,116.04 11.42,116.577 11.42,118.363 10.785,118.363 
		10.785,114.915 11.274,114.915 12.572,116.739 12.83,117.263 12.854,117.263 12.775,116.739 12.775,114.938 13.413,114.938 
		13.413,118.388 12.923,118.388 	"/>
	<path style="fill:#63666A;" d="M17.812,114.94h0.637v2.211c0,0.221-0.029,0.413-0.088,0.572c-0.059,0.16-0.141,0.292-0.244,0.396
		c-0.105,0.104-0.231,0.182-0.383,0.229c-0.149,0.049-0.312,0.074-0.493,0.074c-0.868,0-1.301-0.397-1.301-1.188v-2.294h0.669v2.161
		c0,0.135,0.014,0.247,0.037,0.341c0.023,0.092,0.062,0.167,0.115,0.224c0.051,0.058,0.116,0.1,0.194,0.123
		c0.08,0.024,0.171,0.036,0.275,0.036c0.204,0,0.354-0.056,0.445-0.171c0.091-0.115,0.136-0.298,0.136-0.553V114.94z"/>
	<polygon style="fill:#63666A;" points="20.979,114.94 23.008,114.94 23.008,115.536 21.647,115.536 21.647,116.384 22.901,116.384 
		22.901,116.978 21.647,116.978 21.647,118.362 20.979,118.362 	"/>
	<path style="fill:#63666A;" d="M27.107,117.605h-1.053l-0.26,0.757h-0.67l1.234-3.447h0.493l1.232,3.447H27.38L27.107,117.605z
		 M26.226,117.068h0.735l-0.255-0.766l-0.102-0.537h-0.026l-0.104,0.543L26.226,117.068z"/>
	<path style="fill:#63666A;" d="M32.502,118.224c-0.104,0.073-0.236,0.127-0.398,0.16c-0.162,0.031-0.326,0.049-0.496,0.049
		c-0.206,0-0.402-0.031-0.585-0.097c-0.185-0.063-0.348-0.165-0.487-0.307c-0.139-0.142-0.25-0.327-0.334-0.554
		c-0.084-0.226-0.124-0.502-0.124-0.824c0-0.335,0.046-0.617,0.138-0.843c0.094-0.228,0.214-0.409,0.362-0.549
		c0.149-0.138,0.313-0.236,0.496-0.298c0.184-0.062,0.367-0.091,0.548-0.091c0.196,0,0.362,0.013,0.497,0.038
		c0.135,0.027,0.247,0.059,0.335,0.094l-0.132,0.568c-0.076-0.037-0.164-0.062-0.267-0.078c-0.104-0.018-0.228-0.025-0.374-0.025
		c-0.271,0-0.489,0.099-0.652,0.29c-0.166,0.192-0.248,0.491-0.248,0.896c0,0.178,0.019,0.338,0.059,0.484
		c0.039,0.145,0.1,0.269,0.18,0.372c0.078,0.104,0.178,0.183,0.298,0.24c0.118,0.057,0.257,0.084,0.413,0.084
		c0.146,0,0.271-0.015,0.372-0.041c0.102-0.029,0.189-0.067,0.264-0.114L32.502,118.224z"/>
	<polygon style="fill:#63666A;" points="37.09,115.536 36.091,115.536 36.091,118.362 35.422,118.362 35.422,115.536 
		34.419,115.536 34.419,114.94 37.09,114.94 	"/>
	<path style="fill:#63666A;" d="M41.252,114.94h0.636v2.211c0,0.221-0.029,0.413-0.088,0.572c-0.06,0.16-0.141,0.292-0.243,0.396
		c-0.105,0.104-0.232,0.182-0.382,0.229c-0.15,0.049-0.314,0.074-0.495,0.074c-0.868,0-1.302-0.397-1.302-1.188v-2.294h0.672v2.161
		c0,0.135,0.012,0.247,0.035,0.341c0.024,0.092,0.063,0.167,0.116,0.224c0.05,0.058,0.117,0.1,0.194,0.123
		c0.079,0.024,0.17,0.036,0.274,0.036c0.205,0,0.354-0.056,0.444-0.171c0.091-0.115,0.138-0.298,0.138-0.553V114.94z"/>
	<path style="fill:#63666A;" d="M44.417,114.974c0.075-0.012,0.155-0.023,0.242-0.037c0.087-0.012,0.173-0.02,0.26-0.027
		c0.086-0.007,0.169-0.011,0.252-0.015c0.081-0.004,0.156-0.005,0.226-0.005c0.159,0,0.316,0.016,0.472,0.045
		s0.292,0.081,0.415,0.151c0.123,0.073,0.22,0.17,0.294,0.297c0.072,0.124,0.109,0.282,0.109,0.472c0,0.279-0.065,0.509-0.196,0.685
		c-0.13,0.177-0.303,0.297-0.523,0.368l0.241,0.149l0.782,1.307h-0.773l-0.778-1.34l-0.353-0.064v1.404h-0.669V114.974z
		 M45.445,115.487c-0.069,0-0.138,0.002-0.203,0.006c-0.068,0.002-0.12,0.01-0.156,0.018v0.993h0.285
		c0.187,0,0.334-0.042,0.445-0.127c0.109-0.084,0.167-0.225,0.167-0.421c0-0.146-0.046-0.26-0.139-0.345
		C45.754,115.53,45.62,115.487,45.445,115.487"/>
	<polygon style="fill:#63666A;" points="49.318,114.94 51.347,114.94 51.347,115.536 49.988,115.536 49.988,116.332 51.224,116.332 
		51.224,116.931 49.988,116.931 49.988,117.768 51.371,117.768 51.371,118.362 49.318,118.362 	"/>
	<polygon style="fill:#63666A;" points="7.61,4.843 7.819,2.914 7.736,2.914 7.139,4.468 5.071,8.092 4.461,8.092 2.28,4.454 
		1.67,2.914 1.601,2.914 1.878,4.829 1.878,9.882 0.074,9.882 0.074,0.166 1.809,0.166 4.405,4.607 4.862,5.717 4.919,5.717 
		5.335,4.579 7.791,0.166 9.513,0.166 9.513,9.882 7.61,9.882 	"/>
	<path style="fill:#63666A;" d="M27.328,7.84h-2.984l-0.736,2.152h-1.901l3.499-9.787h1.401l3.498,9.787h-1.999L27.328,7.84z
		 M24.829,6.312h2.082L26.19,4.147l-0.291-1.526h-0.07l-0.291,1.54L24.829,6.312z"/>
	<polygon style="fill:#63666A;" points="45.618,4.94 42.911,0.166 45.203,0.166 46.701,2.969 47.034,3.955 47.354,2.969 
		48.922,0.166 50.989,0.166 48.188,4.843 51.131,9.882 48.867,9.882 47.16,6.883 46.785,5.856 46.424,6.883 44.701,9.882 
		42.633,9.882 	"/>
	<polygon style="fill:#63666A;" points="0.074,22.16 10.091,22.16 10.091,25.105 3.381,25.105 3.381,29.281 9.561,29.281 
		9.561,32.226 3.381,32.226 3.381,39.058 0.074,39.058 	"/>
	<path style="fill:#63666A;" d="M28.381,35.316h-5.191l-1.28,3.742h-3.307l6.083-17.02h2.44l6.081,17.02h-3.476L28.381,35.316z
		 M24.034,32.661h3.621l-1.254-3.766l-0.507-2.655h-0.121l-0.508,2.679L24.034,32.661z"/>
	<path style="fill:#63666A;" d="M52.811,26.094c0,0.419-0.053,0.836-0.156,1.255c-0.105,0.418-0.278,0.8-0.52,1.147
		c-0.24,0.345-0.554,0.652-0.94,0.916c-0.388,0.267-0.854,0.465-1.4,0.593v0.144c0.483,0.081,0.942,0.219,1.375,0.412
		c0.436,0.193,0.814,0.459,1.135,0.796c0.323,0.338,0.575,0.748,0.763,1.231c0.183,0.482,0.277,1.055,0.277,1.714
		c0,0.869-0.187,1.621-0.558,2.257c-0.368,0.637-0.865,1.155-1.483,1.557c-0.621,0.402-1.323,0.701-2.112,0.894
		c-0.789,0.192-1.603,0.288-2.439,0.288h-1.05c-0.427,0-0.886-0.011-1.376-0.034c-0.489-0.024-0.989-0.062-1.496-0.109
		c-0.508-0.05-0.97-0.122-1.388-0.219V22.279c0.305-0.048,0.656-0.096,1.049-0.146c0.394-0.048,0.818-0.087,1.269-0.119
		c0.45-0.033,0.912-0.057,1.388-0.073c0.474-0.015,0.946-0.023,1.412-0.023c0.789,0,1.558,0.061,2.307,0.181
		c0.747,0.12,1.414,0.335,2.003,0.639c0.588,0.307,1.057,0.733,1.412,1.281C52.634,24.565,52.811,25.257,52.811,26.094
		 M45.689,29.256c0.227,0,0.487-0.008,0.783-0.024c0.298-0.017,0.544-0.041,0.737-0.071c0.612-0.192,1.139-0.477,1.581-0.859
		c0.443-0.382,0.665-0.884,0.665-1.505c0-0.415-0.081-0.757-0.242-1.027c-0.159-0.271-0.373-0.486-0.64-0.645
		c-0.266-0.159-0.567-0.271-0.904-0.335c-0.34-0.062-0.693-0.094-1.062-0.094c-0.42,0-0.806,0.009-1.16,0.023
		c-0.354,0.016-0.626,0.04-0.819,0.071v4.468H45.689z M46.776,36.521c0.401,0,0.792-0.045,1.171-0.143
		c0.378-0.096,0.712-0.243,1.003-0.441c0.29-0.2,0.522-0.45,0.698-0.752c0.176-0.304,0.268-0.664,0.268-1.077
		c0-0.525-0.106-0.939-0.315-1.243c-0.209-0.303-0.483-0.538-0.82-0.705c-0.338-0.167-0.718-0.275-1.136-0.324
		c-0.419-0.045-0.838-0.071-1.256-0.071h-1.761v4.613c0.081,0.033,0.209,0.057,0.386,0.072c0.177,0.016,0.366,0.03,0.568,0.037
		c0.198,0.007,0.409,0.017,0.628,0.024C46.427,36.518,46.616,36.521,46.776,36.521"/>
	<path style="fill:#63666A;" d="M0.074,51.298c0.369-0.064,0.767-0.125,1.195-0.182c0.425-0.057,0.851-0.101,1.279-0.132
		c0.426-0.034,0.84-0.058,1.243-0.073c0.403-0.015,0.771-0.024,1.109-0.024c0.788,0,1.566,0.074,2.329,0.216
		c0.764,0.146,1.449,0.395,2.053,0.75c0.604,0.354,1.085,0.841,1.449,1.459c0.361,0.62,0.542,1.398,0.542,2.331
		c0,1.384-0.322,2.511-0.965,3.379c-0.644,0.869-1.505,1.474-2.583,1.812l1.183,0.747l3.862,6.445H8.957l-3.838-6.613l-1.738-0.314
		v6.928H0.074V51.298z M5.143,53.831c-0.338,0-0.672,0.009-1.002,0.025c-0.329,0.016-0.584,0.049-0.76,0.097v4.901h1.4
		c0.916,0,1.648-0.209,2.197-0.628c0.548-0.418,0.819-1.111,0.819-2.077c0-0.724-0.226-1.291-0.675-1.702
		C6.674,54.037,6.011,53.831,5.143,53.831"/>
	<rect x="23.998" y="51.129" style="fill:#63666A;" width="3.308" height="16.897"/>
	<path style="fill:#63666A;" d="M39.026,59.577c0-2.815,0.619-4.985,1.859-6.506c1.239-1.52,3.008-2.282,5.312-2.282
		c1.206,0,2.26,0.209,3.162,0.628c0.901,0.419,1.648,1.016,2.245,1.787c0.595,0.773,1.037,1.699,1.327,2.777
		c0.289,1.08,0.434,2.278,0.434,3.597c0,2.816-0.623,4.984-1.871,6.507c-1.247,1.521-3.013,2.279-5.297,2.279
		c-1.226,0-2.286-0.207-3.189-0.626c-0.9-0.419-1.644-1.015-2.231-1.787c-0.587-0.771-1.027-1.697-1.316-2.776
		C39.172,62.096,39.026,60.896,39.026,59.577 M42.503,59.577c0,0.854,0.07,1.637,0.216,2.353c0.145,0.717,0.366,1.334,0.665,1.849
		c0.298,0.516,0.679,0.918,1.146,1.206c0.466,0.29,1.022,0.435,1.667,0.435c1.173,0,2.083-0.458,2.727-1.374
		c0.645-0.92,0.967-2.408,0.967-4.468c0-0.822-0.07-1.585-0.207-2.293s-0.35-1.328-0.639-1.859c-0.291-0.53-0.668-0.945-1.135-1.243
		c-0.466-0.297-1.037-0.447-1.713-0.447c-1.175,0-2.086,0.471-2.729,1.412C42.823,56.088,42.503,57.566,42.503,59.577
		 M55.057,72.899c-0.775,0.212-1.554,0.319-2.344,0.319c-0.82,0-1.615-0.086-2.389-0.256c-0.772-0.166-1.522-0.35-2.245-0.543
		c-0.724-0.192-1.426-0.373-2.102-0.543s-1.311-0.252-1.905-0.252c-0.389,0-0.759,0.046-1.11,0.144v-2.851
		c0.45-0.095,0.916-0.142,1.398-0.142c0.677,0,1.349,0.077,2.016,0.238c0.669,0.155,1.348,0.328,2.041,0.51
		c0.691,0.181,1.4,0.353,2.124,0.509c0.726,0.16,1.488,0.24,2.295,0.24c0.353,0,0.715-0.021,1.086-0.061
		c0.369-0.041,0.746-0.109,1.135-0.206V72.899z"/>
	<path style="fill:#63666A;" d="M9.247,80.098h3.14v10.91c0,1.097-0.146,2.036-0.435,2.826c-0.291,0.786-0.693,1.438-1.208,1.956
		c-0.516,0.514-1.142,0.892-1.884,1.134c-0.741,0.24-1.553,0.361-2.438,0.361C2.142,97.285,0,95.329,0,91.419V80.098h3.31v10.67
		c0,0.659,0.061,1.219,0.179,1.679c0.122,0.458,0.312,0.827,0.568,1.109s0.58,0.48,0.966,0.604c0.388,0.12,0.837,0.18,1.35,0.18
		c1.017,0,1.747-0.282,2.199-0.844c0.449-0.562,0.676-1.473,0.676-2.729V80.098z"/>
	<polygon style="fill:#63666A;" points="20.775,80.098 30.793,80.098 30.793,83.043 24.082,83.043 24.082,86.976 30.191,86.976 
		30.191,89.921 24.082,89.921 24.082,94.05 30.914,94.05 30.914,96.994 20.775,96.994 	"/>
</g>
</svg>
