<svg xmlns="http://www.w3.org/2000/svg" xmlns:xlink="http://www.w3.org/1999/xlink" preserveAspectRatio="xMidYMid" width="61.969" height="61" viewBox="0 0 61.969 61">
  <path d="M58.076,39.301 L61.043,36.347 C62.277,35.118 62.277,33.238 61.043,32.009 L29.815,0.922 C28.580,-0.307 26.692,-0.307 25.457,0.922 L22.552,3.814 L21.826,3.091 C21.390,2.657 20.809,2.657 20.374,3.091 C19.938,3.525 19.938,4.103 20.373,4.537 L21.100,5.260 L18.195,8.152 C16.960,9.381 16.960,11.260 18.195,12.489 L49.423,43.576 C50.658,44.805 52.546,44.805 53.780,43.576 L56.593,40.777 C57.517,42.343 57.306,44.404 55.959,45.745 L53.054,48.637 C51.674,50.010 49.423,50.227 47.825,49.215 C47.099,48.781 37.077,40.395 30.541,34.901 C28.943,33.310 26.328,33.310 24.731,34.901 L20.373,39.238 L16.016,34.901 C15.798,34.684 15.435,34.611 15.144,34.611 C14.854,34.611 14.563,34.756 14.418,35.045 L11.513,39.383 C11.223,39.817 11.295,40.323 11.658,40.684 L12.385,41.407 L1.491,52.252 C-0.542,54.276 -0.542,57.456 1.491,59.481 C3.524,61.506 6.720,61.506 8.753,59.481 L19.647,48.637 L20.373,49.360 C20.736,49.721 21.245,49.794 21.680,49.504 L26.038,46.612 C26.328,46.468 26.474,46.179 26.474,45.889 C26.546,45.528 26.401,45.239 26.183,45.022 L21.826,40.684 L26.183,36.346 C26.982,35.551 28.289,35.551 29.161,36.419 C31.920,38.732 45.864,50.444 46.663,50.950 C49.132,52.541 52.400,52.179 54.506,50.083 L57.411,47.191 C59.561,45.051 59.781,41.692 58.076,39.301 ZM50.875,42.130 L19.647,11.044 C19.211,10.610 19.211,10.031 19.647,9.598 L20.373,8.875 L27.636,16.104 C28.072,16.538 28.652,16.538 29.088,16.104 C29.524,15.671 29.524,15.092 29.088,14.658 L21.826,7.429 L24.731,4.537 L39.256,18.996 C39.691,19.430 40.272,19.430 40.708,18.996 C41.144,18.562 41.144,17.984 40.708,17.550 L26.183,3.091 L26.910,2.368 C27.273,2.006 27.999,2.007 28.362,2.368 L59.590,33.455 C60.026,33.888 60.026,34.467 59.590,34.901 L58.864,35.624 L53.780,30.563 C53.345,30.130 52.764,30.130 52.328,30.563 C51.892,30.997 51.892,31.575 52.328,32.009 L57.412,37.070 L54.507,39.961 L42.161,27.671 C41.725,27.237 41.144,27.237 40.708,27.671 C40.272,28.105 40.272,28.683 40.708,29.117 L53.054,41.407 L52.328,42.130 C51.892,42.564 51.311,42.564 50.875,42.130 ZM21.245,47.336 L20.373,46.468 C19.938,46.034 19.357,46.034 18.921,46.468 L7.301,58.035 C6.067,59.264 4.179,59.264 2.944,58.035 C1.709,56.806 1.709,54.927 2.944,53.698 L4.396,55.143 C4.832,55.577 5.413,55.577 5.849,55.143 C6.284,54.710 6.284,54.131 5.849,53.698 L4.396,52.252 L5.849,50.806 L7.301,52.252 C7.737,52.685 8.318,52.685 8.754,52.252 C9.189,51.818 9.189,51.240 8.754,50.806 L7.301,49.360 L14.564,42.130 C14.999,41.696 14.999,41.118 14.564,40.684 L13.692,39.817 L15.435,37.214 L23.859,45.600 L21.245,47.336 Z" style="fill: #0ea99f;fill-rule: evenodd;"/>
</svg>
