<?xml version="1.0" encoding="utf-8"?>
<!-- Generator: Adobe Illustrator 19.0.0, SVG Export Plug-In . SVG Version: 6.00 Build 0)  -->
<svg version="1.1" id="Layer_1" xmlns="http://www.w3.org/2000/svg" xmlns:xlink="http://www.w3.org/1999/xlink" x="0px" y="0px"
	 width="17.2px" height="13.6px" viewBox="-296 390.4 17.2 13.6" style="enable-background:new -296 390.4 17.2 13.6;"
	 xml:space="preserve">
<path style="fill:#FFFFFF;" d="M-278.8,392c-0.6,0.3-1.3,0.5-2,0.5c0.7-0.4,1.3-1.1,1.6-1.9c-0.7,0.4-1.4,0.7-2.2,0.8
	c-0.6-0.7-1.6-1.1-2.6-1.1c-1.9,0-3.5,1.5-3.5,3.4c0,0.3,0,0.5,0.1,0.8c-2.9-0.1-5.5-1.5-7.3-3.6c-0.3,0.5-0.5,1.1-0.5,1.7
	c0,1.2,0.6,2.3,1.6,2.9c-0.6,0-1.1-0.2-1.6-0.4v0c0,1.7,1.2,3.1,2.8,3.4c-0.3,0.1-0.6,0.1-0.9,0.1c-0.2,0-0.4,0-0.7-0.1
	c0.5,1.4,1.7,2.4,3.3,2.4c-1.2,0.9-2.7,1.5-4.4,1.5c-0.3,0-0.6,0-0.8,0c1.6,1,3.4,1.5,5.4,1.5c6.5,0,10-5.3,10-9.8l0-0.4
	C-279.9,393.3-279.3,392.7-278.8,392L-278.8,392z"/>
</svg>
