<?xml version="1.0" encoding="utf-8"?>
<!-- Generator: Adobe Illustrator 19.0.0, SVG Export Plug-In . SVG Version: 6.00 Build 0)  -->
<svg version="1.1" id="Layer_1" xmlns="http://www.w3.org/2000/svg" xmlns:xlink="http://www.w3.org/1999/xlink" x="0px" y="0px"
	 width="17.2px" height="9.4px" viewBox="-296 392.6 17.2 9.4" style="enable-background:new -296 392.6 17.2 9.4;"
	 xml:space="preserve">
<path style="fill:#FFFFFF;" d="M-278.9,401.1c0,0,0-0.1-0.1-0.1c-0.3-0.5-0.9-1.1-1.7-1.9l0,0l0,0l0,0h0c-0.4-0.3-0.6-0.6-0.7-0.7
	c-0.2-0.2-0.2-0.5-0.1-0.7c0.1-0.2,0.3-0.6,0.8-1.1c0.2-0.3,0.4-0.5,0.6-0.7c1-1.3,1.5-2.2,1.3-2.5l-0.1-0.1c0,0-0.1-0.1-0.3-0.1
	c-0.1,0-0.3-0.1-0.6,0l-2.6,0c0,0-0.1,0-0.2,0c-0.1,0-0.1,0-0.1,0l0,0l0,0c0,0-0.1,0-0.1,0.1c0,0-0.1,0.1-0.1,0.1
	c-0.3,0.7-0.6,1.3-1,1.9c-0.2,0.4-0.4,0.7-0.6,0.9c-0.2,0.3-0.3,0.5-0.5,0.6c-0.1,0.1-0.2,0.2-0.3,0.3c-0.1,0.1-0.2,0.1-0.2,0.1
	c-0.1,0-0.1,0-0.2,0c-0.1-0.1-0.2-0.1-0.2-0.2c-0.1-0.1-0.1-0.2-0.1-0.3c0-0.1,0-0.2,0-0.3c0-0.1,0-0.2,0-0.4c0-0.2,0-0.3,0-0.4
	c0-0.2,0-0.5,0-0.7c0-0.3,0-0.5,0-0.6c0-0.1,0-0.3,0-0.5c0-0.2,0-0.3,0-0.4c0-0.1-0.1-0.2-0.1-0.3c0-0.1-0.1-0.2-0.2-0.2
	c-0.1,0-0.2-0.1-0.3-0.1c-0.3-0.1-0.7-0.1-1.2-0.1c-1.1,0-1.8,0.1-2.1,0.2c-0.1,0.1-0.2,0.1-0.3,0.3c-0.1,0.1-0.1,0.2,0,0.2
	c0.4,0.1,0.6,0.2,0.8,0.4l0.1,0.1c0,0.1,0.1,0.2,0.1,0.4c0,0.2,0.1,0.4,0.1,0.6c0,0.4,0,0.8,0,1.1c0,0.3-0.1,0.5-0.1,0.7
	c0,0.2-0.1,0.3-0.1,0.4c-0.1,0.1-0.1,0.2-0.1,0.2c0,0,0,0,0,0c-0.1,0-0.2,0-0.2,0c-0.1,0-0.2,0-0.3-0.1c-0.1-0.1-0.2-0.2-0.4-0.3
	c-0.1-0.1-0.3-0.3-0.4-0.6c-0.2-0.3-0.3-0.5-0.5-0.9l-0.1-0.2c-0.1-0.2-0.2-0.4-0.4-0.7c-0.2-0.3-0.3-0.6-0.4-0.9
	c0-0.1-0.1-0.2-0.2-0.3l0,0c0,0-0.1,0-0.1-0.1c-0.1,0-0.1,0-0.2-0.1l-2.5,0c-0.3,0-0.4,0.1-0.5,0.2l0,0.1c0,0,0,0.1,0,0.1
	c0,0.1,0,0.1,0.1,0.2c0.4,0.8,0.7,1.6,1.2,2.3c0.4,0.7,0.8,1.4,1.1,1.8c0.3,0.5,0.6,0.9,0.9,1.3c0.3,0.4,0.5,0.7,0.6,0.8
	c0.1,0.1,0.2,0.2,0.2,0.3l0.2,0.2c0.1,0.1,0.4,0.3,0.6,0.5c0.3,0.2,0.6,0.4,0.9,0.6c0.3,0.2,0.7,0.3,1.2,0.5
	c0.4,0.1,0.9,0.2,1.3,0.1h1c0.2,0,0.4-0.1,0.5-0.2l0,0c0,0,0-0.1,0.1-0.2c0-0.1,0-0.1,0-0.2c0-0.2,0-0.5,0.1-0.7
	c0-0.2,0.1-0.3,0.2-0.4c0.1-0.1,0.1-0.2,0.2-0.3c0.1-0.1,0.1-0.1,0.2-0.1s0.1,0,0.1,0c0.1,0,0.3,0,0.5,0.1c0.2,0.1,0.4,0.3,0.5,0.5
	c0.2,0.2,0.4,0.4,0.6,0.7c0.2,0.2,0.4,0.4,0.6,0.5l0.2,0.1c0.1,0.1,0.3,0.1,0.5,0.2s0.4,0.1,0.5,0l2.3,0c0.2,0,0.4,0,0.5-0.1
	c0.1-0.1,0.2-0.1,0.2-0.2c0-0.1,0-0.2,0-0.3C-278.9,401.2-278.9,401.1-278.9,401.1L-278.9,401.1z"/>
</svg>
