<?xml version="1.0" encoding="utf-8"?>
<!-- Generator: Adobe Illustrator 19.0.0, SVG Export Plug-In . SVG Version: 6.00 Build 0)  -->
<svg version="1.1" id="Layer_1" xmlns="http://www.w3.org/2000/svg" xmlns:xlink="http://www.w3.org/1999/xlink" x="0px" y="0px"
	 width="15.5px" height="18.8px" viewBox="-297 387.2 15.5 18.8" style="enable-background:new -297 387.2 15.5 18.8;"
	 xml:space="preserve">
<path style="fill:#FFFFFF;" d="M-283.9,401h-1l0-0.6c0-0.3,0.2-0.5,0.5-0.5h0.1c0.3,0,0.5,0.2,0.5,0.5L-283.9,401z M-287.7,399.7
	c-0.3,0-0.5,0.2-0.5,0.4v2.9c0,0.2,0.2,0.4,0.5,0.4c0.3,0,0.5-0.2,0.5-0.4v-2.9C-287.2,399.9-287.5,399.7-287.7,399.7L-287.7,399.7z
	 M-281.5,398.1v5.5c0,1.3-1.1,2.4-2.5,2.4h-10.4c-1.4,0-2.5-1.1-2.5-2.4v-5.5c0-1.3,1.1-2.4,2.5-2.4h10.4
	C-282.6,395.6-281.5,396.7-281.5,398.1L-281.5,398.1z M-293.8,404.2v-5.8h1.3v-0.9l-3.4,0v0.9l1.1,0v5.8H-293.8z M-289.9,399.2h-1.1
	v3.1c0,0.4,0,0.7,0,0.8c-0.1,0.2-0.5,0.5-0.6,0c0-0.1,0-0.3,0-0.8l0-3.1h-1.1l0,3.1c0,0.5,0,0.8,0,1c0,0.3,0,0.6,0.3,0.8
	c0.5,0.4,1.4-0.1,1.6-0.6l0,0.6l0.9,0L-289.9,399.2L-289.9,399.2z M-286.4,402.8l0-2.6c0-1-0.7-1.6-1.7-0.8l0-1.9l-1.1,0l0,6.6
	l0.9,0l0.1-0.4C-287.2,404.8-286.4,404-286.4,402.8L-286.4,402.8z M-283.1,402.4l-0.8,0c0,0,0,0.1,0,0.1v0.5c0,0.2-0.2,0.4-0.4,0.4
	h-0.2c-0.2,0-0.4-0.2-0.4-0.4v-1.2h1.8v-0.7c0-0.5,0-1-0.1-1.3c-0.1-0.9-1.4-1.1-2.1-0.6c-0.2,0.1-0.4,0.3-0.5,0.6
	c-0.1,0.3-0.1,0.6-0.1,1.1v1.5C-285.8,405-282.7,404.7-283.1,402.4L-283.1,402.4z M-287.2,394.1c0.1,0.1,0.1,0.2,0.3,0.3
	c0.1,0.1,0.3,0.1,0.4,0.1c0.2,0,0.3,0,0.4-0.1c0.1-0.1,0.2-0.2,0.3-0.4l0,0.4h1.2v-5.2h-0.9v4c0,0.2-0.2,0.4-0.4,0.4
	s-0.4-0.2-0.4-0.4v-4h-1v3.5c0,0.4,0,0.7,0,0.9C-287.3,393.8-287.3,393.9-287.2,394.1L-287.2,394.1z M-290.9,391.1
	c0-0.5,0-0.9,0.1-1.2c0.1-0.3,0.2-0.5,0.4-0.7c0.2-0.2,0.5-0.3,0.8-0.3c0.3,0,0.5,0.1,0.7,0.2c0.2,0.1,0.4,0.2,0.5,0.4
	c0.1,0.2,0.2,0.4,0.2,0.5c0,0.2,0.1,0.5,0.1,0.8v1.3c0,0.5,0,0.8-0.1,1.1c0,0.2-0.1,0.4-0.2,0.6c-0.1,0.2-0.3,0.3-0.5,0.4
	c-0.2,0.1-0.4,0.1-0.7,0.1c-0.3,0-0.5,0-0.7-0.1c-0.2-0.1-0.3-0.2-0.4-0.4c-0.1-0.2-0.2-0.4-0.2-0.6c0-0.2-0.1-0.6-0.1-1V391.1z
	 M-289.9,393.2c0,0.3,0.2,0.5,0.5,0.5c0.3,0,0.5-0.2,0.5-0.5v-2.7c0-0.3-0.2-0.5-0.5-0.5c-0.3,0-0.5,0.2-0.5,0.5V393.2z
	 M-293.2,394.6h1.1l0-4l1.3-3.4h-1.2l-0.7,2.5l-0.7-2.5h-1.2l1.4,3.4L-293.2,394.6z"/>
</svg>
