<svg xmlns="http://www.w3.org/2000/svg" width="67.365" height="118.667" viewBox="0 0 67.365 118.667"><path d="M0 109.272c.067-.01.147-.018.233-.025.086-.006.177-.01.27-.014.09-.004.18-.006.268-.006.087-.002.165-.004.232-.004.304 0 .563.043.78.127.216.086.39.205.523.357.135.154.233.338.295.55.062.214.094.446.094.702 0 .23-.03.454-.088.673-.06.217-.157.406-.295.572-.137.168-.316.303-.542.402-.224.102-.5.152-.832.152-.052 0-.12 0-.21-.005-.085-.006-.175-.01-.268-.014-.093-.005-.183-.01-.27-.013-.083-.006-.147-.012-.19-.02l.003-3.435zm1.056.55c-.072 0-.146.003-.22.005-.07.004-.127.008-.163.018v2.3c.014.005.035.005.066.007l.1.006.104.006h.074c.188 0 .346-.03.473-.1.126-.066.227-.156.3-.268.074-.11.126-.238.154-.387.03-.146.045-.296.045-.448 0-.135-.015-.27-.04-.404-.026-.137-.074-.26-.146-.367-.068-.106-.166-.194-.285-.265-.123-.07-.278-.102-.464-.102M5.14 109.272h2.036v.6H5.812v.8h1.24v.6h-1.24v.836h1.386v.6H5.14M11.147 111.786c0-.104-.037-.19-.115-.256-.077-.066-.174-.125-.29-.178-.115-.057-.24-.11-.378-.168-.135-.06-.262-.127-.377-.21-.116-.085-.213-.19-.29-.313-.076-.122-.115-.28-.115-.474 0-.166.028-.312.084-.436s.135-.225.237-.307c.104-.082.225-.145.367-.182.14-.038.297-.06.47-.06.2 0 .388.018.563.05.176.036.322.085.438.15l-.21.565c-.07-.047-.18-.088-.323-.125-.146-.037-.3-.057-.466-.057-.157 0-.277.03-.36.092-.083.062-.125.146-.125.25 0 .102.038.184.115.246.076.067.173.126.29.185.116.055.24.11.376.172.137.06.264.13.38.213s.212.186.29.31c.074.122.115.274.115.458 0 .186-.03.342-.09.475-.063.133-.147.242-.257.332-.11.088-.242.152-.398.193-.154.043-.324.066-.512.066-.246 0-.46-.025-.647-.07s-.324-.09-.413-.137l.217-.574c.035.02.082.04.14.064.058.02.122.043.193.062.073.02.147.034.23.048.08.014.16.02.245.02.2 0 .354-.033.46-.102.106-.06.16-.163.16-.3M14.297 109.274h.675v3.434h-.675zM18.804 110.917h1.28v1.53c-.138.116-.3.198-.492.25-.192.054-.38.08-.567.08-.22 0-.422-.034-.61-.105-.19-.068-.35-.176-.49-.32-.136-.146-.243-.332-.32-.56-.08-.224-.12-.49-.12-.804 0-.324.05-.6.142-.826.094-.227.215-.414.37-.555.15-.143.32-.246.51-.31.19-.063.385-.097.58-.097.195 0 .368.016.518.043.15.03.27.062.356.096l-.137.56c-.082-.032-.174-.056-.276-.075-.1-.018-.23-.023-.387-.023-.142 0-.27.02-.388.06-.12.044-.22.114-.307.21-.088.096-.154.22-.2.37-.05.15-.073.335-.073.55 0 .207.023.383.068.533.047.148.11.27.193.37.08.095.176.165.285.212.11.045.227.068.352.068.084 0 .168-.012.25-.03.082-.024.15-.056.205-.1v-.645l-.738-.08v-.404h-.003zM23.397 110.917l-.27-.54h-.024l.078.54v1.79h-.637v-3.46h.49l1.3 1.832.26.524h.025l-.078-.525v-1.808h.64v3.46h-.492M2.665 116.815l.074-.68h-.03l-.212.55-.73 1.28h-.215l-.773-1.286-.217-.546H.54l.1.678v1.787H0v-3.437h.614l.918 1.568.162.396h.02l.146-.402.87-1.56h.608v3.435h-.673M7.584 117.837H6.526l-.26.762h-.67l1.235-3.462h.497l1.235 3.46h-.706l-.272-.76zm-.885-.54h.736l-.256-.767-.104-.54h-.023l-.104.546-.25.762zM11.68 116.808l-.275-.54h-.023l.078.54v1.79h-.637v-3.46h.49l1.3 1.832.26.523h.024l-.078-.523v-1.81h.638v3.462h-.49M17.874 115.163h.64v2.22c0 .222-.03.413-.09.573s-.14.293-.243.396c-.104.104-.23.182-.383.23-.15.05-.315.073-.496.073-.87 0-1.305-.396-1.305-1.193v-2.3h.673v2.17c0 .132.013.247.036.34.023.095.062.17.115.226.05.06.116.1.194.123s.17.038.275.038c.204 0 .353-.06.444-.172.092-.115.138-.3.138-.555l.002-2.167zM21.05 115.163h2.037v.598h-1.363v.85h1.255v.598h-1.256v1.39h-.673M27.2 117.837h-1.057l-.26.762h-.673l1.237-3.462h.494l1.24 3.46h-.708l-.272-.76zm-.885-.54h.736l-.255-.767-.104-.54h-.023l-.103.546-.25.762zM32.612 118.458c-.104.072-.236.127-.4.16-.16.03-.326.05-.497.05-.206 0-.4-.032-.587-.1-.186-.06-.348-.165-.488-.306-.14-.145-.252-.328-.336-.557s-.125-.502-.125-.828c0-.336.046-.617.14-.846.094-.226.215-.41.363-.55.147-.14.313-.236.498-.3.185-.06.367-.09.55-.09.196 0 .362.013.498.038.137.027.248.06.338.094l-.133.57c-.076-.037-.166-.062-.268-.078-.104-.018-.23-.025-.377-.025-.27 0-.49.097-.654.29-.166.193-.248.494-.248.898 0 .178.02.34.06.486s.1.27.18.373c.08.104.18.184.3.24.118.057.258.086.414.086.146 0 .27-.016.373-.043.102-.03.19-.066.266-.113l.132.55zM37.216 115.76h-1.002v2.84h-.67v-2.84h-1.008v-.597h2.68M41.392 115.163h.64v2.22c0 .222-.03.413-.09.573s-.14.293-.243.396c-.106.104-.233.182-.384.23-.15.05-.315.073-.496.073-.87 0-1.307-.396-1.307-1.193v-2.3h.674v2.17c0 .132.012.247.035.34.024.095.063.17.115.226.053.06.118.1.196.123.08.024.17.038.274.038.205 0 .354-.06.446-.172.09-.115.138-.3.138-.555v-2.167h.002zM44.567 115.196l.244-.037c.087-.013.173-.02.26-.028.088-.006.172-.01.253-.014.082-.004.158-.006.228-.006.16 0 .318.016.475.045s.293.08.416.152c.124.07.223.17.296.296.074.125.11.283.11.473 0 .28-.065.51-.196.688-.13.176-.306.3-.524.367l.24.15.786 1.312h-.776l-.78-1.346-.354-.06v1.407h-.672v-3.402h-.003zm1.034.516c-.07 0-.138.002-.204.006-.067.004-.12.01-.154.02v.996h.285c.187 0 .334-.043.447-.127.11-.086.166-.227.166-.422 0-.148-.046-.264-.14-.348-.09-.082-.226-.125-.4-.125M49.485 115.163h2.037v.598h-1.364v.802h1.24v.597h-1.24v.84h1.388v.6h-2.06M7.638 4.692l.21-1.935h-.085l-.6 1.56L5.09 7.953h-.61l-2.19-3.65-.61-1.547h-.072l.28 1.922v5.07H.074V0h1.74L4.42 4.458l.46 1.112h.057l.417-1.14L7.817 0h1.728v9.75H7.638M27.422 7.7H24.43l-.74 2.16h-1.91L25.29.04H26.7l3.51 9.82H28.2l-.778-2.16zm-2.508-1.533h2.09l-.724-2.172-.293-1.532h-.07l-.292 1.546-.71 2.157zM45.772 4.79L43.058 0h2.298l1.504 2.812.334.99.323-.99L49.087 0h2.076L48.35 4.693l2.954 5.057h-2.27l-1.715-3.01-.376-1.03-.363 1.03-1.726 3.01h-2.076M.074 22.068h10.053v2.955H3.394v4.19h6.2v2.955h-6.2v6.855H.074M28.478 35.27H23.27l-1.284 3.755h-3.318l6.104-17.077h2.446l6.104 17.077h-3.486l-1.358-3.755zm-4.362-2.666h3.634l-1.26-3.78-.51-2.663h-.12l-.508 2.69-1.236 3.754zM52.99 26.017c0 .42-.054.84-.157 1.26-.105.42-.277.802-.52 1.15-.24.346-.557.654-.942.92-.39.267-.856.466-1.405.594v.145c.484.08.945.22 1.38.413.438.193.816.46 1.14.8.324.338.578.75.765 1.234.185.484.278 1.06.278 1.72 0 .872-.188 1.627-.56 2.265-.37.64-.868 1.16-1.49 1.562-.62.403-1.325.703-2.118.896-.79.194-1.606.29-2.446.29H45.86c-.428 0-.89-.01-1.38-.035-.49-.023-.993-.06-1.503-.108-.51-.05-.973-.122-1.393-.22V22.19c.307-.048.658-.096 1.055-.146.394-.048.818-.088 1.27-.12.452-.033.915-.057 1.393-.073.476-.016.95-.025 1.417-.025.792 0 1.562.06 2.314.182.75.12 1.42.336 2.01.64.59.31 1.06.737 1.417 1.286.353.55.53 1.244.53 2.084m-7.145 3.172c.23 0 .49-.01.787-.025.3-.017.545-.04.74-.072.61-.192 1.14-.48 1.585-.862s.667-.887.667-1.51c0-.416-.08-.76-.243-1.03-.158-.272-.373-.488-.64-.648-.27-.16-.57-.27-.91-.336-.338-.062-.692-.095-1.065-.095-.42 0-.807.01-1.162.025-.354.016-.63.04-.822.07v4.484h1.065zm1.092 7.29c.402 0 .793-.047 1.174-.145.38-.096.716-.243 1.008-.442.29-.2.524-.45.7-.755.178-.304.27-.665.27-1.08 0-.527-.105-.943-.316-1.247-.21-.303-.483-.54-.822-.707-.34-.167-.72-.276-1.14-.324-.42-.047-.84-.073-1.26-.073h-1.77v4.628c.08.033.21.057.388.072.177.017.367.03.57.037.198.007.41.017.63.024.216.008.406.01.57.01M.074 51.305c.37-.064.77-.125 1.2-.183.427-.058.854-.1 1.283-.132.428-.034.842-.06 1.246-.074s.775-.023 1.113-.023c.793 0 1.57.073 2.338.217.768.146 1.453.396 2.06.752.605.355 1.09.844 1.454 1.465.363.62.545 1.402.545 2.338 0 1.39-.324 2.52-.97 3.39-.645.874-1.51 1.48-2.59 1.818l1.187.752 3.875 6.467H8.987l-3.852-6.637-1.74-.315v6.95H.074V51.306zm5.087 2.543c-.34 0-.673.008-1.005.023-.33.02-.586.05-.764.1v4.917h1.407c.918 0 1.653-.21 2.203-.63.55-.42.822-1.116.822-2.085 0-.727-.227-1.295-.678-1.708-.448-.41-1.112-.616-1.983-.616M24.08 51.135h3.317V68.09H24.08zM39.16 59.612c0-2.824.62-5.002 1.864-6.528 1.242-1.524 3.02-2.29 5.33-2.29 1.21 0 2.268.21 3.172.63.904.42 1.654 1.02 2.252 1.793.598.776 1.04 1.704 1.332 2.786.29 1.083.436 2.286.436 3.607 0 2.827-.624 5.002-1.877 6.53-1.252 1.525-3.022 2.29-5.315 2.29-1.23 0-2.293-.212-3.2-.632-.902-.42-1.648-1.018-2.238-1.793-.59-.773-1.03-1.7-1.32-2.785-.29-1.078-.438-2.282-.438-3.608m3.487 0c0 .857.07 1.643.217 2.362.146.72.367 1.338.666 1.854.3.52.683.922 1.15 1.21.47.292 1.025.44 1.674.44 1.176 0 2.09-.462 2.734-1.382.646-.922.97-2.414.97-4.483 0-.823-.07-1.59-.206-2.3-.138-.71-.352-1.333-.643-1.866-.292-.53-.67-.947-1.14-1.246-.467-.298-1.04-.447-1.72-.447-1.18 0-2.093.472-2.737 1.417-.644.942-.966 2.426-.966 4.442M55.243 72.98c-.776.212-1.56.317-2.352.317-.82 0-1.62-.084-2.395-.254s-1.527-.352-2.253-.545-1.43-.377-2.108-.545c-.678-.17-1.314-.254-1.91-.254-.39 0-.763.046-1.115.144v-2.86c.45-.095.92-.142 1.4-.142.68 0 1.355.078 2.024.236.67.158 1.352.33 2.047.514.696.182 1.407.354 2.133.512.728.16 1.494.24 2.302.24.354 0 .72-.02 1.09-.062s.75-.11 1.14-.207l-.002 2.904zM9.278 80.202h3.148V91.15c0 1.1-.146 2.042-.435 2.835-.29.79-.694 1.443-1.21 1.963-.517.516-1.147.895-1.89 1.137-.744.242-1.56.363-2.447.363C2.146 97.448 0 95.485 0 91.56V80.203h3.32V90.91c0 .66.06 1.222.18 1.683.122.46.312.83.57 1.113s.582.482.97.605c.387.122.84.183 1.354.183 1.02 0 1.752-.283 2.205-.848.45-.564.677-1.48.677-2.736V80.2zM20.847 80.202h10.05v2.955h-6.733v3.947h6.13v2.958h-6.13v4.14h6.857v2.955H20.848" fill="#1E1B1D"/></svg>