<svg xmlns="http://www.w3.org/2000/svg" width="44.019" height="38.708" viewBox="0 0 44.019 38.708"><path d="M13.758 1.663c1.06.39 2.145.73 3.18 1.184 1.955.855 3.73 2.002 5.232 3.535.26.264.488.256.716-.02.17-.203.328-.414.49-.623.226.462.624.378 1.015.323-.32.47-.642.94-.962 1.412l-.383.436c-.205-.028-.422-.11-.615-.075-.272.05-.645.113-.766.305-.27.422-.407.926-.6 1.395l-.64 2.26c-.05.236-.096.473-.143.707l-.25-.014.203-1.06c.073-.355.146-.706.217-1.06.276-.584-.02-1.14-.082-1.71-.057-.536.163-.88.616-.856.44.02.713-.17.777-.568.08-.477-.242-.672-.674-.72-.396-.337-.76-.73-1.197-1-.76-.47-1.566-.864-2.353-1.29-.03-.02-.063-.037-.097-.055-.842-.44-1.684-.878-2.526-1.315-.277-.162-.595-.283-.82-.498-.17-.17-.228-.46-.336-.694" fill="#EBEBEB"/><path d="M10.986 13.343c-.02-.24-.015-.486-.064-.723-.53-2.578-.63-5.18-.45-7.8.007-.093.033-.185.05-.278.212-.137.423-.27.637-.408.067.604.13 1.17.196 1.738.283-.74.415-1.465.655-2.152.11-.318.433-.564.657-.842l-.184.55c-.213.552-.413 1.103.188 1.536l-1 1.02c-.033.9-.067 1.8-.103 2.7.22 1.237.453 2.472.643 3.714.028.182-.146.398-.227.598-.523-.12-.714.322-1.007.592l.01-.245z" fill="#D3D3D3"/><path d="M24.39 6.063c-.39.055-.788.14-1.014-.324 1.61-1.655 3.534-2.9 5.444-4.165.126-.082.26-.17.403-.205 1.395-.334 2.793-.656 4.19-.982.22-.05.444-.094.373.268-.037-.014-.074-.03-.11-.045-.36.317-.723.634-1.084.95l-1.184.264c-1.367.352-2.61.97-3.77 1.764L25.135 5.49l-.743.573" fill="#F3F3F3"/><path d="M10.986 13.343l-.01.244c.24-.025.486-.02.715-.084.867-.246 1.714-.377 2.497.23l.452.13c.105.15.213.3.32.45-.145.07-.284.186-.435.203-.64.07-1.284.113-1.927.164l-2.143.055c-.298.016-.607-.018-.89.055-.915.236-1.82.514-2.73.773-.144-.102-.392-.184-.415-.31-.078-.403-.283-.433-.605-.32-.122.044-.255.056-.382.083 1.49-.94 3.11-1.498 4.876-1.61.226-.014.452-.042.676-.063" fill="#F6F6F6"/><path d="M10.974 27.126l.14-.217c1.285.048 2.557.028 3.726-.616l-.482.41c-.523.227-1.045.453-1.568.678-.098.14-.256.27-.285.424-.146.78-.258 1.564-.383 2.348-.065.412-.153.82-.193 1.234-.067.684-.018 1.396-.566 1.938.116 1.012.23 2.023.347 3.033.077.448.152.897.224 1.323.307-.004.51-.004.715-.006-.31.207-.824.197-.802.756-.11-.174-.27-.334-.324-.525-.604-2.146-.834-4.355-1.013-6.568-.04-.504.06-1.02.094-1.53.686.272.675.27.78-.464.052-.355.15-.705.23-1.057l.274-1.19c-.358.008-.637.016-.914.026" fill="#D2D2D2"/><path d="M36.462 14.304c2.913 1.162 5.303 3.02 7.253 5.46.137.17.204.394.304.59l-.408.036-.407.014c-.22-.21-.485-.393-.65-.643-.52-.776-1.12-1.458-1.956-1.903-.144-.125-.283-.252-.43-.373-1.27-1.062-2.7-1.867-4.202-2.55.163-.21.33-.42.494-.63" fill="#E0E0E0"/><path d="M5.435 15.017c.13-.027.26-.04.383-.082.322-.113.527-.084.604.32.024.125.272.207.418.31l-1.962 1.09c-1.117.808-2.236 1.614-3.354 2.42l-.756.84L0 19.91c.016-.195-.042-.455.062-.574.59-.686 1.145-1.434 1.852-1.977 1.116-.857 2.342-1.57 3.52-2.343" fill="#F1F1F1"/><path d="M34.18 27.435c.135.383.27.764.403 1.146-.064.21-.153.415-.19.628-.108.62-.26 1.242-.274 1.865-.012.61.127 1.225.2 1.838-.437-1.16-.873-2.32-1.312-3.48-.24-.634-.484-1.263-.727-1.894-.323-.58-.645-1.16-.97-1.74-.107-.213-.226-.422-.32-.64-.086-.194-.342-.43.083-.55.442.604.884 1.21 1.326 1.812.286.588.565 1.18.867 1.758.06.113.207.182.313.27.066-.123.127-.248.2-.365.13-.216.267-.43.4-.645" fill="#C0C0C0"/><path d="M34.32 32.91c-.074-.612-.213-1.226-.2-1.837.012-.623.164-1.246.272-1.865.037-.213.126-.418.19-.627.7 2.78.67 5.565.124 8.368-.115.596-.27 1.13-.713 1.56l-1.002-.323c.65.04 1.063-.225 1.168-.895.058-.625.113-1.252.17-1.877l.057-1.018c-.022-.496-.043-.99-.066-1.484" fill="#B1B1B1"/><path d="M34.435 3.66c.213 2.376.394 4.75-.285 7.09-.114.153-.28.288-.337.46-.345 1.04-.797 2.027-1.576 2.807-.264.266-.688.37-1.04.55l.26-.247c.762-.42 1.107-1.225 1.484-1.9.484-.865.66-1.904.935-2.88.04-.14-.108-.333-.17-.5.052-.628.103-1.255.153-1.884l-.132-2.967c.005-.392.01-.782.017-1.173.23.214.46.43.692.644" fill="#BCBCBC"/><path d="M35.967 14.933c1.503.684 2.93 1.488 4.203 2.55.146.122.285.25.428.374-.18-.008-.388.04-.534-.035-.925-.47-1.816-1.01-2.756-1.443-.923-.427-1.893-.753-2.84-1.122l-1.272-.07c.105-.145.327-.322.297-.424-.16-.543.226-.877.418-1.285l.353.08-.55.653c.22.13.428.314.667.38.52.144 1.057.23 1.587.34" fill="#BFBFBF"/><path d="M11.38 26.187c-1.72-.352-3.44-.69-4.995-1.57-.67-.377-1.343-.752-2.015-1.13-.1-.187-.184-.384-.305-.554-.144-.203-.32-.383-.48-.57.822.47 1.645.943 2.466 1.414 1.066.887 2.316 1.387 3.65 1.666.585.12 1.204.072 1.805.125.59.05 1.325-.37 1.685.488-.422.01-.845.012-1.266.035-.183.01-.363.063-.545.097" fill="#989898"/><path d="M12.668 2.878c-.227.277-.546.523-.658.842-.24.688-.372 1.412-.655 2.152-.063-.568-.128-1.135-.196-1.738-.215.137-.426.27-.637.408L10.99 1l1.327.886c-.516-.074-.87.078-.903.662.015.26.028.52.044.783.087.02.174.034.26.052l.455-.793.962.155v.01c-.07.045-.142.09-.21.135l-.257-.012" fill="#C1C1C1"/><path d="M43.204 20.403c.137-.004.27-.01.407-.016-.587.598-1.165 1.205-1.766 1.787-.456.44-.953.838-1.407 1.28-.116.112-.137.323-.202.49-1.277 1.06-2.83 1.554-4.35 2.108.046-.098.067-.246.145-.287 1.003-.525 2.036-.998 3.012-1.57.394-.23.664-.668.99-1.01l2.195-1.773c.328-.335.653-.67.977-1.01" fill="#B1B1B1"/><path d="M40.034 23.187c-.326.344-.598.78-.99 1.01-.976.572-2.01 1.045-3.013 1.57-.077.04-.1.19-.146.287l-1.815.67c-.142-.137-.28-.275-.31-.3.358-.31.643-.554.927-.798 1.912-.486 3.632-1.38 5.25-2.488l.097.05" fill="#C0C0C0"/><path d="M34.686 25.626l-.925.797c.028.027.168.164.31.3.036.24.073.476.11.712-.134.215-.27.43-.4.646-.07.12-.133.243-.198.364-.107-.088-.256-.152-.314-.266-.302-.58-.582-1.172-.87-1.76l.966-.762 1.322-.03" fill="#D2D2D2"/><path d="M21.9 33.282c-1.073 1.014-2.018 2.184-3.43 2.783.072-.125.145-.25.19-.332-.664.283-1.35.572-2.033.865-.377.16-.753.324-1.13.488l-.195-.11c1.12-.583 2.24-1.17 3.36-1.755 1.053-.177 1.737-.853 2.3-1.696l.938-.242" fill="#BDBDBD"/><path d="M28.59 37.005c-1.145-.764-2.293-1.527-3.44-2.29.532.138 1.064.274 1.597.413.168.123.33.252.504.367 1.228.82 2.46 1.635 3.903 2.043l.586.322c-.466-.133-.94-.236-1.393-.404-.71-.268-1.4-.578-2.1-.87-.02.044-.038.087-.06.128l.404.29" fill="#9F9F9F"/><path d="M21.9 33.282l-.938.242-.002-.004c.245-.23.46-.506.742-.668.39-.23.7-.488.82-.936.7.316 1.4.63 2.104.945l.762.964c-.478-.094-.954-.188-1.432-.28l-1.06-1.093c-.35.295-.673.563-.996.832" fill="#C4C4C4"/><path d="M10.974 27.126c.277-.01.557-.018.912-.027-.094.407-.185.798-.273 1.188-.08.352-.18.7-.23 1.057-.106.734-.096.736-.78.465-.16-.934.063-1.815.37-2.684" fill="#E2E2E2"/><path d="M3.585 22.362c.16.19.336.367.48.57.12.17.204.37.305.553-1.642-.965-3.13-2.12-4.37-3.574.257 0 .513 0 .77.003l1.534 1.465c.426.326.853.656 1.28.984" fill="#898989"/><path d="M35.967 14.933c-.53-.11-1.067-.195-1.588-.342-.24-.063-.447-.25-.67-.378l.552-.652 2.2.744-.495.63" fill="#F0F0F0"/><path d="M31.196 14.565c.352-.178.776-.283 1.04-.55.78-.778 1.23-1.767 1.576-2.806.057-.173.222-.308.338-.46-.266.854-.53 1.71-.797 2.562l.003.03c-.276.24-.65.43-.81.728-.603 1.14-1.908 1.44-2.69 2.352l-.1-.06.675-.92c.257-.29.51-.584.766-.877" fill="#B1B1B1"/><path d="M33.354 13.313c.113.023.226.05.338.072-.256.56-.43 1.178-.787 1.658-.508.684-1.15 1.266-1.736 1.89-.183.15-.363.302-.544.452-.05-.08-.1-.158-.148-.238 1.088-1.17 2.127-2.377 2.88-3.803l-.004-.03" fill="#434343"/><path d="M28.59 37.005c-.133-.098-.267-.193-.4-.29l.058-.128c.7.29 1.39.602 2.1.87.45.167.927.27 1.392.403.418.11.836.217 1.255.324l1.002.324c-.187.068-.392.23-.557.195-1.694-.34-3.32-.888-4.85-1.698" fill="#8D8D8D"/><path d="M40.236 23.944c.064-.166.086-.377.2-.49.454-.44.952-.84 1.407-1.28.603-.58 1.18-1.188 1.768-1.784.137-.014.272-.023.408-.035-.816 1.3-1.945 2.29-3.18 3.17l-.602.42" fill="#A8A8A8"/><path d="M12.316 1.886L10.99 1c.363.052.735.073 1.09.163.565.145 1.12.33 1.677.5.11.234.166.523.34.693.225.215.543.336.82.498-.228-.088-.457-.172-.682-.262-.524-.213-1.046-.43-1.57-.645-.084-.004-.17-.01-.255-.016-.03-.015-.06-.03-.094-.044" fill="#E3E3E3"/><path d="M11.845 38.433c-.02-.557.49-.55.802-.756.275-.016.55-.03.826-.047.78.21 1.4-.176 2.025-.543l.614.11c-1.345.68-2.778 1.056-4.267 1.236" fill="#9C9C9C"/><path d="M11.38 26.187c.18-.033.36-.086.544-.096.42-.022.844-.024 1.265-.034.562-.076 1.124-.15 1.687-.227l.127.188c-1.16.633-2.41.635-3.676.52l.05-.35" fill="#323232"/><path d="M23.956 33.544c.477.094.955.188 1.432.28l1.358 1.304c-.532-.14-1.064-.275-1.596-.412-.398-.393-.796-.78-1.194-1.172" fill="#B2B2B2"/><path d="M34.435 3.66l-.692-.644.052-.098c-.233-.76-.45-1.52-.117-2.31.037.017.073.032.11.046.215 1.003.43 2.005.647 3.007" fill="#B5B5B5"/><path d="M16.11 37.196l-.612-.11c.377-.16.753-.325 1.13-.487l2.034-.866c-.047.082-.118.207-.19.33l-2.36 1.132" fill="#A5A5A5"/><path d="M31.168 16.933c.585-.625 1.23-1.207 1.736-1.89.357-.48.53-1.1.788-1.657l.22.09c-.195.408-.58.744-.42 1.287.03.104-.19.28-.297.422l-1.64 1.688-.387.06" fill="#969696"/><path d="M11.327 26.54c1.266.113 2.515.11 3.675-.52.044.032.087.065.13.1l-.293.175c-1.17.645-2.44.666-3.726.615l.213-.37" fill="#565656"/><path d="M20.282 12.503l.14-.707c.748-.193 1.14-.762 1.462-1.398-.2.73-.416 1.455-.594 2.19-.053.218 0 .46.005.692l.23.03c.11-.267.295-.524.322-.798.14-1.312.698-2.494 1.344-3.574.73-1.22 1.743-2.273 2.646-3.39.1-.122.28-.173.424-.26-.52.597-1.075 1.17-1.555 1.796-.427.56-.77 1.182-1.152 1.775-.197.5-.396.997-.596 1.497-.404.695-.736 1.408-.63 2.246.06.465.447.82.738.61.665-.483 1.578-.59 2.05-1.355l3.402-4.09c.48-.604.962-1.205 1.443-1.81-.044.144-.055.312-.138.427-.562.775-1.116 1.557-1.713 2.303-1.202 1.504-2.45 2.97-3.628 4.492-.258.334-.378.83-.41 1.262-.017.236.285.496.442.744.053-.012.104-.023.156-.037-.038.067-.075.134-.11.202l-.31.09c-.385-.238-.844-.41-1.134-.732-.28-.312-.565-.455-.932-.404s-.73.164-1.08.295c-.53.2-.718.134-.77-.413-.048-.557-.036-1.122-.052-1.684" fill="#C4C4C4"/><path d="M21.088 6.515c.432.047.752.242.675.72-.064.396-.338.59-.778.567-.453-.023-.672.32-.614.857.062.567.358 1.124.083 1.708-.07-.23-.156-.453-.207-.684-.134-.62-.65-1.068-1.05-.893-.977.43-1.7.286-2.422-.49-.46-.495-.915-.993-1.372-1.49l-.185-.368c.18.13.344.307.546.38.472.177.955.362 1.45.43.378.052.78-.067 1.172-.12.43-.057.86-.123 1.288-.186l.02-.2c-.137-.114-.27-.235-.414-.34-.578-.423-1.16-.84-1.74-1.26l2.033 1.036c.17.11.354.21.51.34.298.252.566.543.88.775.104.078.305.03.46.04.01-.157.054-.323.015-.466-.03-.112-.166-.194-.255-.29-.032-.02-.063-.044-.095-.065" fill="#E4E4E4"/><path d="M26.26 5.29c-.144.084-.326.137-.424.258-.902 1.117-1.916 2.17-2.646 3.39-.645 1.08-1.203 2.265-1.343 3.573-.028.276-.212.534-.323.8l-.23-.03c-.004-.23-.057-.474-.004-.692.178-.734.394-1.46.594-2.19l1.544-2.92c.32-.472.642-.942.962-1.413.25-.19.496-.385.746-.574l2.504-1.903c.114.02.23.04.447.08l-1.175.95-.652.673" fill="#B1B1B1"/><path d="M15.4 6.812c.458.496.914.996 1.374 1.49.72.775 1.445.92 2.42.49.4-.176.917.27 1.05.893.05.23.138.457.208.684l-.218 1.058c-.21-.494-.332-1.086-.99-1.178-.85-.117-1.605-.398-2.195-1.047l-.098-.057c-.15-.238-.294-.48-.45-.713-.363-.543-.733-1.082-1.1-1.62" fill="#DADADA"/><path d="M20.282 12.503c.016.562.004 1.127.056 1.686.05.546.237.612.77.413.348-.13.713-.244 1.08-.295s.65.092.93.404c.29.322.75.494 1.135.732l-.627.16c-.43-.184-.85-.488-1.293-.523-.83-.065-1.672.022-2.51.048l.2-2.64h.008c.084.003.168.01.252.015" fill="#D2D2D2"/><path d="M17.05 9.202c.59.648 1.345.93 2.193 1.05.66.09.78.68.99 1.175-.066.354-.135.707-.203 1.06h-.008c-.065-.17-.197-.345-.18-.505.034-.29-.025-.42-.326-.463-.958-.142-2.224-1.34-2.466-2.318" fill="#CFCFCF"/><path d="M23.428 7.476l-1.544 2.922c-.324.637-.713 1.205-1.46 1.398l.64-2.262c.315-.31.636-.377 1 .09l.982-1.713c.127-.143.255-.288.382-.434" fill="#D4D4D4"/><path d="M12.667 1.948c.522.215 1.045.432 1.568.645.226.09.454.174.682.262l2.525 1.316c.15.175.276.386.46.517.5.36 1.027.69 1.544 1.03C18 4.97 16.562 4.2 15.096 3.486c-.624-.304-1.306-.49-1.962-.73v-.01c.418-.603-.277-.553-.467-.8" fill="#C1C1C1"/><path d="M23.046 7.91l-.982 1.712c-.364-.465-.685-.398-1-.088.193-.47.332-.973.602-1.395.12-.192.492-.255.765-.306.194-.034.41.048.616.077" fill="#E2E2E2"/><path d="M19.447 5.716c-.518-.34-1.043-.668-1.546-1.03-.182-.13-.307-.34-.458-.515.033.017.065.034.098.054 1.028.63 2.153 1.12 2.95 2.092-.316-.182-.632-.36-.946-.54-.032-.023-.065-.04-.097-.06" fill="#B4B4B4"/><path d="M19.544 5.772l.945.543c-.796-.973-1.92-1.463-2.95-2.092.786.426 1.59.82 2.35 1.29.438.27.802.663 1.198 1 .03.024.063.046.095.067-.155.04-.37.168-.458.11-.413-.277-.79-.607-1.18-.918" fill="#C2C2C2"/><path d="M14.64 13.862l-.452-.13c-.564-.386-.98-1.16-1.87-.7-.083.04-.222-.02-.333-.035.08-.2.255-.416.227-.602-.19-1.24-.423-2.475-.642-3.713.08-.46.148-.922.252-1.377.026-.117.164-.21.25-.316.074.097.193.187.213.292.194 1.113.483 2.227.522 3.348.04 1.156.443 2.025 1.354 2.693l.297.17.24.275-.058.094" fill="#DFDFDF"/><path d="M12.668 2.878l.255.012.945.412c-.122.06-.245.123-.367.184-.204-.002-.538-.072-.586.014-.104.186-.15.5-.06.678.28.547.594 1.11 1.364 1.033l.52.696c-.152.043-.307.084-.462.125l-.493-.366c-.313 1.023.978 3.863 1.973 4.473.55-.305-.065-.672.042-1.137.184.287.287.482.424.652.157.197.344.37.52.553l.693 1.318c-.144-.12-.288-.242-.43-.363-.016.05-.03.1-.043.148-.25-.033-.577.02-.74-.117-.5-.42-1-.866-1.374-1.394-.38-.535-.63-1.168-.902-1.773-.175-.393-.293-.813-.425-1.223-.22-.68-.433-1.36-.644-2.043-.137-.44-.263-.887-.394-1.33l.186-.55" fill="#DCDCDC"/><path d="M12.483 3.427c.13.443.257.89.394 1.332.21.68.426 1.362.645 2.04.133.41.25.83.424 1.223.27.605.52 1.238.902 1.775.374.525.876.973 1.374 1.393.163.14.488.085.74.12.015-.05.027-.1.04-.15.146.12.288.242.433.363.046.07.092.14.14.21-.313.085-.626.17-.94.253-.67-.64-1.272-1.38-2.032-1.885-.596-.395-1.06-.688-.826-1.476.018-.06-.035-.143-.057-.215-.25-.817-.5-1.638-.757-2.454-.047-.148-.114-.287-.173-.432-.165.098-.33.193-.496.29-.207.058-.415.112-.622.17l1-1.02c-.602-.434-.4-.985-.19-1.537" fill="#D4D4D4"/><path d="M11.672 5.983c.207-.057.415-.11.622-.168-.048.9.725 1.664.438 2.61-.018.054.066.134.08.206.047.253.082.51.124.76.15.925.247 1.864.48 2.765.11.426.488.78.744 1.168-.91-.668-1.312-1.537-1.354-2.693-.04-1.12-.328-2.234-.522-3.348-.02-.105-.14-.195-.213-.293-.085.104-.222.198-.25.315-.103.455-.17.918-.252 1.377.036-.9.07-1.798.104-2.7" fill="#D4D4D4"/><path d="M11.984 12.995c.11.016.25.08.332.037.89-.46 1.307.312 1.87.7-.782-.606-1.63-.476-2.495-.23-.228.063-.475.06-.713.085.294-.27.484-.713 1.007-.592" fill="#E9E9E9"/><path d="M26.912 4.616l1.176-.95-.447-.08c1.16-.794 2.402-1.41 3.77-1.763l-1.144.635.282.162-1.314.7c-.02.032-.04.062-.058.095-.254.11-.517.205-.76.336-.507.278-1.003.577-1.504.866M33.677.61c-.333.79-.116 1.55.117 2.31-.467-.15-.927-.35-1.406-.43-.257-.04-.548.12-.824.19-.118-.02-.234-.042-.352-.063-.067-.04-.134-.082-.2-.123l1.148-.383c.15.075.306.218.453.212.188-.01.37-.14.556-.213l-.372-.427c-.07-.04-.137-.082-.206-.123l1.085-.95" fill="#BEBEBE"/><path d="M32.593 1.56l.205.123c.238.285.157.428-.2.44-.145.005-.29-.01-.437-.015-.382.13-.765.256-1.148.387-.154.04-.31.084-.465.127l-.282-.164c.422-.232.782-.434 1.145-.635l1.183-.263" fill="#A8A8A8"/><path d="M14.64 13.862c.02-.03.037-.062.056-.094l.455.13c.185.06.368.124.552.187.645.318 1.29.64 1.936.96l.74.31.64.496-.114.198c-.186.445-.48.895.028 1.328l.194.113-.07.353-.296-.17-1.146-.527c.056.002.114.014.168.008.184-.023.367-.055.55-.084-.095-.148-.156-.36-.292-.436-.595-.336-1.212-.635-1.82-.947-.15-.04-.302-.084-.45-.125L13.6 14.97l-1.002-.29c.644-.05 1.287-.093 1.928-.163.15-.016.29-.133.434-.203-.108-.15-.216-.3-.323-.452" fill="#EAEAEA"/><path d="M4.878 16.653l1.962-1.09c.908-.262 1.812-.537 2.726-.773.283-.072.595-.04.893-.055-.507.256-.2.416.066.578-.103.03-.207.06-.31.088-1.124.274-2.247.548-3.37.82-.194.106-.39.212-.583.32-.343.065-.686.144-1.03.192-.113.017-.238-.05-.355-.08" fill="#B2B2B2"/><path d="M10.526 15.315c-.27-.164-.574-.324-.07-.58l2.144-.055 1 .29 1.59.573-.01.148-.284.02c-.946-.165-1.89-.358-2.84-.474-.413-.05-.847.06-1.27.1-.088-.007-.174-.015-.26-.02" fill="#A5A5A5"/><path d="M11.71 36.358l-.35-3.033c.55-.54.5-1.254.566-1.94.04-.41.128-.82.194-1.23-.01.374-.023.747-.023 1.122 0 .727.01 1.455.015 2.182.083 0 .166.003.25.005l.28-3.076c.033-.378.033-.76.116-1.126.027-.12.322-.307.402-.268.39.18.81.37 1.1.668.347.357.602.328.9.018.342-.352.67-.717 1-1.082.377-.418.748-.842 1.122-1.262l-.836 1.23c-.4.474-.798.952-1.204 1.423-.527.612-.974.694-1.688.32-.13-.07-.254-.146-.484-.278-.008.28-.016.47-.018.656-.003.262.077.56-.016.78-.62 1.474-.092 2.974-.142 4.458 0 .033.038.064.06.096.14.213.28.426.423.64-.525-.268-1.092-.315-1.668-.304" fill="#E0E0E0"/><path d="M14.84 26.294l.293-.176c.316-.182.635-.36.953-.543.582-.27 1.164-.54 1.746-.812.373-.18.745-.357 1.118-.535l.208-.146c.438.146.173.402.048.557-.315.39-.674.747-1.015 1.116-.148.145-.305.28-.45.43-.393.406-.752.854-1.187 1.207-.17.14-.55.158-.77.07-.497-.2-.953-.498-1.428-.758l.485-.41" fill="#FAFAFA"/><path d="M14.355 26.704c.475.26.932.56 1.43.758.22.088.597.068.767-.07.438-.354.796-.8 1.19-1.207.144-.148.3-.285.45-.43l-.36.844c-.036.065-.074.132-.112.196-.14.082-.306.14-.418.248-.63.62-1.248 1.258-1.87 1.89-.26.26-.496.442-.72-.056-.068-.148-.25-.29-.41-.344-.503-.172-1.02-.3-1.603-.467.02-.174.055-.43.09-.686.52-.223 1.044-.45 1.565-.676" fill="#EDEDED"/><path d="M12.788 27.382c-.033.256-.066.512-.09.684.583.166 1.102.297 1.604.47.16.054.34.194.408.343.225.497.462.313.72.052.623-.63 1.24-1.264 1.87-1.887.112-.11.278-.166.42-.248l-.438.54c-.374.42-.746.845-1.123 1.263-.33.365-.658.73-1 1.082-.3.31-.554.34-.9-.018-.29-.3-.71-.488-1.1-.668-.08-.04-.375.146-.402.268-.083.365-.083.748-.117 1.125-.09 1.024-.186 2.05-.278 3.075l-.25-.006c-.005-.73-.014-1.456-.015-2.183 0-.373.015-.748.022-1.12.123-.786.236-1.57.383-2.35.03-.154.187-.285.285-.425" fill="#E5E5E5"/><path d="M11.71 36.358c.575-.012 1.142.035 1.67.3l1.072-.04c-.365.1-.73.205-1.1.297-.138.035-.296.018-.414.082-.048.023-.054.27-.007.3.13.08.304.146.45.132.338-.036.67-.12 1.002-.185-.303.13-.606.256-.91.385-.275.016-.55.03-.827.047-.204 0-.408.002-.715.004-.07-.42-.147-.872-.22-1.322" fill="#EBEBEB"/><path d="M43.204 20.403c-.324.338-.65.674-.976 1.01.043-.062.104-.12.124-.19.06-.2.2-.534.132-.587-.266-.21-.517-.084-.71.195-.128.185-.285.355-.453.505-.588.527-1.187 1.043-1.782 1.562-.696.303-1.394.604-2.092.904.34-.286.68-.575 1.02-.864.09-.072.18-.146.27-.22 1.032-.235 1.802-.882 2.443-1.665.11-.134-.094-.63-.272-.87-.18-.242-.472-.168-.657.104-.602.137-1.2.285-1.81.402-.32.062-.65.068-.975.1.326-.113.653-.23.98-.342-.022-.07-.023-.115-.046-.137-.055-.05-.12-.088-.18-.13-.114-.108-.23-.218-.342-.327-.21-.08-.414-.18-.63-.238-.542-.146-1.088-.273-1.632-.408.188-.006.38-.037.564-.016 1.153.135 2.33.184 3.45.457.71.174 1.097-.494 1.864-.22-.185-.265-.227-.382-.31-.435-1.466-.928-2.937-1.846-4.41-2.762-.057-.037-.145-.025-.22-.035l-.75-.3-1.34-.638c.947.37 1.917.697 2.84 1.12.94.435 1.83.974 2.756 1.442.146.076.354.027.534.037.837.445 1.436 1.127 1.955 1.904.17.25.434.434.654.645" fill="#D3D3D3"/><path d="M4.878 16.653c.117.03.242.096.354.08.346-.05.688-.127 1.03-.193l-.73.375-1.43.88c-.304.177-.657.304-.9.54-.333.328-.556.764-.88 1.104-.148.155-.42.196-.635.29l-.162-.654 3.353-2.423" fill="#BFBFBF"/><path d="M1.524 19.075l.162.654c.215-.093.486-.136.635-.292.325-.34.548-.777.882-1.102.242-.238.596-.365.898-.54l-.016.257-.424.28c-.424.43-.875.835-1.264 1.294-.71.846-.695.857-.076 1.738l-.018.012-1.535-1.465c.254-.278.505-.558.757-.837" fill="#D0D0D0"/><path d="M34.32 32.91c.02.495.043.99.065 1.485-.39-.25-.56-.168-.703.31-.228.75-.574 1.47-.87 2.202.086-.36.137-.736.262-1.084.625-1.734.26-3.338-.608-4.88-.06-.106-.225-.185-.354-.218-.553-.14-1.167-.152-1.656-.408-.722-.38-1.44-.826-1.83-1.617-.1-.203-.21-.404-.354-.578-.146-.178-.336-.36-.524-.023l-.648-1.163c.215.088.486.123.636.277.447.463.846.97 1.264 1.46.574.91.69.942 1.773.67.605-.15 1.245-.37 1.66.388.052.098.228.13.35.19.044-.03.09-.06.134-.093-.1-.35-.198-.7-.3-1.05-.11-.414-.223-.83-.335-1.244.242.63.487 1.262.727 1.893l1.31 3.48" fill="#CACACA"/><path d="M33.362 25.655c-.32.254-.644.508-.964.764l-1.326-1.813.053-.098c.368.423.755.24 1.23.044L30.79 22.35l.495.28.918.92c.133.182.233.412.408.533.362.254.587.78 1.166.633.274.043.555.14.823.113.41-.042.812-.167 1.22-.257-.813.23-1.623.455-2.487.697l.03.385" fill="#E2E2E2"/><path d="M32.28 27.536l.337 1.244c-.084.344-.237.385-.503.143-.314-.285-.637-.338-1.08-.18-.66.236-1.384.62-2.036-.068l-.267-.68c.535.574 1.102.547 1.773.205.32-.164.75-.135 1.132-.135.31 0 .462-.125.357-.396-.17-.448-.407-.874-.615-1.31-.058-.207-.115-.414-.174-.62.035.017.07.036.106.056l.97 1.74" fill="#D3D3D3"/><path d="M31.31 25.796l-.105-.057-1.136-1.446c-.128-.16-.255-.32-.38-.482-.343-.363-.698-.715-1.02-1.098-.128-.152-.18-.37-.266-.557.585.426 1.17.852 1.756 1.275.32.36.643.72.964 1.076l-.052.098c-.425.12-.17.355-.084.55.096.218.214.427.323.64" fill="#D0D0D0"/><path d="M32.992 38.185l-1.254-.324c-.196-.106-.39-.214-.587-.32-.558-.286-1.118-.57-1.738-.884.306-.117.49-.188.673-.256.282.117.565.234.848.354.646.27 1.254.762 2.02.37.448-.267.817.024 1.206.17-.106.664-.518.932-1.168.89" fill="#EBEBEB"/><path d="M32.955 37.122c-.77.395-1.375-.098-2.022-.37.353.07.707.142 1.06.21.274-.018.548-.035.82-.055.296-.732.644-1.45.87-2.203.143-.477.312-.56.703-.31l-.058 1.02c-.438-.558-.5.024-.62.23-.276.48-.506.984-.753 1.478" fill="#D4D4D4"/><path d="M32.955 37.122c.247-.494.477-.998.754-1.477.118-.207.18-.79.618-.232-.056.627-.11 1.252-.17 1.88-.387-.146-.757-.437-1.203-.17" fill="#DCDCDC"/><path d="M30.432 15.442l-.676.922c-.52.445-1.037.89-1.557 1.334-.265.156-.528.314-.792.47l-.1-.054.384-.596c-.582-.014-1.026-.02-1.47-.03.212-.14.424-.282.637-.42.072.015.166.067.216.04.804-.426 1.82-.582 2.13-1.65.03-.104.118-.19.18-.287.45-.735.923-1.462 1.353-2.21 1.02-1.775 1.663-3.68 1.89-5.72.046-.24.058-.493.143-.718.08-.21.24-.393.363-.588.174.135.41.236.508.414.13.238.147.535.215.807-.052.627-.105 1.256-.155 1.883l-.315 1.002c-.014-.17.004-.35-.047-.506-.06-.184-.18-.348-.274-.52-.156.113-.34.205-.46.35-.114.14-.17.334-.235.512-.248.67-.455 1.357-.738 2.01-.438 1.002-.94 1.977-1.375 2.98-.064.14.106.38.17.576" fill="#E1E1E1"/><path d="M30.432 15.442c-.063-.195-.233-.436-.172-.576.434-1.004.938-1.98 1.375-2.98.283-.652.49-1.34.738-2.01.065-.178.12-.37.236-.512.117-.145.302-.236.457-.35.094.172.214.336.274.52.052.156.034.336.048.506-.13.455-.198.94-.4 1.36-.477.99-1.018 1.948-1.532 2.92-.087.08-.173.163-.26.245l-.764.877" fill="#EBEBEB"/><path d="M33.858 7.155c-.066-.27-.086-.568-.216-.807-.096-.178-.333-.28-.508-.414-.124.195-.282.377-.362.588-.085.225-.098.477-.142.717-.022-.24-.064-.48-.064-.722 0-.445.065-.893.022-1.33-.02-.207-.23-.396-.354-.596-.183.137-.38.254-.542.41-.104.1-.155.254-.23.383.087-.318.093-.695.277-.94.47-.63.54-.94.18-1.69.602.48 1.203.956 1.806 1.433l.132 2.967" fill="#D7D7D7"/><path d="M31.456 14.32c.515-.974 1.055-1.933 1.532-2.92.202-.42.27-.905.4-1.36l.316-1.002c.06.17.21.36.17.502-.276.975-.452 2.014-.934 2.88-.376.675-.722 1.48-1.484 1.9" fill="#C5C5C5"/><path d="M33.726 4.188l-1.807-1.43-.355-.078c.275-.07.566-.232.823-.19.48.08.938.28 1.406.43-.018.03-.035.063-.053.097l-.014 1.17" fill="#CECECE"/><path d="M34.467 15.257l1.34.64c-.003.28.04.573-.02.843-.087.377-.326.727-.363 1.104-.044.436-.237.537-.616.55-.773.03-1.546.09-2.318.132-.596.033-1.19.06-1.787.09.727-.12 1.453-.33 2.182-.342 1.024-.016 1.56-.592 1.318-1.56-.05-.2.013-.444.074-.653.15-.503-.047-.784-.57-.685-.258.05-.5.236-.724.398-.484.354-.95.732-1.426 1.1l1.64-1.686 1.27.07" fill="#ECECEC"/><path d="M14.876 25.83c-.562.073-1.124.15-1.687.226-.36-.857-1.095-.436-1.686-.488-.602-.053-1.22-.004-1.805-.125-1.335-.28-2.585-.78-3.65-1.666l.062-.088c2.307 1.27 4.78 1.612 7.367 1.327.128.115.24.28.39.332.4.142.82.237 1.232.353l-.226.126" fill="#A4A4A4"/><path d="M6.112 23.688l-.06.088-2.468-1.414c-.428-.328-.854-.656-1.28-.986l.017-.01c.132.076.26.152.392.23.77.485 1.543.97 2.315 1.454l1.085.638" fill="#D0D0D0"/><path d="M13.868 3.302l-.946-.412c.07-.045.143-.09.212-.137.657.242 1.34.43 1.965.732 1.463.715 2.9 1.484 4.348 2.23.032.018.063.04.097.057.39.31.77.64 1.182.918.088.06.302-.068.458-.11.088.097.223.18.254.292.038.143-.006.31-.015.467-.156-.01-.355.036-.462-.042-.312-.232-.58-.523-.88-.775-.155-.13-.338-.23-.51-.34-.17-.143-.323-.324-.518-.42-.87-.438-1.75-.855-2.632-1.27-.85-.404-1.703-.795-2.555-1.19" fill="#D4D4D4"/><path d="M12.316 1.886l.094.047c.44.406-.12.45-.237.656h-.002c-.252-.015-.505-.028-.758-.042.036-.584.388-.735.904-.662" fill="#9F9F9F"/><path d="M11.413 2.548c.253.014.506.027.76.043l-.456.792c-.086-.018-.173-.033-.26-.05-.016-.263-.03-.524-.044-.784M12.173 2.59c.118-.206.676-.25.238-.657.086.006.17.012.257.016.19.245.884.194.466.796-.32-.054-.64-.104-.96-.157" fill="#AEAEAE"/><path d="M39.54 22.897c.594-.52 1.192-1.035 1.78-1.562.168-.15.326-.32.454-.506.193-.278.444-.403.71-.194.07.055-.074.387-.132.588-.02.07-.082.127-.124.19l-2.195 1.772-.098-.05.264-.362-.08-.104c-.193.075-.388.15-.58.227" fill="#E6E6E6"/><path d="M39.54 22.897l.58-.227c.026.033.054.068.08.104-.09.12-.177.24-.265.36-1.618 1.11-3.337 2.005-5.25 2.49l-1.323.03c-.013-.164-.024-.328-.028-.385.863-.243 1.675-.47 2.485-.696.54-.258 1.084-.516 1.627-.773.697-.3 1.395-.6 2.092-.903" fill="#F6F6F6"/><path d="M14.383 37.245c-.333.064-.664.15-1 .184-.148.015-.32-.052-.45-.132-.048-.03-.042-.275.006-.3.117-.065.275-.048.412-.083.37-.094.735-.197 1.1-.297l2.377-1.398.33-.328c.193-.047.418-.047.573-.15.53-.355 1.044-.736 1.548-1.13.25-.196.462-.44.692-.66l.653-.673c.185-.155.375-.3.55-.462.266-.242.52-.494.78-.742l.317.602c-.13.205-.24.432-.398.61-.507.56-1.032 1.106-1.55 1.655l-1.66 1.28-3.36 1.755c-.307.09-.615.177-.92.267" fill="#F3F3F3"/><path d="M18.663 35.222l1.66-1.28.638-.42.002.003c-.562.843-1.246 1.52-2.3 1.697" fill="#C4C4C4"/><path d="M14.383 37.245l.92-.268.196.11c-.626.366-1.246.75-2.026.542.302-.13.606-.258.91-.385" fill="#A5A5A5"/><path d="M30.086 36.4c-.185.067-.368.138-.674.255l1.74.883c-1.443-.408-2.676-1.22-3.902-2.043-.173-.115-.337-.244-.505-.367-.45-.434-.904-.87-1.357-1.303l-.762-.963-1.412-2.12 1.192.32.01-.813c.066.036.133.073.197.112.125.162.25.322.376.482l-.05.096c.278.504.52 1.03.84 1.506.896 1.328 1.88 2.58 3.318 3.38.33.19.66.382.988.573" fill="#E1E1E1"/><path d="M23.213 30.74l1.413 2.122c-.702-.314-1.403-.63-2.104-.945-.02-.094-.037-.19-.057-.283-.18-.46-.36-.918-.542-1.375l1.29.48z" fill="#CFCFCF"/><path d="M22.466 31.632l.057.285c-.12.447-.43.707-.82.936-.282.162-.497.44-.742.668-.21.142-.423.282-.635.423.518-.55 1.044-1.094 1.55-1.656.16-.178.267-.404.4-.61.063-.016.127-.03.19-.045" fill="#DBDBDB"/><path d="M33.356 13.345c-.752 1.426-1.79 2.633-2.88 3.803-.443.324-.887.65-1.33.977-.054-.275-.105-.55-.153-.8.275-.288.57-.595.864-.9.78-.913 2.086-1.214 2.69-2.353.16-.3.534-.487.81-.727" fill="#A3A3A3"/><path d="M29.856 16.42c-.294.31-.59.616-.862.903.047.25.1.525.15.8-.016.03-.035.06-.055.09-.362.19-.723.376-1.084.565-.35-.434.003-.742.193-1.08.518-.445 1.035-.89 1.555-1.334.035.018.068.04.1.057" fill="#AEAEAE"/><path d="M31.556 16.872c.474-.367.94-.746 1.426-1.098.223-.164.465-.352.724-.4.524-.1.72.18.57.686-.062.21-.125.453-.074.654.24.965-.295 1.543-1.318 1.56-.73.01-1.455.22-2.182.34l-.778.212c-.434.094-.865.19-1.3.283-.187.04-.405.392-.554-.048.335-.2.67-.396 1.004-.596l1.552-1.08c.18-.15.36-.3.543-.45.128-.023.257-.042.386-.064" fill="#F5F5F5"/><path d="M30.625 17.386l-1.55 1.08.015-.252c.02-.03.04-.06.057-.092l1.33-.975c.05.08.1.16.148.24" fill="#535353"/><path d="M14.876 25.83c.075-.044.15-.085.227-.128.327-.043.655-.084.983-.125l-.953.54c-.043-.032-.087-.065-.13-.1-.042-.06-.085-.125-.127-.188" fill="#484848"/><path d="M24.516 15.188c-.157-.248-.46-.508-.44-.744.03-.432.15-.928.408-1.262 1.178-1.52 2.426-2.988 3.627-4.49.598-.748 1.152-1.53 1.714-2.305.083-.115.094-.28.138-.426h-.01l.162-.3.443-.512c.048.064.095.13.143.193l-1.25 2.163c-.13.16-.285.305-.387.48-.89 1.535-1.77 3.076-2.653 4.615-.195.326-.39.652-.584.98l.263-.9.172-.292 1.024-1.785c-.158.058-.245.062-.28.106-.625.78-1.3 1.527-1.842 2.36-.402.622-.758 1.32-.648 2.122" fill="#AFAFAF"/><path d="M28.517 7.77l-3.4 4.09c-.535.08-1.068.185-1.606.237-.582.057-.82-.21-.74-.8.042-.315.124-.626.188-.94.198-.497.397-.997.597-1.495l.402-.467c.67-.785 1.337-1.57 2.006-2.355-.44.564-.92 1.104-1.31 1.7-.55.843-1.27 1.624-1.06 2.778.118.652.363.916 1.025.82.27-.04.583-.13.775-.31.597-.544 1.167-1.122 1.707-1.724.59-.656 1.135-1.354 1.7-2.03-.094.164-.19.33-.283.497" fill="#D7D7D7"/><path d="M23.625 15.604c.21-.055.418-.107.626-.16l.31-.09c.09.008.176.016.302.025-.278.364-.523.69-.77 1.015-.02.03-.04.064-.06.098-.78-.13-1.472.422-1.444 1.145l-.294.377c.022-.984.022-.998-.9-1.236-.355-.093-.725-.132-1.088-.194-.18-.332-.356-.666-.607-1.135l1.17.15c.204.028.41.052.612.087.72.128 1.442.298 2.143-.083" fill="#FAFAFA"/><path d="M24.092 16.396l.77-1.016-.302-.025.112-.203c.384-.523.77-1.047 1.153-1.572.194-.326.39-.652.584-.98.217.005.45.06.647 0 .263-.08.497-.25.743-.38-.17.174-.318.38-.513.518-1.017.72-1.653 1.71-2.08 2.855-.266.225-.27.477-.08.748.12.173.277.327.352.513.22.553.55.547.97.24l.31-.082.05.028.05.027c-.213.143-.426.28-.638.424-.188.022-.377.046-.564.07-.246.12-.493.24-.74.362-.03-.02-.063-.037-.095-.055.373-.678-.04-1.2-.312-1.836-.142.19-.23.306-.322.42-.033-.017-.065-.035-.096-.054" fill="#DADADA"/><path d="M22.957 10.358c-.064.312-.146.623-.19.938-.08.59.16.86.743.8.538-.052 1.07-.153 1.606-.235-.473.767-1.386.872-2.052 1.355-.29.21-.68-.145-.738-.61-.104-.838.227-1.553.63-2.247" fill="#CECECE"/><path d="M25.825 13.58l-1.153 1.57c-.052.015-.104.026-.156.038-.11-.803.246-1.5.647-2.12.54-.833 1.217-1.58 1.84-2.36.037-.045.124-.05.283-.105-.376.652-.7 1.22-1.025 1.785-.044-.04-.123-.115-.13-.11-.583.52-1.078 1.1-1.128 1.94l1.087-1.537c-.09.3-.177.6-.265.9" fill="#9A9A9A"/><path d="M25.962 6.04l-2.007 2.355c-.133.154-.267.31-.4.467.38-.596.724-1.217 1.15-1.777.48-.627 1.034-1.2 1.555-1.795l.652-.674c.5-.29.998-.588 1.505-.865.242-.13.505-.224.758-.335L25.962 6.04" fill="#CFCFCF"/><path d="M28.517 7.77l.284-.495 1.15-1.312h.01L28.518 7.77" fill="#D4D4D4"/><path d="M14.74 5.907c-.175-.232-.348-.465-.52-.697-.252-.19-.503-.38-.753-.572-.482-.373-.468-.832.034-1.152l4.04 1.66c.58.42 1.16.84 1.74 1.262.144.104.276.225.414.338l-.02.2c-.43.063-.86.13-1.29.187-.39.05-.793.172-1.172.12-.494-.067-.978-.253-1.45-.43-.2-.073-.365-.25-.545-.38-.1-.057-.198-.11-.296-.17l-.18-.366" fill="#EDEDED"/><path d="M17.54 5.147c-1.347-.555-2.693-1.11-4.04-1.662.123-.06.245-.12.368-.184.852.397 1.706.788 2.555 1.19.882.416 1.762.834 2.633 1.27.193.1.346.278.518.42-.678-.343-1.357-.69-2.035-1.033" fill="#E2E2E2"/><path d="M14.92 6.272l.297.17c.06.123.123.246.185.367.367.54.736 1.08 1.1 1.62.158.234.302.477.452.715l-.51-.03-.42-.638c-.09-.2-.168-.404-.267-.6-.275-.536-.557-1.07-.836-1.605" fill="#CFCFCF"/><path d="M16.444 9.116l.51.03c.03.02.063.038.096.056.242.977 1.508 2.176 2.467 2.316.3.045.36.174.327.463-.018.16.114.337.178.507-.065.88-.132 1.76-.2 2.64l-.8-1.114c.43-.27.31-.658.135-.97-.292-.52-.656-1-1-1.49-.567-.816-1.14-1.624-1.713-2.437" fill="#C4C4C4"/><path d="M19.02 14.01l.803 1.116c.837-.023 1.68-.11 2.51-.045.442.036.862.34 1.294.524-.702.38-1.424.21-2.145.082-.203-.035-.41-.06-.613-.088-.504-.113-1.007-.23-1.51-.344-.145-.434-.29-.87-.436-1.303.032.022.064.04.097.06" fill="#E2E2E2"/><path d="M14.16 13.323c-.257-.387-.634-.742-.743-1.168-.234-.9-.33-1.84-.482-2.764-.042-.25-.076-.507-.123-.76-.013-.07-.097-.15-.08-.206.286-.945-.485-1.71-.437-2.61l.495-.29c.06.145.127.283.173.432.256.816.506 1.637.757 2.453.022.07.075.153.057.214-.23.787.23 1.08.826 1.477.76.507 1.362 1.247 2.033 1.886-.052.014-.104.03-.156.043-.728-.616-1.387-1.347-2.4-1.5-.206-.032-.49-.087-.616.02-.135.108-.208.42-.158.6.087.317.293.6.442.897.24.48.473.965.71 1.447l-.298-.17" fill="#D3D3D3"/><path d="M14.456 13.493c-.235-.482-.47-.967-.71-1.447-.148-.3-.354-.58-.44-.895-.052-.183.02-.493.156-.604.126-.104.41-.05.617-.016 1.013.152 1.67.883 2.4 1.498.257.14.508.295.77.422 1.112.533 1.32 1.074.894 1.715-.038-.043-.094-.08-.11-.13-.413-1.358-1.544-1.7-2.747-1.927-.424-.08-.85.232-.734.525.17.434.396.844.598 1.264l-.454-.13-.24-.274" fill="#CCC"/><path d="M16.74 10.202c-.174-.182-.36-.354-.52-.55-.136-.17-.24-.366-.424-.653-.105.464.51.83-.04 1.136-.997-.61-2.287-3.45-1.974-4.473l.494.367 1.59 2.49c.293.56.583 1.122.874 1.682" fill="#E2E2E2"/><path d="M16.74 10.202l-.872-1.682c.052-.014.104-.03.155-.043l.422.64c.57.81 1.145 1.62 1.713 2.435.342.492.706.97.998 1.49.175.312.295.7-.136.97l-.098-.06c-.45-.738-.9-1.48-1.35-2.22l-.14-.21-.692-1.32" fill="#B3B3B3"/><path d="M16.023 8.478c-.052.014-.104.03-.155.043-.53-.83-1.06-1.66-1.592-2.49.155-.04.31-.08.463-.124l.18.367c.28.535.562 1.068.837 1.607.098.193.18.396.266.598" fill="#BFBFBF"/><path d="M13.5 3.485c-.502.32-.516.78-.032 1.152l.752.572c-.77.075-1.085-.487-1.364-1.032-.09-.18-.045-.494.058-.68.05-.087.38-.013.586-.013" fill="#E2E2E2"/><path d="M17.573 11.73l1.35 2.224.438 1.3c.19.32.083.526-.244.65-.033-.02-.065-.036-.1-.054-.213-.166-.426-.332-.64-.496l.552.217c-.085-.663-.435-1.034-.784-1.405.428-.64.22-1.182-.892-1.717-.264-.125-.515-.28-.772-.42.053-.014.104-.027.156-.043.312-.084.625-.168.937-.254" fill="#D1D1D1"/><path d="M29.95 5.962L28.8 7.274c-.563.678-1.108 1.375-1.7 2.03-.54.603-1.11 1.18-1.706 1.728-.193.176-.505.266-.775.305-.663.098-.908-.166-1.027-.818-.21-1.155.51-1.937 1.06-2.776.39-.598.87-1.14 1.31-1.703l3.214-2.624c.02-.033.04-.062.06-.096.568-.154 1.14-.31 1.71-.46-.243.16-.48.327-.73.48-.37.233-.75.456-1.125.685-1.625 1.05-3.004 2.36-4.145 3.922-.16.22-.285.5-.32.764-.062.48.17.64.64.542.177-.035.397-.068.542.006.505.262.904.072 1.224-.28.48-.534.91-1.114 1.36-1.675l1.202-1.412.23-.394.29.166c-.057.1-.112.2-.166.3" fill="#E3E3E3"/><path d="M30.943 2.856c-.57.154-1.14.31-1.71.463l1.313-.698.465-.13.202.124-.114.195c-.05.017-.103.033-.155.046" fill="#CFCFCF"/><path d="M31.1 2.812l.113-.195c.117.02.234.043.352.064.118.026.236.052.354.08.36.75.29 1.056-.18 1.685-.186.244-.19.623-.28.94-.085.308-.15.624-.262.923-.71 1.887-1.915 3.502-2.894 5.242-.06.107-.183.184-.276.275l.34-.596c.717-1.25 1.455-2.483 2.135-3.75.2-.376.238-.84.35-1.263.17-.33.416-.674-.153-.875-.048-.064-.095-.13-.143-.193.164-.23.29-.507.5-.68.442-.368.577-.81.488-1.345-.15-.104-.298-.208-.446-.313" fill="#DFDFDF"/><path d="M32.16 2.11c.147.004.294.018.44.012.354-.01.436-.154.197-.44.124.144.248.284.372.425-.186.076-.368.205-.556.215-.147.005-.3-.137-.453-.212" fill="#B5B5B5"/><path d="M17.613 17.146l1.146.527c-.38-.066-.623.06-.69.463-.074.457-.156.914-.235 1.373-.088-.146-.153-.313-.27-.43-.285-.288-.558-.722-.9-.792-.632-.133-1.33-.16-1.964-.03-1.223.247-2.42.214-3.632-.007.655-.056 1.314-.085 1.965-.175.4-.055.828-.127 1.174-.318.607-.34.594-.822-.036-1.125-.707-.342-1.46-.592-2.192-.88l.665-.015c1.1.336 2.2.678 3.303 1 .107.03.246-.047.37-.076l1.297.486z" fill="#EFEFEF"/><path d="M18.144 14.165c.35.37.7.742.784 1.408l-.55-.22-.74-.31c.173-.03.346-.06.65-.107-.504-.568-.902-1.15-1.432-1.562-.26-.203-.763-.096-1.155-.127v.838l-.55-.188c-.2-.42-.428-.832-.6-1.264-.115-.293.313-.605.736-.525 1.203.227 2.334.568 2.75 1.928.015.05.07.086.108.13" fill="#C3C3C3"/><path d="M15.7 14.085v-.838c.394.03.897-.076 1.156.127.53.412.928.994 1.43 1.562l-.65.107c-.644-.32-1.29-.64-1.935-.958" fill="#B2B2B2"/><path d="M17.613 17.146l-1.297-.484c-1.143-.562-2.332-.963-3.617-1.023-.183-.032-.363-.065-.546-.093-.456-.072-.913-.14-1.37-.21.425-.036.858-.15 1.27-.1.953.116 1.895.312 2.84.474.216.083.43.163.647.245 1.21.703 1.446.766 1.93.45-.437-.25-.844-.483-1.25-.718.607.312 1.225.61 1.82.947.136.076.195.287.292.436-.185.03-.366.06-.55.084-.055.005-.112-.007-.17-.008" fill="#CDCDCD"/><path d="M17.834 19.51c.08-.46.162-.917.238-1.374.065-.402.31-.53.687-.46.1.054.197.11.295.167l.45.13.736.55c-.973-.002-1.57.58-2.066 1.324l-.28.22c-.048.015-.097.03-.145.048-.06-.035-.122-.068-.182-.104l.03-.104.236-.397" fill="#FBFBFB"/><path d="M19.505 17.97l-.45-.127.07-.352c.68-.202.26-.79.39-1.185.026-.082-.258-.264-.4-.4.328-.123.434-.332.245-.65l1.51.344-1.17-.15.606 1.136-.005.002c-.145.094-.428.234-.414.275.16.48-.132.783-.38 1.107" fill="#EFEFEF"/><path d="M15.54 15.954l-.645-.244.284-.018.01-.146-1.59-.576 2.167.592c.214.12.427.244.64.367-.023.052-.048.104-.072.16l-.795-.136" fill="#ABABAB"/><path d="M15.54 15.954l.795.135c.024-.056.05-.108.073-.16-.214-.124-.427-.247-.64-.368.148.04.3.084.45.125l1.25.72c-.48.313-.72.25-1.928-.453" fill="#B9B9B9"/><path d="M19.115 15.905c.14.135.426.318.398.4-.128.395.292.982-.39 1.184l-.193-.116c.06-.213.093-.44.188-.637.15-.314.118-.54-.215-.69l.113-.196.1.055" fill="#F8F8F8"/><path d="M18.902 16.048c.334.148.365.375.216.69-.094.196-.127.423-.188.638-.507-.434-.212-.88-.028-1.328" fill="#EFEFEF"/><path d="M10.785 15.337c.457.068.913.137 1.37.21.182.026.362.06.545.09l-.058.1c-.222.007-.442.01-.665.015-.854.078-1.73.072-2.562.256-1.06.236-2.083.625-3.122.95.56-.292 1.123-.583 1.684-.874.34-.105.68-.213 1.02-.316.405-.123.812-.244 1.218-.365.104-.03.208-.06.31-.086.087.004.173.014.26.02" fill="#E8E8E8"/><path d="M7.978 16.083l-1.684.873c-.297.135-.594.27-.892.408-.155.04-.312.084-.467.125.198-.192.396-.386.594-.575l.732-.375.584-.32 1.132-.137" fill="#DFDFDF"/><path d="M7.978 16.083l-1.13.137c1.12-.27 2.243-.545 3.367-.818-.406.12-.812.242-1.218.365-.34.103-.68.21-1.02.316" fill="#CBCBCB"/><path d="M12.955 36.02c-.02-.03-.06-.06-.06-.093.052-1.486-.478-2.986.143-4.46.093-.224.013-.52.016-.78.002-.188.01-.377.02-.656.228.132.353.21.482.278.714.375 1.16.293 1.688-.32.405-.47.803-.947 1.204-1.422-.324.535-.664 1.06-.97 1.607-.525.936-1.052 1.875-1.526 2.836-.135.272-.13.634-.114.95.006.105.255.197.393.295-.017.035-.035.066-.053.1-.03.203-.06.406-.088.61-.25.204-.5.41-.75.618-.13.146-.257.293-.385.438" fill="#DADADA"/><path d="M14.23 34.255c-.138-.098-.387-.19-.393-.295-.017-.316-.02-.678.114-.95.476-.962 1.002-1.9 1.526-2.837.307-.547.646-1.072.97-1.607l.837-1.23c.145-.18.29-.36.436-.538l.112-.2c.554-.65 1.107-1.304 1.738-2.048l-.64 1.506c-.58 1.02-1.16 2.04-1.742 3.06l-1.034 1.78 1.228-2.477c-.06-.038-.118-.077-.178-.114-.27.426-.543.852-.815 1.277-.447.648-.964 1.26-1.32 1.953-.34.66-.51 1.404-.754 2.113.01.134.018.27.026.403l-.112.202" fill="#CECECE"/><path d="M12.955 36.02c.128-.144.256-.29.384-.437.012.053.026.104.04.154-.16.5.13.682.545.672.292-.01.608-.087.865-.222.63-.332 1.23-.715 1.843-1.078l.196.11c-.793.464-1.585.93-2.377 1.395-.358.016-.717.03-1.074.04-.142-.21-.284-.422-.425-.634" fill="#D2D2D2"/><path d="M16.085 25.575l-.982.127c-.412-.115-.83-.21-1.232-.354-.15-.055-.26-.217-.39-.332l3.006-.633c.205.014.425.082.612.03.37-.1.558.09.734.35-.583.27-1.165.543-1.747.812" fill="#ACACAC"/><path d="M18.932 26.056l.64-1.506c-.63.744-1.185 1.396-1.738 2.05l.36-.843c.34-.37.697-.73 1.013-1.12.125-.153.39-.41-.047-.554.275-.447.14-.69-.37-.746.27-.238.537-.477.806-.715l.318 1.496.243.252.01.035c-.173.14-.39.252-.51.428-.267.39-.486.813-.725 1.223" fill="#E5E5E5"/><path d="M17.832 24.763c-.177-.258-.364-.45-.735-.348-.186.05-.406-.018-.61-.03l1.508-.587c.318.143.638.285.957.43-.374.177-.747.357-1.12.535" fill="#BFBFBF"/><path d="M18.95 24.228l-.957-.43.797-.46c.51.056.645.298.368.745l-.208.145" fill="#D0D0D0"/><path d="M29.923 18.825l.777-.21c.597-.03 1.192-.058 1.787-.09.773-.044 1.546-.103 2.32-.132.378-.014.572-.115.615-.55.037-.378.275-.728.362-1.105.062-.27.02-.562.023-.844l.748.3c.2.132.392.278.6.4.728.423 1.46.84 2.19 1.26-.245.09-.445.02-.638.036-.23.016-.565.03-.667.176-.462.658-1.11.768-1.83.762-.565-.006-1.13.002-1.695.006-.318.018-.64.08-.952.047-1.384-.147-2.738 0-4.08.35-.192.048-.404.032-.608.048l1.048-.453" fill="#E7E7E7"/><path d="M34.517 18.835c.564-.002 1.13-.012 1.694-.006.722.005 1.37-.105 1.832-.763.103-.146.436-.158.666-.176.194-.015.394.056.64-.036-.73-.42-1.464-.836-2.192-1.262-.207-.12-.4-.266-.6-.398.075.01.165-.002.223.035 1.472.915 2.942 1.835 4.408 2.76.083.054.125.17.31.435-.768-.273-1.154.395-1.863.223-1.12-.275-2.298-.324-3.45-.46-.187-.02-.377.01-.565.017l-1.103-.37" fill="#E0E0E0"/><path d="M38.735 22.716l-.27.223-.835.31-1.088.295c.038-.064.075-.13.112-.197 1.36-.55 2.793-.975 3.76-2.232-.27-.033-.51.008-.732.096-.734.293-1.46.605-2.19.908-.703.176-1.43.293-2.104.55-.438.167-.704.593-.686 1.218.64-.117 1.24-.23 1.84-.342l-2.334.633c-.39-.153-.337-.452-.215-.74.11-.255.267-.487.4-.73.205-.097.403-.214.615-.288 1.638-.568 3.28-1.123 4.918-1.697.316-.11.69-.28.822.11.067.204-.16.608-.37.776-.51.412-1.09.743-1.643 1.106" fill="#9E9E9E"/><path d="M38.222 20.18c.06.042.125.08.18.13.02.02.022.062.045.137l-.98.34-.158.04c-.313-.028-.625-.085-.937-.08-.524.005-1.048.032-1.57.077-.786.068-1.57.158-2.353.236l-1.26-.324c.657-.008 1.313-.008 1.97-.033.098-.004.19-.123.288-.188-.1-.062-.19-.146-.296-.188-.302-.115-.61-.213-.914-.318.206-.01.413-.026.618-.02 1.79.062 3.577.124 5.366.19" fill="#EFEFEF"/><path d="M38.735 22.716c.554-.363 1.133-.693 1.646-1.107.21-.17.438-.573.37-.776-.13-.393-.506-.223-.822-.11-1.637.573-3.28 1.128-4.918 1.696-.212.074-.41.19-.614.287-.185.096-.486.152-.532.293-.13.398-.153.828-.22 1.246-.11-.197-.24-.385-.324-.592-.285-.688-.02-1.027.692-1.217.953-.258 1.87-.64 2.803-.97l.327-.337c1.092-.078 2.157-.256 3.11-.846.185-.27.477-.346.656-.104.18.24.38.734.27.87-.64.785-1.41 1.433-2.443 1.666" fill="#B0B0B0"/><path d="M38.222 20.18c-1.79-.065-3.577-.128-5.366-.19-.205-.007-.412.01-.618.02l-.938-.116c.05-.082.08-.21.152-.24.182-.072.382-.098.575-.143.938.046 1.88.08 2.816.136 1.013.06 2.024.137 3.036.207.114.107.227.216.342.326" fill="#909090"/><path d="M37.88 19.853c-1.013-.07-2.023-.148-3.035-.207-.94-.057-1.878-.09-2.817-.135l-.297-.175c.04-.064.078-.13.116-.19.565.048 1.13.134 1.698.14.69.008 1.383-.05 2.074-.08.544.135 1.09.262 1.632.408.216.058.42.158.63.24" fill="#B9B9B9"/><path d="M37.63 23.25c.28-.106.558-.208.835-.313l-1.018.865c-.23.078-.455.176-.69.23-.94.22-1.887.426-2.83.635l.366-.18c.447-.137.904-.246 1.34-.41.673-.256 1.332-.55 1.998-.828" fill="#C1C1C1"/><path d="M40.252 20.284c-.953.59-2.02.766-3.11.846l-.103-.06c.09-.08.18-.163.268-.243l.157-.04c.325-.032.656-.038.977-.1.607-.118 1.206-.266 1.81-.403" fill="#C0C0C0"/><path d="M5.53 16.915l-.594.574c-.285.187-.567.374-.852.563l.016-.256c.477-.294.954-.59 1.43-.882M2.712 21.595c-.13-.076-.26-.152-.39-.23-.62-.88-.636-.892.076-1.737.388-.46.84-.865 1.263-1.295-.056.137-.13.27-.163.414-.05.217-.074.44-.11.66.208-.004.42.014.626-.014.703-.093 1.404-.203 2.107-.306-.404.178-.81.354-1.304.57l.44.252c-.123.653.433.563.774.708l-.113.195c-.45-.172-.903-.334-1.35-.516-.327-.133-.638-.318-.974-.422-.125-.04-.357.05-.435.158-.065.088-.008.307.056.436.156.32.35.622.525.93l-1.303-.915-.107.055.382 1.055" fill="#DCDCDC"/><path d="M6.12 19.087c-.702.103-1.404.213-2.108.307-.205.027-.416.01-.625.014.036-.22.06-.443.11-.66.033-.143.107-.277.164-.414l.425-.28c.283-.19.568-.376.852-.563l.467-.126c-.248.262-.506.512-.734.79-.098.114-.13.282-.193.427.135.05.273.15.404.14 1.015-.068 2.026-.164 3.04-.238.86-.062 1.723-.107 2.584-.16-.193.107-.387.215-.58.324-1.11.105-2.223.213-3.335.32l-.47.12" fill="#EAEAEA"/><path d="M32.812 36.907c-.272.02-.546.037-.82.057-.065-.04-.132-.076-.197-.115l.476-.1c.034-.038.066-.08.1-.118-1.027-.492-1.358-1.484-1.855-2.357h.002c.065.035.128.094.196.102.188.02.38.018.568.023-.055-.193-.086-.398-.17-.578-.102-.215-.25-.406-.377-.607.37.057.475-.06.272-.4-.12-.205-.256-.414-.314-.64-.247-.97-.907-1.675-1.525-2.403-.08-.096-.31-.066-.472-.096l-.29-.422c-.22-.385-.438-.77-.655-1.154.188-.338.378-.154.524.023.144.174.255.375.354.578.388.792 1.107 1.24 1.83 1.618.487.256 1.102.268 1.654.408.132.033.295.11.355.22.867 1.54 1.234 3.144.61 4.878-.126.347-.178.722-.263 1.083" fill="#C2C2C2"/><path d="M27.747 28.1c.218.386.437.77.655 1.153l-.21.14-.425-.636-.18-.37-.937-1.58-.68-1.147c-.05.02-.1.04-.15.062.157.62.314 1.244.473 1.865l-.142.127c-.17-.13-.367-.23-.5-.387-.65-.783-1.285-1.58-1.926-2.37-.24-.3-.046-.41.205-.55.267-.15.497-.367.744-.555.058-.016.114-.033.17-.05.305.302.606.604.91.907l1.342 2.226c.218.39.435.776.65 1.163" fill="#F7F7F7"/><path d="M29 28.675c.65.69 1.373.305 2.034.07.442-.16.766-.107 1.08.178.266.242.42.2.503-.143.1.35.198.7.3 1.05l-.138.093c-.12-.062-.297-.092-.35-.19-.414-.76-1.053-.542-1.66-.388-1.082.27-1.2.238-1.77-.67" fill="#D3D3D3"/><path d="M27.1 26.937c-.45-.742-.897-1.484-1.345-2.227.27.213.564.4.805.643.395.4.755.834 1.13 1.256l1.042 1.386.267.68c-.42-.49-.817-.998-1.265-1.46-.15-.156-.422-.192-.636-.28" fill="#D3D3D3"/><path d="M37.04 21.07c.033.02.067.038.1.06l-.324.336c-.645.12-1.29.227-1.93.365-.57.124-1.126.323-1.7.413-.506.076-.903.652-.606 1.084.342.496.785.924 1.185 1.38l.013.01c-.58.145-.805-.38-1.165-.634-.176-.12-.275-.352-.408-.533-.22-.34-.442-.676-.657-1.02-.065-.105-.11-.225-.164-.338.127-.06.25-.156.382-.172.555-.064 1.12-.057 1.665-.164.972-.19 1.93-.447 2.894-.676l.715-.11" fill="#C1C1C1"/><path d="M36.32 21.18c-.963.23-1.92.485-2.892.677-.544.107-1.11.1-1.664.164-.133.017-.255.112-.383.173.055.113.1.232.165.338.215.343.438.68.657 1.02-.307-.306-.612-.612-.918-.92-.33-.38-.657-.76-1.087-1.26.348-.04.51-.087.667-.07.538.06 1.078.233 1.606.198 1.17-.076 2.33-.252 3.495-.387l.356.07" fill="#CACACA"/><path d="M35.967 21.11c-1.164.135-2.326.31-3.495.387-.527.035-1.068-.14-1.606-.197-.156-.018-.32.03-.667.068l1.086 1.262-.494-.28-.397-.23-.094-.06c-.117-.157-.228-.317-.353-.468-.198-.236-.406-.465-.61-.695l.08-.14 2.977.403c.334.008.67.03 1.003.02.855-.015 1.713-.044 2.57-.07" fill="#D5D5D5"/><path d="M30.395 22.12c.132.076.264.152.396.23.513.718 1.022 1.437 1.567 2.204-.476.195-.863.38-1.232-.045-.32-.358-.643-.718-.965-1.075.148-.004.397.037.424-.023.077-.17.11-.39.076-.576-.047-.245-.174-.478-.265-.716" fill="#EDEDED"/><path d="M33.927 24.667c.943-.21 1.888-.416 2.83-.635.235-.055.46-.152.69-.23l-1.628.773c-.407.088-.81.215-1.222.254-.27.026-.548-.07-.822-.114l-.012-.008c.054-.014.108-.025.163-.04" fill="#D3D3D3"/><path d="M28.73 27.995c-.347-.463-.693-.926-1.042-1.387.02-.035.038-.066.06-.1l.194.115c.086.12.16.254.26.365.574.674.758.678 1.406.076.354-.326.677-.717 1.268-.438.102.05.332-.17.502-.268.21.436.443.86.616 1.31.103.27-.05.396-.358.396-.38 0-.813-.027-1.132.135-.67.342-1.238.37-1.773-.205" fill="#DEDEDE"/><path d="M31.378 26.36c-.17.096-.4.316-.503.268-.59-.28-.914.11-1.266.438-.65.602-.833.598-1.41-.076-.096-.113-.172-.244-.257-.367.35.23.646.28.875-.18.137-.273.32-.535.534-.756.113-.12.33-.188.5-.188.238-.003.48.08.845.155l-.63-1.363 1.137 1.447.174.62" fill="#E7E7E7"/><path d="M30.395 22.12c.092.238.22.47.265.715.035.186 0 .406-.076.576-.026.062-.275.02-.424.024l-1.755-1.28c-.406-.263-.784-.59-1.224-.774-.493-.205-.635-.428-.307-.87.175-.095.352-.18.522-.28.213-.123.422-.258.632-.387l1.165-.006 2.108.057c.312.04.624.078.937.115.305.104.612.204.913.317.107.04.198.123.296.188-.096.064-.19.184-.288.188-.655.025-1.31.025-1.967.033-.515-.107-1.027-.234-1.547-.316-.46-.07-.93-.094-1.396-.14-.017.07-.032.138-.05.208.7.525 1.4 1.05 2.102 1.574.03.02.063.04.095.058" fill="#F9F9F9"/><path d="M30.068 24.294c.187.404.373.81.63 1.36-.367-.07-.607-.155-.846-.155-.17 0-.388.07-.5.185-.212.223-.397.484-.534.76-.23.46-.525.408-.875.178-.066-.037-.13-.076-.197-.113-.672-1.02-1.326-2.06-2.342-2.79.185-.007.386-.06.553-.007.79.252.944 1.09 1.45 1.61.203.208.45.374.677.56-.026-.264-.053-.527-.082-.79-.004-.036-.024-.07-.034-.106-.172-.686.18-1.062.85-.89.506.13.488-.18.475-.51.132.075.265.15.396.226.124.16.25.32.378.48" fill="#EEE"/><path d="M29.688 23.813l-.396-.227c-.75-.756-1.527-1.48-2.554-1.846-.166-.06-.458-.064-.558.037-.38.393-.705.838-1.05 1.264.227-.44.426-.9.688-1.32.242-.388.552-.735.833-1.1.07-.052.14-.103.206-.155l.017.04c-.33.446-.188.67.307.874.44.183.818.51 1.224.774.087.19.138.406.267.56.32.383.677.734 1.018 1.1" fill="#DFDFDF"/><path d="M31.795 36.85c.066.036.133.075.198.112-.354-.068-.707-.14-1.06-.21l-.85-.353-.985-.575c-.175-.23-.35-.46-.522-.693l3.22 1.717" fill="#C6C6C6"/><path d="M28.028 11.825c.094-.09.216-.166.277-.277.978-1.74 2.183-3.354 2.893-5.24.112-.3.177-.613.263-.922.076-.13.128-.283.232-.383.162-.156.36-.275.542-.41.124.2.334.39.354.594.043.44-.022.887-.022 1.33 0 .242.042.482.064.723-.228 2.04-.87 3.945-1.892 5.72-.43.75-.902 1.476-1.355 2.212-.06.096-.147.184-.178.287-.31 1.067-1.326 1.224-2.13 1.65-.05.026-.144-.026-.217-.042l-.05-.03-.05-.026c.723-.346 1.525-.584 1.87-1.426.238-.29.486-.572.714-.87 1.472-1.917 2.423-4.06 2.767-6.456.033-.232-.068-.484-.107-.73-.32.073-.75.042-.94.24-.832.862-1.52 1.84-1.902 2.997-.66.848-1.322 1.693-1.983 2.54-.253.216-.546.397-.753.65-.43.526-.813 1.09-1.217 1.636.428-1.145 1.065-2.135 2.08-2.855.196-.14.344-.344.514-.518l.228-.395" fill="#D2D2D2"/><path d="M25.657 17.56c.188-.023.377-.047.564-.072.445.01.89.02 1.473.03l-.384.597c-.652.58-.655.615-.123 1.117-1.028.307-1.774-.36-2.592-.768-.06-.03-.03-.236-.043-.36l.27-.237c.03.02.063.037.096.057l1.48.992.356-.824c-.377-.185-.737-.36-1.097-.532" fill="#ECECEC"/><path d="M28.2 17.698c-.19.338-.545.646-.193 1.08-.12.117-.237.234-.355.354-.047.014-.094.025-.14.04-.268-.31-.355-.64-.105-1.003l.792-.472" fill="#BCBCBC"/><path d="M27.408 18.17c-.25.364-.163.69.103 1.003l-.05.08-.27-.02c-.534-.503-.53-.538.12-1.118.033.017.065.036.098.054" fill="#D2D2D2"/><path d="M18.79 23.337l-.796.46c-.503.196-1.005.392-1.51.587l-3.006.633c-2.586.285-5.06-.057-7.366-1.328-.36-.214-.724-.427-1.084-.638l-.504-.477c.424.06.805.215 1.19.352.55.19 1.092.412 1.655.545 1.06.252 2.136.45 3.206.672.898.035 1.8.068 2.697.104.11-.023.22-.062.33-.07 1.357-.096 2.677-.33 3.876-1.025.626-.365 1.265-.71 1.897-1.062l.216.534-.803.713" fill="#F7F7F7"/><path d="M10.576 24.144c-1.07-.22-2.145-.42-3.206-.672-.563-.133-1.106-.354-1.654-.547-.387-.135-.768-.29-1.192-.35l.505.475c-.774-.484-1.546-.97-2.317-1.455l-.38-1.055c.036-.02.07-.037.106-.055l1.302.916c1.237.74 2.443 1.565 3.877 1.864 1.404.293 2.83.492 4.253.705.227.032.475-.075.714-.118l.096.055c-.196.086-.388.236-.59.25-.503.028-1.01-.006-1.517-.013" fill="#E7E7E7"/><path d="M13.38 35.74c-.015-.054-.028-.106-.04-.157l.75-.62c.418-.425.873-.82 1.25-1.28.845-1.03 1.652-2.098 2.475-3.148.415-.373.825-.748 1.245-1.115.55-.482 1.575-.36 2.017.234.51.688.52 1.283.03 1.992-.15.217-.32.422-.48.633-.22.224-.438.448-.655.673l-.463.13c.305-.278.6-.573.92-.83.487-.392.577-.915.492-1.474-.046-.298-.224-.538-.605-.343-.112.057-.242.082-.378.13-.058-.14-.104-.25-.14-.333-1.552.322-2.395 1.518-3.21 2.64-.52.722-.924 1.487-1.762 1.905-.127.06-.162.308-.24.47l-.854.56c-.12-.026-.236-.05-.354-.07" fill="#D2D2D2"/><path d="M14.586 35.25c.078-.163.114-.41.24-.472.838-.418 1.24-1.184 1.764-1.904.814-1.125 1.656-2.318 3.21-2.64l.138.33c.136-.046.266-.07.378-.128.382-.195.56.045.605.342.087.56-.005 1.082-.49 1.473-.322.26-.615.554-.92.83-.145.12-.283.245-.43.356l-1.92 1.455-.332.33-.195-.11.17-.3c.515-.36 1.03-.722 1.545-1.08.48-.493.992-.958 1.427-1.487.172-.21.176-.555.256-.84-.37-.04-.802-.22-1.103-.094-1.073.45-1.812 1.3-2.36 2.315-.468.49-.92.998-1.41 1.463-.128.12-.378.11-.57.16" fill="#BFBFBF"/><path d="M20.625 32.278c.16-.21.33-.416.48-.633.492-.71.48-1.303-.03-1.992-.44-.594-1.464-.717-2.017-.234-.42.366-.83.74-1.244 1.112.15-.262.304-.525.454-.79.443-.49.877-.987 1.334-1.464.226-.232.495-.424.744-.635.147.31.354.605.427.932.09.402.23.543.606.322.074.176.15.35.224.525-.004.084-.01.166-.013.25l.364 1.402c-.26.248-.515.5-.78.742-.174.163-.365.308-.55.462" fill="#E0E0E0"/><path d="M17.16 34.892c.64-.484 1.28-.967 1.92-1.455.146-.11.285-.236.43-.354.152-.045.307-.088.462-.13-.23.22-.442.464-.69.657-.504.395-1.02.775-1.55 1.133-.155.104-.378.102-.572.15" fill="#DFDFDF"/><path d="M21.955 31.075c-.12-.467-.242-.936-.364-1.402.112.193.224.39.334.584.182.46.36.918.542 1.375-.063.016-.13.03-.192.045l-.32-.602" fill="#B3B3B3"/><path d="M24.94 30.94c.018-.03.033-.062.05-.096.148-.057.305-.102.447-.174.136-.068.317-.14.376-.258.37-.768.36-.77 1.064-.33.096.06.196.113.294.17.084.125.15.268.25.375.875.912 1.926 1.662 2.517 2.832.147.292.383.542.578.813h-.002l-.354-.07c-.462-.54-.91-1.094-1.387-1.62-.516-.57-1.06-1.112-1.59-1.667l-.503-.38c-.092.15-.225.29-.27.452-.084.31-.226.455-.567.395-.132-.02-.282.06-.426.096-.157-.18-.316-.36-.476-.54" fill="#C1C1C1"/><path d="M27.77 28.757c.14.213.28.426.422.637l.17.62c-.343.33-.687.644-1.132.142-.32-.414-.615-.852-.974-1.227-.136-.142-.503-.26-.622-.18-.392.265-.75.597-1.05.962-.102.127.014.428.03.65-.065-.04-.132-.076-.198-.115l-.534-1.357c.302-.25.662-.457.89-.766.28-.38.442-.453.79-.135.292.267.586.528.88.792l.14.213c.144.195.265.414.437.58.145.143.353.22.534.328.06-.207.132-.412.173-.623.033-.17.03-.347.042-.523" fill="#D5D5D5"/><path d="M24.613 30.362c-.016-.223-.13-.523-.028-.65.298-.365.658-.697 1.05-.963.12-.08.486.038.62.18.36.374.654.81.974 1.226-.02.033-.038.066-.057.1-.098-.06-.198-.11-.294-.174-.707-.44-.697-.436-1.067.33-.058.12-.24.19-.376.262-.142.07-.298.115-.447.172-.127-.16-.252-.324-.377-.484" fill="#CCC"/><path d="M23.882 28.89l.535 1.36-.01.813c-.425-.115-.81-.22-1.193-.322-.195-.854-.842-1.16-1.608-1.317l-.225-.525c.15-.07.363-.24.44-.193.278.17.523.402.753.637.135.135.217.322.356.537.122-.177.188-.274.252-.364l.51.406.148-.074-.24-1.38c.094.138.188.28.282.422" fill="#E7E7E7"/><path d="M24.94 30.94l.48.54c.694.888 1.37 1.792 2.092 2.66.308.37.707.665 1.064.99.174.233.348.464.522.694-1.44-.8-2.423-2.05-3.318-3.38-.32-.472-.562-1-.84-1.504" fill="#D2D2D2"/><path d="M21.605 29.423c.767.158 1.414.463 1.607 1.318-.43-.16-.858-.32-1.29-.483l-.332-.586c.006-.08.01-.165.015-.247" fill="#E1E1E1"/><path d="M27.65 19.132l.356-.354 1.083-.564-.018.252c-.335.2-.67.396-1.004.596l-.417.07" fill="#6A6A6A"/><path d="M27.65 19.132l.42-.07c.147.44.365.088.554.047.434-.093.865-.19 1.3-.284-.35.15-.7.303-1.048.453-.092.075-.182.153-.272.23-.242.036-.482.073-.725.108-.303.064-.448-.05-.418-.365.016-.027.032-.055.05-.08.046-.016.092-.027.14-.04" fill="#ECECEC"/><path d="M30.698 5.343c.57.2.322.545.154.875-.077.193-.14.393-.233.576-.396.77-.79 1.54-1.21 2.295-.076.134-.27.206-.465.35-.02-.247-.03-.38-.046-.552-.172.127-.292.22-.41.307.32-.562.64-1.125.958-1.688l1.25-2.164" fill="#F2F2F2"/><path d="M31.1 2.812c.147.105.294.21.445.314.09.535-.046.977-.487 1.344-.21.174-.337.45-.5.68l-.444.512-.29-.164c.193-.355.396-.707.58-1.068.06-.12.11-.28.082-.402-.015-.06-.224-.104-.342-.098-.352.016-.702.06-1.054.096.375-.227.754-.45 1.126-.684.247-.154.485-.322.728-.484l.155-.046" fill="#EBEBEB"/><path d="M29.45 7.507l-.96 1.688c-.246.428-.52.84-.727 1.285-.105.23-.094.514-.135.773l.74-.023-.34.596c-.077.133-.152.264-.23.395-.246.132-.48.3-.74.38-.2.06-.434.006-.65.002.883-1.54 1.763-3.08 2.653-4.615.104-.177.26-.322.39-.48" fill="#E1E1E1"/><path d="M26.09 12.68L25 14.22c.05-.842.546-1.418 1.13-1.94.005-.005.084.07.13.11-.06.097-.116.195-.173.293" fill="#898989"/><path d="M24.092 16.396c.03.02.063.037.095.057l-.84 1.48-.376.184c-.115.12-.263.223-.34.363-.248.45-.448.375-.728.014-.145-.188-.406-.283-.614-.42l-.987-1.486.006-.002c.363.062.733.1 1.088.19.922.24.924.253.9 1.24l.294-.378c.686-.125 1.188-.48 1.445-1.145l.06-.097" fill="#EFEFEF"/><path d="M24.033 16.493c-.258.664-.76 1.02-1.445 1.145-.028-.723.666-1.272 1.445-1.145" fill="#F0F0F0"/><path d="M28.63 15.585c-.344.842-1.148 1.08-1.87 1.426l-.31.083c-.07-.03-.142-.057-.21-.09-.742-.346-1.015-1.07-.57-1.727.46-.686 1.002-1.316 1.51-1.97.66-.847 1.32-1.694 1.982-2.54.148-.127.337-.23.44-.385.328-.507.615-1.038.94-1.548.118-.182.3-.322.45-.482l.22.076c.018.338.047.674.047 1.012 0 .354-.07.715-.03 1.062.06.527-.057.967-.445 1.328.027-.707.063-1.416.078-2.125.006-.184-.052-.37-.08-.557-.158.105-.376.176-.467.322-.437.71-.84 1.438-1.255 2.158-.747.846-1.532 1.66-2.227 2.547-.35.445-.553 1.01-.79 1.533-.173.38.02.7.338.863.192.1.536.106.71-.003.49-.31.942-.69 1.38-1.076.095-.083.064-.31.092-.474.02-.03.036-.064.056-.096l.764-.875c.16-.13.32-.256.48-.383-.41.644-.822 1.284-1.233 1.923" fill="#C0C0C0"/><path d="M23.348 17.933l.84-1.48c.09-.115.18-.232.322-.42.272.635.685 1.158.312 1.834-.09.08-.18.158-.27.236-.23.176-.464.35-.695.525-.108.11-.217.22-.324.332l-.185-1.027" fill="#B1B1B1"/><path d="M25.657 17.56l1.097.53-.357.825c-.512-.344-.994-.668-1.48-.992.247-.12.494-.242.74-.363" fill="#FAFAFA"/><path d="M27.178 13.308c-.507.654-1.05 1.283-1.51 1.967-.442.658-.172 1.383.57 1.73.07.03.14.06.21.088-.418.307-.75.312-.97-.24-.074-.188-.232-.34-.35-.51-.19-.273-.188-.525.078-.75.403-.547.787-1.11 1.218-1.637.208-.252.5-.435.754-.648" fill="#CBCBCB"/><path d="M29.09 4.024c.35-.033.702-.08 1.055-.098.118-.004.327.04.34.1.03.12-.02.28-.082.402-.182.36-.386.713-.58 1.068-.077.13-.152.262-.23.393-.4.47-.8.94-1.202 1.41-.45.562-.878 1.14-1.36 1.675-.316.354-.718.543-1.223.28-.145-.073-.366-.04-.54-.005-.472.098-.704-.06-.64-.54.033-.265.157-.546.317-.765 1.142-1.557 2.52-2.87 4.146-3.92" fill="#F2F2F2"/><path d="M28.39 7.302c.402-.47.803-.94 1.204-1.412-.402.47-.802.94-1.203 1.412M28.368 11.23l-.74.022c.043-.26.03-.543.137-.773.206-.444.48-.858.725-1.286l.41-.307.046.55c.196-.142.39-.212.464-.35.42-.755.815-1.524 1.21-2.294.095-.184.156-.383.233-.576-.112.424-.147.887-.35 1.262-.68 1.267-1.418 2.5-2.135 3.75" fill="#EBEBEB"/><path d="M10.503 18.32c-.86.052-1.723.097-2.584.16-1.015.073-2.026.17-3.04.237-.13.01-.27-.09-.404-.14.062-.144.097-.31.192-.43.23-.272.488-.524.734-.786l.892-.405c1.04-.324 2.063-.715 3.12-.95.834-.183 1.708-.177 2.564-.255.732.29 1.484.54 2.19.88.632.304.647.786.037 1.126-.344.19-.772.264-1.173.318-.65.09-1.31.12-1.965.176-.187.022-.376.046-.564.07m-3.01-1.424l.04.195c.13.048.274.073.39.144.127.08.327.203.324.303-.016.482.33.445.62.47.3.02.605.01.906-.01.9-.067 1.803-.138 2.703-.226.463-.042.63-.554.448-.726-.435-.412-1-.87-1.552-.932-.84-.088-1.722.104-2.57.26-.453.084-.873.344-1.31.524" fill="#F3F3F3"/><path d="M10.503 18.32c.19-.024.377-.048.566-.07 1.21.222 2.407.255 3.632.007.63-.13 1.33-.102 1.964.03.34.07.615.503.9.792.115.116.18.284.268.43l-.234.395c-.015-.05-.028-.1-.044-.148-.1-.42-.26-.863-.725-.908-.75-.075-1.515-.036-2.273-.044-.78-.012-1.562-.023-2.344-.033-.424-.023-.848-.047-1.273-.068l-1.017-.06c.193-.11.387-.218.58-.326" fill="#E2E2E2"/><path d="M12.643 15.737c.02-.033.038-.066.057-.1 1.285.062 2.475.46 3.617 1.025-.125.027-.264.105-.37.074-1.105-.32-2.205-.663-3.304-1" fill="#EAEAEA"/><path d="M17.568 20.01l.18.105c-.537.842-1.49.348-2.225.666-.79.343-1.75.304-2.643.378-.782.064-1.574.115-2.354.064-.98-.062-1.95-.236-2.927-.363-.546-.185-1.097-.353-1.63-.562-.178-.07-.31-.252-.465-.383l.06-.092c1.93.047 3.86.105 5.792.137 1.93.03 3.857.033 5.786.047l.425.004" fill="#F8F8F8"/><path d="M7.6 20.858c.976.127 1.948.3 2.927.363.78.052 1.573 0 2.355-.063.89-.074 1.853-.035 2.64-.377.736-.318 1.69.176 2.227-.666l.145-.05c.12.19.237.382.355.575-.294.483-.78.454-1.253.48-.395.022-.79.048-1.183.097-.76.096-1.516.21-2.274.312-.67.09-1.342.177-2.014.265-.2-.04-.396-.102-.6-.123-.863-.094-1.728-.176-2.592-.262l-.79-.45.057-.102" fill="#E8E8E8"/><path d="M17.568 20.01c-.142 0-.282 0-.424-.003-.115-.1-.216-.254-.35-.295-.802-.254-1.576-.56-2.466-.494-1.52.115-3.05.135-4.575.17-.962.02-1.924 0-2.886-.002.088-.033.176-.088.266-.094 1.565-.098 3.13-.188 4.694-.29.112-.005.22-.083.328-.128l2.503-.006c1.028.092 2.033.262 2.896.89l.045.147c-.012.035-.022.07-.032.106" fill="#B4B4B4"/><path d="M18.174 19.845c.496-.742 1.095-1.324 2.066-1.322.183.102.354.225.547.3.355.142.453.37.298.714-.14.092-.278.186-.43.285.15.135.255.23.36.328-.02.03-.037.06-.054.09-.15-.064-.327-.096-.45-.195-.43-.354-.9-.39-1.41-.234-.307.01-.618.023-.926.035" fill="#EFEFEF"/><path d="M21.085 19.536c.156-.344.058-.572-.298-.713-.192-.076-.365-.2-.546-.3l-.735-.554c.25-.325.54-.628.38-1.108-.013-.04.27-.182.416-.275.33.496.66.99.988 1.486-.2.475.35.506.47.79-.028.25-.06.5-.087.74l-.585-.067" fill="#DBDBDB"/><path d="M18.174 19.845l.928-.035c.077.164.122.355.237.484.242.273.796.35.544.916-.273.285-.56.223-.842.023-.21-.148-.41-.31-.614-.465l-.178-.13-.355-.573c.092-.074.186-.146.28-.22" fill="#7C7C7C"/><path d="M23.6 28.466l.24 1.38c-.05.024-.098.05-.146.075-.165-.13-.33-.26-.51-.405-.064.09-.13.188-.254.363-.14-.215-.223-.4-.356-.537-.23-.233-.475-.466-.752-.636-.078-.047-.29.123-.44.193-.38.22-.517.08-.607-.322-.073-.326-.28-.62-.426-.93-.25.21-.52.4-.745.635-.458.475-.89.973-1.335 1.46-.467.384-.93.772-1.405 1.147-.23.182-.564.29-.702.52-.54.904-1.007 1.848-1.53 2.762-.063.112-.3.126-.454.187l.053-.102.112-.2.005.007 1.758-3.064c.016-.035.032-.068.05-.102l1.035-1.777c.265 0 .532.013.796-.007.143-.012.33-.037.41-.13.336-.4.683-.8.944-1.25.284-.487.455-1.04.722-1.54.27-.506.47-.508.91-.06-.355.306-.24.476.14.698.33.194.55.57.853.825.405.344.845.654 1.27.977.06-.027.116-.055.174-.084l-1.115-3.75c-.182.037-.387.102-.396.078-.2-.46-.567-.22-.882-.244-.29-.023-.57-.146-.854-.225l-.01-.035.248.008c.384-.014.792-.12 1.146-.023.873.236 1.668-.14 2.498-.217.167-.016.32-.176.48-.27.02-.025.04-.05.064-.07.028.016.057.033.084.055-.247.186-.478.402-.745.553-.25.14-.444.25-.204.547.638.793 1.272 1.59 1.924 2.37.132.16.332.26.5.39l.142-.127c-.156-.623-.314-1.244-.472-1.865.05-.02.1-.04.15-.062l.68 1.15c-.015.188-.067.386-.033.567.042.22.177.42.233.64.11.433-.02.642-.495.456-.12-.115-.253-.22-.363-.346-.294-.34-.563-.7-.873-1.025-.328-.346-.974-.383-1.406-.135-.454.262-.28.64-.206 1l.09.5" fill="#EBEBEB"/><path d="M14.177 34.354c.156-.06.39-.072.455-.186.522-.914.99-1.86 1.53-2.762.136-.23.472-.336.7-.52.476-.375.94-.764 1.406-1.145-.15.263-.303.526-.454.792-.822 1.05-1.63 2.117-2.476 3.148-.376.46-.83.855-1.25 1.28l.09-.606" fill="#E2E2E2"/><path d="M20.166 24.407c.284.078.564.2.854.225.315.023.682-.215.882.244.01.023.214-.04.395-.078l1.116 3.75-.175.086c-.426-.326-.864-.633-1.272-.98-.3-.255-.52-.63-.852-.823-.38-.222-.493-.392-.142-.698-.438-.45-.64-.445-.91.06-.265.5-.436 1.056-.72 1.544-.262.445-.607.848-.944 1.246-.08.094-.27.12-.41.13-.265.02-.53.007-.798.007.58-1.022 1.162-2.042 1.742-3.063.24-.408.458-.834.726-1.223.12-.177.335-.288.508-.427" fill="#F6F6F6"/><path d="M16.155 30.896l-.05.102-1.757 3.062-.007-.006c-.007-.135-.016-.27-.024-.404.49-1.006.973-2.014 1.473-3.014.18-.36.398-.703.6-1.053.272-.426.544-.852.815-1.28l.177.116-1.227 2.476" fill="#B2B2B2"/><path d="M16.39 29.583c-.2.352-.42.693-.6 1.055-.5 1-.983 2.006-1.474 3.012.245-.707.416-1.453.755-2.113.357-.694.873-1.306 1.32-1.954" fill="#C0C0C0"/><path d="M16.803 34.812l-.17.3c-.612.362-1.214.745-1.843 1.077-.258.136-.574.212-.865.22-.415.01-.704-.172-.545-.67.117.02.235.045.354.068.062.363.348.447.705.25.78-.428 1.574-.832 2.363-1.246" fill="#BDBDBD"/><path d="M19.595 22.622l-.217-.533-.344-.323c-.107-.19-.216-.385-.325-.576.214.15.408.374.645.437.73.193 1.1.613 1.09 1.35l-.532 1.143-.318-1.498" fill="#C6C6C6"/><path d="M19.913 24.118l.53-1.143.28-.494c0 .085-.003.17-.005.253l-.224.514.57.48-.434.552-.23.1c-.082 0-.165-.005-.247-.01-.078-.084-.16-.168-.24-.252" fill="#838383"/><path d="M28.604 19.51c.09-.077.18-.155.272-.23.204-.017.416 0 .61-.05 1.34-.35 2.693-.496 4.078-.348.312.033.634-.03.952-.047l1.102.37c-.69.028-1.384.087-2.074.08-.567-.007-1.133-.093-1.698-.142-.807.104-1.613.21-2.42.316-.102.03-.204.06-.307.093l-.516-.044" fill="#D3D3D3"/><path d="M37.492 22.118c.73-.303 1.457-.615 2.19-.908.223-.088.464-.13.732-.096-.966 1.258-2.398 1.682-3.76 2.232l-.68.053-.103-.224c.542-.353 1.082-.704 1.622-1.058" fill="#878787"/><path d="M37.492 22.118c-.54.354-1.08.705-1.62 1.06.035.07.07.147.104.222l.68-.053-.114.197c-.6.11-1.2.225-1.838.342-.02-.625.248-1.05.686-1.22.672-.257 1.398-.372 2.102-.548" fill="#919191"/><path d="M37.63 23.25c-.665.276-1.324.57-1.998.827-.435.164-.892.273-1.34.41-.064-.04-.13-.076-.197-.115l.114-.195 2.333-.633c0 .002 0 0 0 0l1.088-.295" fill="#B3B3B3"/><path d="M34.21 24.177c-.04.064-.077.13-.114.197l-.452-.13c.066-.417.09-.85.22-1.245.047-.142.348-.198.532-.294-.136.242-.292.48-.4.732-.125.288-.176.584.213.74" fill="#AFAFAF"/><path d="M30.3 22.062l-2.1-1.574c.016-.068.03-.14.05-.207.464.046.933.067 1.394.142.52.08 1.032.207 1.547.314.42.107.84.217 1.26.326-.02.03-.04.066-.058.1l-2.977-.404-.08.14c.204.233.412.462.61.696.125.15.237.31.355.468" fill="#E1E1E1"/><path d="M32.392 21.16c.02-.032.038-.065.058-.1.784-.08 1.566-.17 2.353-.237.522-.045 1.046-.072 1.57-.078.312-.004.624.053.936.082l-.27.242-.718.11-.354-.07c-.856.025-1.714.055-2.572.072-.335.006-.67-.013-1.004-.02" fill="#E0E0E0"/><path d="M33.644 24.245l.452.13.198.11c-.123.062-.245.12-.367.184-.054.01-.108.024-.163.038-.4-.457-.842-.885-1.186-1.38-.296-.433.102-1.01.607-1.085.574-.09 1.13-.29 1.7-.412.64-.138 1.286-.243 1.93-.364-.933.33-1.85.713-2.804.97-.71.192-.977.532-.69 1.218.084.206.214.394.324.59" fill="#B9B9B9"/><path d="M29.12 19.554c.102-.03.205-.062.307-.094.768-.043 1.536-.084 2.304-.125l.298.176c-.192.046-.394.07-.575.144-.07.03-.103.158-.152.24-.7-.02-1.404-.037-2.106-.057l-.074-.283" fill="#A5A5A5"/><path d="M31.73 19.335c-.768.04-1.536.084-2.304.125.806-.105 1.612-.21 2.418-.318-.037.066-.075.13-.114.193" fill="#C5C5C5"/><path d="M12.585 23.853c-.238.043-.486.15-.714.117-1.42-.213-2.846-.412-4.252-.705-1.434-.3-2.64-1.125-3.877-1.863-.176-.31-.368-.61-.524-.93-.063-.13-.12-.35-.057-.438.077-.107.31-.195.435-.158.336.104.646.287.975.422.445.182.898.344 1.35.516.668.21 1.336.418 2.006.627-.02.032-.04.065-.058.1-1.222-.315-2.444-.628-3.668-.942-.048.053-.097.105-.146.156.19.232.36.49.58.69.19.175.434.302.67.415.898.433 1.785.905 2.717 1.26.45.17.987.104 1.484.147.895.117 1.79.236 2.684.354l.397.233" fill="#CFCFCF"/><path d="M12.155 18.874c-.108.045-.216.123-.326.13-1.566.1-3.132.19-4.695.288-.09.006-.18.06-.267.094-.412.053-.826.098-1.234.166-.037.006-.045.178-.066.27l-.06.093-.25-.006-.44-.253c.493-.217.897-.393 1.303-.57.157-.04.313-.082.47-.123 1.416-.07 2.832-.143 4.25-.215.034-.003.066-.03.102-.046l1.273.068c-.022.034-.04.07-.06.102" fill="#CECECE"/><path d="M5.257 19.91c.084 0 .167.003.25.005.154.13.287.312.464.383.535.21 1.086.377 1.63.56-.018.034-.036.07-.056.103-.505-.114-1.01-.228-1.514-.34-.342-.146-.897-.058-.773-.71" fill="#EBEBEB"/><path d="M6.03 20.618c.504.113 1.01.23 1.514.342l.79.45-.41.03c-.668-.21-1.337-.418-2.005-.627.036-.066.073-.13.11-.195" fill="#DCDCDC"/><path d="M10.94 18.704c-.034.016-.068.043-.103.045-1.416.07-2.833.144-4.25.214 1.11-.107 2.224-.215 3.335-.32l1.018.06" fill="#D7D7D7"/><path d="M28.576 35.134c-.357-.33-.757-.623-1.064-.994-.72-.867-1.397-1.77-2.093-2.66.143-.035.293-.117.426-.096.34.06.482-.084.566-.395.045-.163.178-.302.27-.452l.504.38c-1.132.07-.013.886-.373 1.124l1.96 2.7c.526-.17.744.126.984.558.16.287.556.44.847.656.022-.04.045-.078.068-.117l-.512-1.636.354.07c.498.873.828 1.865 1.854 2.357-.032.042-.064.08-.097.118l-.476.1c-1.07-.572-2.145-1.144-3.218-1.714" fill="#B9B9B9"/><path d="M27.173 30.253l.057-.098c.444.502.79.19 1.13-.14.374.513.74 1.032 1.125 1.536.08.106.233.16.354.237l.894 1.424c.128.204.275.396.376.61.085.18.117.385.172.578-.19-.006-.38-.004-.568-.023-.068-.008-.132-.066-.196-.102-.195-.27-.43-.52-.578-.814-.59-1.17-1.64-1.92-2.515-2.833-.105-.106-.17-.247-.252-.374" fill="#CECECE"/><path d="M30.733 33.212l-.896-1.424c-.38-.705-.763-1.41-1.144-2.113.16.03.39 0 .47.096.62.73 1.28 1.435 1.528 2.405.058.227.194.436.314.64.202.34.1.456-.27.397" fill="#B0B0B0"/><path d="M28.693 29.675l1.145 2.113c-.12-.078-.272-.13-.354-.236-.386-.504-.752-1.023-1.124-1.537l-.168-.62.21-.142c.097.14.194.28.29.422" fill="#D9D9D9"/><path d="M25.404 23.718c1.016.732 1.67 1.77 2.342 2.79-.02.032-.038.067-.058.1-.374-.42-.734-.854-1.13-1.255-.24-.242-.534-.43-.805-.643l-.906-.908c.048-.102.097-.203.145-.307l.412.223" fill="#DCDCDC"/><path d="M26.355 28.472c.478.186.605-.023.494-.46-.057-.216-.19-.417-.23-.636-.035-.182.017-.38.03-.568l.938 1.58c-.088.098-.23.184-.256.297-.112.47-.35.572-.752.31-.047-.07-.095-.14-.142-.212-.026-.104-.054-.208-.083-.31" fill="#E3E3E3"/><path d="M24.992 23.495l-.146.307c-.057.018-.114.033-.17.053-.028-.02-.056-.04-.085-.055-.004-.02-.01-.037-.014-.055.01-.16.062-.332.017-.475-.067-.205-.204-.39-.312-.58.04-.14.105-.28.112-.42.026-.537.154-.63.665-.488.09.025.203-.04.306-.062l.212-.14c-.112.173-.188.403-.346.51-.502.343-.442.774-.276 1.245l.038.16z" fill="#A4A4A4"/><path d="M26.58 28.995c.404.262.64.158.753-.31.027-.114.168-.2.256-.296l.18.366c-.015.176-.01.354-.043.523-.042.21-.115.415-.175.622-.18-.107-.387-.188-.534-.328-.173-.163-.293-.384-.437-.58" fill="#D9D9D9"/><path d="M23.857 18.628c.232-.176.463-.352.695-.525.012.125-.016.332.043.36.817.407 1.564 1.075 2.592.77l.274.02c-.03.314.117.428.418.365.05.074.1.148.148.225-.21.13-.42.262-.633.387-.17.1-.347.186-.52.277l-.017-.04c.196-.165.393-.327.588-.49-.024-.056-.05-.11-.073-.165l-1.034-.05-.87-.09c-.508-.077-1.02-.177-1.427.276l-.38-.508c.02-.037.04-.074.058-.113l.676.137c-.21-.332-.374-.584-.537-.836" fill="#DEDEDE"/><path d="M28.027 19.843c-.05-.074-.1-.15-.148-.225.24-.037.482-.072.724-.107.172.015.344.028.516.044l.073.283-1.166.006" fill="#C5C5C5"/><path d="M24.992 23.495l-.037-.16.176-.293c.347-.426.672-.87 1.052-1.264.098-.102.39-.096.556-.037 1.027.366 1.805 1.09 2.555 1.847.013.326.03.64-.474.508-.67-.174-1.023.205-.852.89.01.038.03.073.035.108l.082.79c-.23-.187-.476-.353-.68-.562-.504-.52-.658-1.356-1.448-1.608-.166-.053-.367 0-.553.004-.137-.072-.274-.147-.412-.22" fill="#FAFAFA"/><path d="M26.338 19.763c.345.016.69.03 1.035.05l.074.163-.59.49c-.067.05-.137.104-.206.154l-.804.727.234-.488c-.3.183-.52.32-.743.458-.297-.184-.35-.35-.034-.598.368-.29.692-.637 1.035-.957" fill="#898989"/><path d="M25.847 21.347l.806-.725c-.28.365-.59.71-.833 1.1-.263.42-.462.877-.688 1.32l-.177.293c-.166-.47-.224-.902.277-1.244.157-.106.232-.337.345-.51l.27-.233" fill="#BCBCBC"/><path d="M28.63 15.585l1.23-1.92.924-1.836c.39-.362.504-.802.444-1.33-.04-.347.03-.708.03-1.06 0-.34-.03-.675-.046-1.013l-.22-.076c-.152.16-.333.302-.45.483-.326.51-.613 1.04-.942 1.55-.103.155-.29.257-.44.384.383-1.16 1.07-2.135 1.903-2.998.19-.198.62-.167.94-.24.04.243.14.497.106.73-.346 2.396-1.296 4.54-2.767 6.454-.228.3-.475.582-.714.87" fill="#C5C5C5"/><path d="M19.035 21.767l.344.322c-.634.353-1.272.696-1.9 1.06-1.2.696-2.518.93-3.876 1.026-.11.008-.22.047-.33.07l-.336-.324.058-.098c.968.22 1.89-.082 2.806-.3.4-.097.752-.392 1.126-.595.31-.163.623-.317.928-.485.396-.22.786-.452 1.18-.678" fill="#E7E7E7"/><path d="M12.938 23.923l.338.324c-.9-.035-1.8-.068-2.7-.104.507.008 1.014.04 1.52.014.198-.014.39-.164.587-.25.085.004.17.01.255.016" fill="#EBEBEB"/><path d="M12.938 23.923c-.085-.006-.17-.012-.256-.016-.032-.02-.064-.037-.097-.055l-.397-.23c.236-.047.473-.102.71-.14.59-.095 1.178-.183 1.766-.274.256 0 .522.043.766-.014.49-.11.97-.28 1.455-.424-.02.033-.037.068-.057.102-.273.115-.54.273-.825.338-1 .223-2.004.414-3.007.617-.02.03-.04.063-.058.096" fill="#C7C7C7"/><path d="M16.803 34.812c-.79.414-1.584.818-2.364 1.246-.358.197-.645.113-.706-.25l.853-.56c.194-.05.444-.04.57-.16.49-.464.942-.972 1.41-1.462.157-.13.344-.234.47-.39.643-.784 1.325-1.446 2.427-1.013l-1.116 1.506-1.545 1.082z" fill="#A9A9A9"/><path d="M18.347 33.73c.375-.507.75-1.01 1.117-1.507-1.103-.434-1.785.23-2.427 1.014-.126.154-.313.26-.472.39.55-1.017 1.29-1.866 2.36-2.317.302-.127.733.055 1.105.094-.08.285-.083.63-.255.84-.436.528-.947.993-1.428 1.485" fill="#B5B5B5"/><path d="M30.16 34.204l.51 1.635c-.02.038-.044.077-.066.116-.29-.215-.688-.37-.848-.656-.24-.432-.458-.73-.982-.56-.66-.905-1.296-1.782-1.96-2.696.358-.242-.76-1.057.372-1.125.53.552 1.073 1.095 1.59 1.663.475.527.923 1.08 1.384 1.62" fill="#B1B1B1"/><path d="M26.355 28.472l.084.31c-.293-.263-.587-.526-.88-.792-.348-.318-.51-.244-.79.137-.226.307-.588.514-.89.764-.093-.14-.187-.28-.28-.423-.032-.166-.06-.334-.095-.5-.073-.36-.248-.738.206-1 .435-.248 1.08-.21 1.41.135.308.324.577.688.872 1.025.11.124.24.23.363.345" fill="#DEDEDE"/><path d="M21.76 18.864c-.122-.285-.67-.316-.472-.79.208.136.47.23.613.42.28.362.482.435.73-.015.077-.142.225-.243.34-.364l-.058.38c-.568.814-.674.847-1.153.368" fill="#B9B9B9"/><path d="M22.912 18.497c.02-.127.04-.254.058-.38.126-.062.252-.122.378-.185l.185 1.027.187.366-.056.113-.792.21.023-.598c.006-.184.01-.37.017-.555" fill="#DCDCDC"/><path d="M28.562 15.02c-.027.16.003.39-.093.474-.438.387-.89.766-1.38 1.076-.174.11-.518.102-.71.002-.316-.162-.51-.482-.338-.863.238-.524.44-1.09.79-1.534.695-.885 1.48-1.7 2.23-2.545.306-.145.61-.29 1.057-.5-.343 1.05-.104 2.08-.738 2.92-.255.29-.51.583-.764.874.52-.553.698-1.203.596-1.955-.044-.325-.19-.538-.447-.274-.814.834-1.843 1.504-2.156 2.748-.11.45.005.576.448.576.735-.003 1.022-.64 1.504-1" fill="#ADADAD"/><path d="M28.562 15.02c-.48.36-.77.997-1.505 1-.443 0-.56-.126-.447-.577.313-1.244 1.342-1.914 2.156-2.748.257-.264.403-.05.447.273.103.752-.075 1.402-.596 1.955l-.055.096" fill="#9E9E9E"/><path d="M29.38 14.046c.636-.838.397-1.87.738-2.918l-1.058.5c.415-.72.818-1.45 1.255-2.158.092-.146.308-.217.467-.322.028.186.085.373.08.557-.016.71-.05 1.418-.078 2.125l-.922 1.836-.48.38" fill="#B4B4B4"/><path d="M23.72 19.327l-.188-.367c.108-.11.217-.22.325-.332l.538.836c-.287-.06-.482-.098-.675-.137" fill="#EEE"/><path d="M7.493 16.896c.436-.18.855-.44 1.31-.523.85-.156 1.73-.348 2.57-.26.553.06 1.117.52 1.552.932.183.172.015.684-.448.727-.9.088-1.802.158-2.703.225-.3.02-.606.03-.906.01-.29-.023-.636.014-.62-.47.003-.1-.197-.222-.324-.302-.115-.07-.26-.096-.39-.143l-.04-.196" fill="#F9F9F9"/><path d="M17.556 19.757c-.864-.627-1.868-.797-2.896-.89l-.103-.06c.76.007 1.522-.032 2.275.042.465.044.626.487.724.907" fill="#D1D1D1"/><path d="M14.558 18.806c.034.02.067.043.102.062l-2.504.006c.02-.033.04-.068.058-.102.78.01 1.562.022 2.344.034" fill="#CBCBCB"/><path d="M5.567 19.823c.02-.094.03-.264.066-.27.408-.072.82-.117 1.233-.168.963.002 1.925.023 2.887.002 1.526-.035 3.055-.053 4.575-.17.89-.068 1.664.24 2.466.494.135.044.234.194.35.298-1.93-.016-3.858-.018-5.786-.05-1.93-.03-3.86-.088-5.79-.135" fill="#9F9F9F"/><path d="M16.827 22.872c.02-.033.037-.068.057-.102l.48-.38c.328-.02.595-.157.49-.513-.03-.104-.398-.146-.612-.15-.538-.008-1.077.033-1.615.03-.506 0-1.012-.054-1.516-.038-.828.024-1.655.09-2.483.136l-.1-.06c.67-.09 1.342-.175 2.014-.267.76-.103 1.516-.218 2.274-.313.392-.05.788-.076 1.183-.098.473-.026.96.003 1.252-.483l.178.13c.094.14.188.282.28.423.11.193.22.385.326.576-.393.23-.783.46-1.18.68-.304.168-.618.322-.928.484-.032-.02-.066-.038-.1-.058" fill="#D0D0D0"/><path d="M11.526 21.796l.102.06c-.377.048-.756.093-1.133.138l-.92-.002c-.568-.152-1.138-.303-1.707-.453l.057-.1c.137-.01.273-.02.41-.028.863.086 1.73.168 2.593.262.202.02.398.08.598.122" fill="#CBCBCB"/><path d="M22.912 18.497c-.006.186-.01.37-.018.557l-.023.598-.16.533c-.336-.21-.67-.434-1.038-.062-.22.008-.438.018-.657.027-.104-.096-.21-.19-.357-.328.15-.1.29-.19.428-.285l.586.068c.028-.24.06-.49.087-.74.48.478.584.445 1.152-.368" fill="#F0F0F0"/><path d="M19.884 21.21c.252-.566-.302-.643-.545-.916-.115-.13-.16-.32-.237-.484.508-.154.98-.12 1.41.234.12.1.298.133.448.195.027.104.055.208.08.31l-1.156.66" fill="#6C6C6C"/><path d="M21.04 20.552c-.025-.104-.052-.21-.08-.312.02-.03.036-.06.055-.09.22-.01.438-.02.656-.027l-.23.672c-.238.234-.164.422.086.582l-.324.068-.162-.893" fill="#D3D3D3"/><path d="M21.04 20.552l.16.893-.475 1.037-.282.492c.01-.734-.36-1.154-1.088-1.348-.237-.062-.433-.285-.646-.436-.096-.14-.19-.28-.284-.422.204.154.404.316.614.465.283.2.57.262.843-.023l1.157-.658" fill="#AEAEAE"/><path d="M24.592 23.8c-.022.02-.045.045-.064.07l-3.805.436c.475-.203.95-.404 1.423-.607l.467-.16 1.865.16c.033.017.066.03.1.046l.014.054" fill="#A0A0A0"/><path d="M20.723 24.306l3.804-.436c-.16.094-.312.254-.48.27-.83.078-1.624.453-2.497.217-.354-.096-.763.01-1.146.023l.23-.102c.027.01.057.02.09.028" fill="#CDCDCD"/><path d="M14.348 34.06l1.757-3.062c-.586 1.02-1.17 2.042-1.757 3.062" fill="#E2E2E2"/><path d="M24.48 23.698l-1.867-.158c.26-.467.166-1.037-.25-1.283l.074.682-.31.08c-.47-.093-.938-.19-1.41-.284l.01-.254c.156-.346.315-.69.475-1.037l.324-.068c.287-.06.574-.12.86-.178.32.21.647.41.957.638.216.156.406.348.608.523-.01.74-.645.26-1.036.563.25.143.454.275.67.38.294.143.597.264.895.395" fill="#626262"/><path d="M20.72 22.735c.47.094.937.19 1.408.285l-1.062.705-.57-.48.223-.51" fill="#6D6D6D"/><path d="M21.065 23.726l1.062-.705c.103-.026.205-.054.31-.08-.1.253-.194.505-.29.757l-1.426.61c-.028-.01-.06-.02-.09-.028l.435-.554" fill="#616161"/><path d="M14.663 23.208c-.588.092-1.177.18-1.765.273-.238.04-.474.095-.71.142l-2.684-.357c-.637-.188-1.272-.38-1.907-.568-.353-.365-.015-.346.206-.342.84.014 1.682.057 2.522.06.307 0 .612-.08.918-.122 1.027-.11 2.056-.22 3.082-.332.452.13.904.257 1.356.386-.257.012-.515.033-.77.033-.503 0-1.005-.024-1.507-.015-.385.006-.778.01-1.154.084-.344.067-.673.218-.99.366-.035.018 0 .355.08.4.13.072.327.03.494.023l2.886-.134c-.02.034-.037.07-.057.102" fill="#ACACAC"/><path d="M7.597 22.696l1.907.57c-.497-.043-1.034.02-1.483-.148-.93-.354-1.817-.826-2.716-1.26-.236-.113-.478-.24-.67-.414-.22-.2-.39-.457-.58-.69.05-.052.098-.105.146-.157l3.67.94 1.708.454c-1.016.07-2.018.054-2.975-.378-.164-.074-.38-.037-.57-.05.076.19.1.476.242.556.415.236.878.393 1.322.578" fill="#BEBEBE"/><path d="M23.95 22.36c-.2-.176-.392-.367-.607-.523-.31-.227-.637-.428-.957-.64l.8.435c.13-.096.298-.168.38-.295.114-.182.167-.404.246-.61l.764.542c.133.075.266.15.4.228.13.074.26.15.39.223-.104.024-.218.09-.307.063-.513-.143-.64-.05-.666.488-.007.142-.072.28-.11.42l-.333-.33" fill="#919191"/><path d="M23.95 22.36l.332.33c.106.19.245.375.31.582.047.14-.006.312-.015.473-.034-.014-.066-.03-.1-.047-.298-.13-.6-.252-.893-.395-.217-.105-.42-.236-.67-.38.39-.305 1.026.176 1.037-.563" fill="#6E6E6E"/><path d="M25.364 21.72c-.13-.074-.26-.148-.39-.22.12-.063.243-.122.364-.183l.74-.46-.232.49c-.09.077-.18.155-.27.23-.07.05-.14.096-.212.143" fill="#727272"/><path d="M25.338 21.317l-.363.18c-.133-.074-.267-.152-.4-.23.006-.073.043-.165.012-.22-.262-.45-.26-.754.353-.895.202-.047.354-.314.53-.482.29.03.58.06.868.092-.342.322-.667.666-1.033.957-.317.248-.265.414.033.597" fill="#797979"/><path d="M25.468 19.67c-.175.167-.327.437-.53.483-.612.14-.612.443-.352.895.03.055-.006.146-.01.22l-.766-.54c-.07-.18-.142-.36-.214-.537l.443-.24c.406-.455.92-.355 1.428-.28" fill="#6F6F6F"/><path d="M24.04 19.948c-.147.08-.295.16-.442.242l-.905.006.017-.012.162-.533c.265-.07.527-.14.79-.208l.378.506" fill="#E4E4E4"/><path d="M16.827 22.872l.1.06c-.374.202-.727.497-1.126.593-.915.22-1.837.52-2.806.303 1.004-.203 2.01-.395 3.008-.617.286-.064.552-.223.825-.338" fill="#D8D8D8"/><path d="M15.683 22.345c-.452-.127-.904-.256-1.356-.385.278.004.558 0 .835.012.554.025 1.108.035 1.656.104.192.025.365.205.546.314l-.48.38c-.483.146-.964.312-1.454.425-.243.057-.51.012-.766.014.02-.034.038-.07.058-.103.794-.018 1.605-.346 1.79-.754l-.83-.008" fill="#B3B3B3"/><path d="M17.363 22.39c-.18-.11-.354-.29-.546-.312-.548-.07-1.104-.08-1.656-.105-.277-.012-.556-.008-.833-.012l-3.082.333c-.25-.098-.5-.2-.75-.3.378-.044.755-.09 1.133-.136.827-.05 1.654-.11 2.482-.14.505-.013 1.012.042 1.517.042.54 0 1.077-.042 1.615-.032.215.004.58.047.612.15.106.357-.162.494-.49.512" fill="#BFBFBF"/><path d="M10.496 21.993c.25.102.498.2.748.3-.306.042-.61.12-.918.12-.84-.004-1.682-.045-2.522-.06-.22 0-.56-.024-.207.343-.443-.186-.906-.342-1.322-.578-.14-.08-.166-.365-.244-.557.193.015.408-.022.573.052.956.432 1.958.447 2.974.38h.92" fill="#B3B3B3"/><path d="M21.438 20.794l.234-.674c.37-.37.703-.145 1.037.064l-.017.012c-.018.037-.033.074-.05.11-.468-.002-.953-.04-1.205.488" fill="#AFAFAF"/><path d="M21.438 20.794c.253-.53.737-.49 1.206-.488.2.285.43.557.592.863.06.112-.028.306-.05.462-.266-.145-.532-.29-.8-.434-.287.06-.574.12-.86.178-.25-.16-.324-.348-.088-.582" fill="#E7E7E7"/><path d="M22.146 23.698c.097-.254.192-.508.29-.76-.024-.217-.05-.432-.075-.68.418.244.51.814.252 1.28-.155.055-.31.108-.466.16" fill="#535353"/><path d="M15.683 22.345l.828.008c-.184.408-.995.736-1.79.754-.96.045-1.922.09-2.885.13-.167.01-.363.052-.493-.02-.082-.045-.116-.385-.082-.4.318-.15.647-.3.99-.367.376-.074.77-.078 1.154-.086.502-.008 1.004.016 1.506.016.257-.002.516-.024.773-.035" fill="#A7A7A7"/><path d="M23.187 21.632c.02-.156.108-.35.048-.463-.163-.306-.39-.58-.59-.864l.048-.107c.302-.005.603-.007.905-.01.07.18.143.358.214.538-.08.205-.132.428-.247.61-.082.126-.25.198-.378.294" fill="#D4D4D4"/></svg>