<svg xmlns="http://www.w3.org/2000/svg" width="41.009" height="42.585" viewBox="0 0 41.009 42.585"><path d="M1.664 29.188L3.8 9.7l17.94-7.894 15.81 11.59-2.134 19.487-17.94 7.896L1.663 29.187zm.668-20.56L0 29.917l17.275 12.667 19.606-8.628 2.33-21.293L21.94 0 2.332 8.627z" fill="#00B8B0"/><path fill="#00B8B0" d="M3.604 8.59L22.12 25.96l-1.08 1.147L2.527 9.737z"/><path fill="#00B8B0" d="M30.986 7.737l1.38.755-10.09 18.42-1.38-.756zM14.922 20l.822 1.342-14.5 8.88L.42 28.88z"/><path fill="#00B8B0" d="M21.044.896l1.574.015-.238 25.632-1.574-.015z"/><path fill="#00B8B0" d="M20.823 26.322l1.516.42-4.205 15.152-1.517-.42z"/><path fill="#00B8B0" d="M21.92 25.82l14.564 6.886-.673 1.423-14.563-6.887zM19.39 31.034l.433 1.512L8.515 35.78l-.432-1.51zM37.712 17.074l.284 1.55-12.304 2.258-.284-1.548z"/></svg>