<?xml version="1.0" standalone="no"?>
<!DOCTYPE svg PUBLIC "-//W3C//DTD SVG 20010904//EN"
 "http://www.w3.org/TR/2001/REC-SVG-20010904/DTD/svg10.dtd">
<svg version="1.0" xmlns="http://www.w3.org/2000/svg"
 width="700.000000pt" height="700.000000pt" viewBox="0 0 700.000000 700.000000"
 preserveAspectRatio="xMidYMid meet">
<metadata>
Created by potrace 1.11, written by Peter Selinger 2001-2013
</metadata>
<g transform="translate(0.000000,700.000000) scale(0.100000,-0.100000)"
fill="#000000" stroke="none">
<path d="M482 3485 l0 -3105 421 -2 c232 -2 492 -1 577 2 l155 5 -1 1635 c-1
899 -4 1644 -7 1655 -2 11 -8 45 -12 75 -4 30 -9 62 -10 70 -1 8 -6 40 -10 70
-4 30 -17 125 -30 210 -14 85 -27 178 -30 205 -3 28 -8 59 -10 71 -3 12 -7 36
-9 55 -3 19 -10 70 -16 114 -12 87 -14 99 -29 195 -15 88 -14 90 12 90 19 0
27 -14 56 -88 32 -81 239 -606 318 -805 23 -60 192 -351 524 -905 269 -449
493 -824 498 -832 68 -110 360 -597 373 -621 9 -17 22 -37 28 -43 7 -7 78 -11
205 -12 l193 -1 51 91 c28 50 65 116 82 146 17 30 48 84 69 120 21 36 47 82
59 103 12 21 159 280 328 575 169 295 317 555 329 577 12 22 108 191 213 375
105 184 200 360 211 390 11 30 24 64 29 75 5 11 19 47 31 80 13 33 29 74 35
90 7 17 38 98 69 180 31 83 61 159 66 170 4 11 36 92 70 181 54 142 64 160 83
159 26 -2 29 -30 16 -135 -4 -36 -10 -94 -14 -130 -3 -36 -8 -76 -10 -90 -2
-14 -7 -59 -10 -100 -4 -41 -8 -77 -10 -80 -1 -3 -6 -45 -10 -95 -4 -49 -8
-92 -10 -95 -1 -3 -6 -41 -9 -85 -4 -44 -9 -87 -11 -95 -2 -8 -6 -50 -10 -92
-3 -42 -9 -87 -13 -100 -3 -13 -8 -773 -9 -1690 l-4 -1668 573 -2 c315 -2 589
-1 608 2 l35 5 0 3103 1 3102 -551 0 -550 0 -17 -30 c-10 -17 -36 -65 -59
-108 -23 -42 -51 -93 -62 -112 -11 -19 -31 -55 -45 -80 -13 -25 -32 -58 -42
-75 -10 -16 -30 -52 -45 -80 -15 -27 -163 -293 -328 -590 -165 -297 -305 -549
-311 -560 -6 -11 -17 -28 -25 -37 -8 -10 -11 -18 -6 -18 4 0 2 -6 -4 -14 -11
-13 -286 -503 -369 -656 -19 -36 -51 -94 -72 -130 -20 -36 -50 -87 -65 -115
-15 -27 -48 -86 -72 -130 -37 -66 -126 -295 -305 -787 -24 -66 -39 -41 -182
310 -124 302 -183 423 -296 612 -22 37 -145 248 -163 280 -10 19 -42 73 -70
120 -28 46 -60 101 -71 122 -12 20 -136 233 -276 473 -311 531 -286 489 -307
524 -20 32 -135 230 -172 295 -13 22 -29 50 -35 61 -13 23 -152 258 -272 462
-46 78 -84 144 -84 147 0 3 -16 30 -35 61 l-36 55 -553 0 -554 0 0 -3105z"/>
</g>
</svg>
