<svg version="1" xmlns="http://www.w3.org/2000/svg" width="933.333" height="933.333" viewBox="0 0 700.000000 700.000000"><path d="M48.2 351.5V662l42.1.2c23.2.2 49.2.1 57.7-.2l15.5-.5-.1-163.5c-.1-89.9-.4-164.4-.7-165.5-.2-1.1-.8-4.5-1.2-7.5-.4-3-.9-6.2-1-7-.1-.8-.6-4-1-7s-1.7-12.5-3-21c-1.4-8.5-2.7-17.8-3-20.5-.3-2.8-.8-5.9-1-7.1-.3-1.2-.7-3.6-.9-5.5-.3-1.9-1-7-1.6-11.4-1.2-8.7-1.4-9.9-2.9-19.5-1.5-8.8-1.4-9 1.2-9 1.9 0 2.7 1.4 5.6 8.8 3.2 8.1 23.9 60.6 31.8 80.5 2.3 6 19.2 35.1 52.4 90.5 26.9 44.9 49.3 82.4 49.8 83.2 6.8 11 36 59.7 37.3 62.1.9 1.7 2.2 3.7 2.8 4.3.7.7 7.8 1.1 20.5 1.2l19.3.1 5.1-9.1c2.8-5 6.5-11.6 8.2-14.6 1.7-3 4.8-8.4 6.9-12 2.1-3.6 4.7-8.2 5.9-10.3 1.2-2.1 15.9-28 32.8-57.5s31.7-55.5 32.9-57.7c1.2-2.2 10.8-19.1 21.3-37.5s20-36 21.1-39c1.1-3 2.4-6.4 2.9-7.5.5-1.1 1.9-4.7 3.1-8 1.3-3.3 2.9-7.4 3.5-9 .7-1.7 3.8-9.8 6.9-18 3.1-8.3 6.1-15.9 6.6-17 .4-1.1 3.6-9.2 7-18.1 5.4-14.2 6.4-16 8.3-15.9 2.6.2 2.9 3 1.6 13.5-.4 3.6-1 9.4-1.4 13-.3 3.6-.8 7.6-1 9-.2 1.4-.7 5.9-1 10-.4 4.1-.8 7.7-1 8-.1.3-.6 4.5-1 9.5-.4 4.9-.8 9.2-1 9.5-.1.3-.6 4.1-.9 8.5-.4 4.4-.9 8.7-1.1 9.5-.2.8-.6 5-1 9.2-.3 4.2-.9 8.7-1.3 10-.3 1.3-.8 77.3-.9 169l-.4 166.8 57.3.2c31.5.2 58.9.1 60.8-.2l3.5-.5V351.2l.1-310.2H541.5l-1.7 3c-1 1.7-3.6 6.5-5.9 10.8-2.3 4.2-5.1 9.3-6.2 11.2-1.1 1.9-3.1 5.5-4.5 8-1.3 2.5-3.2 5.8-4.2 7.5-1 1.6-3 5.2-4.5 8-1.5 2.7-16.3 29.3-32.8 59-16.5 29.7-30.5 54.9-31.1 56-.6 1.1-1.7 2.8-2.5 3.7-.8 1-1.1 1.8-.6 1.8.4 0 .2.6-.4 1.4-1.1 1.3-28.6 50.3-36.9 65.6-1.9 3.6-5.1 9.4-7.2 13-2 3.6-5 8.7-6.5 11.5-1.5 2.7-4.8 8.6-7.2 13-3.7 6.6-12.6 29.5-30.5 78.7-2.4 6.6-3.9 4.1-18.2-31-12.4-30.2-18.3-42.3-29.6-61.2-2.2-3.7-14.5-24.8-16.3-28-1-1.9-4.2-7.3-7-12-2.8-4.6-6-10.1-7.1-12.2-1.2-2-13.6-23.3-27.6-47.3-31.1-53.1-28.6-48.9-30.7-52.4-2-3.2-13.5-23-17.2-29.5-1.3-2.2-2.9-5-3.5-6.1-1.3-2.3-15.2-25.8-27.2-46.2-4.6-7.8-8.4-14.4-8.4-14.7 0-.3-1.6-3-3.5-6.1l-3.6-5.5H48.2v310.5z"/></svg>