<?xml version="1.0" encoding="utf-8"?>
<!-- Generator: Adobe Illustrator 16.0.0, SVG Export Plug-In . SVG Version: 6.00 Build 0)  -->
<!DOCTYPE svg PUBLIC "-//W3C//DTD SVG 1.1//EN" "http://www.w3.org/Graphics/SVG/1.1/DTD/svg11.dtd">
<svg version="1.1" id="Layer_1" xmlns="http://www.w3.org/2000/svg" xmlns:xlink="http://www.w3.org/1999/xlink" x="0px" y="0px"
	 width="67.365px" height="118.667px" viewBox="0 0 67.365 118.667" style="enable-background:new 0 0 67.365 118.667;"
	 xml:space="preserve">
<path style="fill:#1E1B1D;" d="M0.001,109.272c0.066-0.01,0.146-0.018,0.232-0.025c0.086-0.006,0.177-0.01,0.269-0.014
	c0.091-0.004,0.181-0.006,0.269-0.006c0.086-0.002,0.164-0.004,0.231-0.004c0.304,0,0.563,0.043,0.781,0.127
	c0.215,0.086,0.39,0.205,0.522,0.357c0.135,0.154,0.233,0.338,0.295,0.551c0.062,0.213,0.094,0.445,0.094,0.701
	c0,0.232-0.029,0.455-0.088,0.674c-0.06,0.217-0.157,0.406-0.295,0.572c-0.138,0.168-0.317,0.303-0.543,0.402
	c-0.224,0.102-0.5,0.152-0.832,0.152c-0.052,0-0.121,0-0.209-0.004c-0.086-0.006-0.176-0.01-0.269-0.014
	c-0.093-0.006-0.183-0.01-0.269-0.014c-0.084-0.006-0.148-0.012-0.19-0.02L0.001,109.272L0.001,109.272z M1.056,109.823
	c-0.072,0-0.146,0.002-0.219,0.004c-0.072,0.004-0.128,0.008-0.164,0.018v2.301c0.014,0.004,0.035,0.004,0.066,0.006
	c0.029,0.002,0.063,0.004,0.101,0.006c0.036,0.002,0.07,0.004,0.104,0.006c0.033,0,0.057,0,0.074,0c0.188,0,0.346-0.031,0.473-0.1
	c0.125-0.066,0.226-0.156,0.3-0.268c0.073-0.111,0.125-0.238,0.153-0.387c0.029-0.145,0.045-0.295,0.045-0.447
	c0-0.135-0.014-0.27-0.039-0.404c-0.026-0.137-0.074-0.26-0.146-0.367c-0.068-0.107-0.166-0.195-0.285-0.266
	C1.397,109.856,1.242,109.823,1.056,109.823"/>
<polygon style="fill:#1E1B1D;" points="5.14,109.272 7.176,109.272 7.176,109.872 5.812,109.872 5.812,110.671 7.053,110.671 
	7.053,111.271 5.812,111.271 5.812,112.108 7.198,112.108 7.198,112.708 5.14,112.708 "/>
<path style="fill:#1E1B1D;" d="M11.147,111.786c0-0.104-0.037-0.189-0.115-0.256c-0.077-0.066-0.174-0.125-0.289-0.178
	c-0.116-0.057-0.242-0.111-0.379-0.168c-0.135-0.059-0.262-0.127-0.377-0.211c-0.116-0.084-0.213-0.188-0.289-0.312
	c-0.077-0.123-0.116-0.281-0.116-0.475c0-0.166,0.028-0.312,0.084-0.436s0.135-0.225,0.237-0.307
	c0.104-0.082,0.225-0.145,0.367-0.182c0.139-0.039,0.297-0.061,0.471-0.061c0.199,0,0.387,0.018,0.562,0.051
	c0.176,0.035,0.322,0.084,0.438,0.15l-0.211,0.564c-0.071-0.047-0.18-0.088-0.323-0.125c-0.146-0.037-0.3-0.057-0.466-0.057
	c-0.158,0-0.278,0.031-0.361,0.092c-0.083,0.062-0.125,0.146-0.125,0.25c0,0.102,0.038,0.184,0.115,0.246
	c0.076,0.066,0.173,0.125,0.289,0.184c0.117,0.055,0.242,0.111,0.377,0.172c0.137,0.059,0.264,0.129,0.379,0.213
	s0.213,0.186,0.29,0.309c0.075,0.123,0.116,0.275,0.116,0.459c0,0.186-0.031,0.342-0.092,0.475
	c-0.062,0.133-0.146,0.242-0.256,0.332c-0.109,0.088-0.242,0.152-0.398,0.193c-0.154,0.043-0.324,0.066-0.512,0.066
	c-0.246,0-0.461-0.025-0.647-0.07s-0.324-0.09-0.413-0.137l0.217-0.574c0.035,0.021,0.082,0.041,0.141,0.064
	c0.057,0.021,0.121,0.043,0.192,0.062c0.073,0.02,0.147,0.035,0.229,0.049c0.08,0.014,0.162,0.02,0.246,0.02
	c0.201,0,0.354-0.033,0.459-0.102C11.094,112.026,11.147,111.923,11.147,111.786"/>
<rect x="14.297" y="109.274" style="fill:#1E1B1D;" width="0.675" height="3.434"/>
<path style="fill:#1E1B1D;" d="M18.804,110.917h1.28v1.531c-0.138,0.115-0.301,0.197-0.492,0.25
	c-0.192,0.053-0.381,0.078-0.567,0.078c-0.219,0-0.422-0.033-0.611-0.104c-0.188-0.068-0.35-0.176-0.488-0.32
	c-0.137-0.146-0.244-0.332-0.322-0.559c-0.078-0.225-0.119-0.492-0.119-0.805c0-0.324,0.049-0.6,0.142-0.826
	c0.094-0.227,0.215-0.414,0.369-0.555c0.151-0.143,0.321-0.246,0.512-0.311c0.188-0.062,0.384-0.096,0.578-0.096
	c0.196,0,0.369,0.016,0.519,0.043c0.149,0.031,0.27,0.062,0.356,0.096l-0.138,0.562c-0.082-0.033-0.174-0.057-0.276-0.076
	c-0.101-0.018-0.229-0.023-0.387-0.023c-0.142,0-0.271,0.02-0.388,0.061c-0.119,0.043-0.221,0.113-0.307,0.209
	c-0.088,0.096-0.154,0.221-0.201,0.371c-0.049,0.15-0.072,0.334-0.072,0.549c0,0.207,0.023,0.383,0.068,0.533
	c0.047,0.148,0.111,0.27,0.193,0.369c0.08,0.096,0.176,0.166,0.285,0.213c0.109,0.045,0.227,0.068,0.352,0.068
	c0.084,0,0.168-0.012,0.25-0.031c0.082-0.023,0.15-0.055,0.205-0.098v-0.646l-0.738-0.08v-0.404H18.804z"/>
<polygon style="fill:#1E1B1D;" points="23.397,110.917 23.126,110.376 23.103,110.376 23.181,110.917 23.181,112.708 
	22.543,112.708 22.543,109.247 23.033,109.247 24.334,111.079 24.594,111.604 24.618,111.604 24.54,111.079 24.54,109.272 
	25.179,109.272 25.179,112.733 24.688,112.733 "/>
<polygon style="fill:#1E1B1D;" points="2.665,116.815 2.739,116.134 2.71,116.134 2.498,116.685 1.769,117.964 1.553,117.964 
	0.78,116.679 0.563,116.134 0.54,116.134 0.64,116.812 0.64,118.599 0.001,118.599 0.001,115.163 0.614,115.163 1.532,116.731 
	1.694,117.126 1.713,117.126 1.86,116.724 2.729,115.163 3.338,115.163 3.338,118.599 2.665,118.599 "/>
<path style="fill:#1E1B1D;" d="M7.584,117.837H6.526l-0.26,0.762h-0.67l1.235-3.461h0.496l1.235,3.461H7.856L7.584,117.837z
	 M6.699,117.298h0.737l-0.256-0.768l-0.104-0.539H7.053l-0.104,0.545L6.699,117.298z"/>
<polygon style="fill:#1E1B1D;" points="11.679,116.808 11.405,116.267 11.382,116.267 11.46,116.808 11.46,118.599 10.823,118.599 
	10.823,115.138 11.313,115.138 12.614,116.97 12.874,117.493 12.897,117.493 12.819,116.97 12.819,115.161 13.458,115.161 
	13.458,118.622 12.967,118.622 "/>
<path style="fill:#1E1B1D;" d="M17.874,115.163h0.639v2.219c0,0.223-0.029,0.414-0.089,0.574s-0.141,0.293-0.243,0.396
	c-0.105,0.104-0.232,0.182-0.384,0.229c-0.151,0.051-0.315,0.074-0.496,0.074c-0.87,0-1.306-0.396-1.306-1.193v-2.301h0.673v2.17
	c0,0.133,0.013,0.248,0.036,0.34c0.023,0.096,0.062,0.17,0.115,0.227c0.052,0.059,0.117,0.1,0.195,0.123s0.17,0.037,0.275,0.037
	c0.205,0,0.354-0.059,0.445-0.172c0.092-0.115,0.138-0.301,0.138-0.555L17.874,115.163L17.874,115.163z"/>
<polygon style="fill:#1E1B1D;" points="21.051,115.163 23.087,115.163 23.087,115.761 21.724,115.761 21.724,116.61 22.979,116.61 
	22.979,117.208 21.724,117.208 21.724,118.599 21.051,118.599 "/>
<path style="fill:#1E1B1D;" d="M27.2,117.837h-1.057l-0.261,0.762h-0.672l1.237-3.461h0.494l1.238,3.461h-0.707L27.2,117.837z
	 M26.315,117.298h0.736l-0.256-0.768l-0.104-0.539h-0.024l-0.103,0.545L26.315,117.298z"/>
<path style="fill:#1E1B1D;" d="M32.612,118.458c-0.104,0.072-0.236,0.127-0.399,0.16c-0.162,0.031-0.327,0.049-0.498,0.049
	c-0.206,0-0.401-0.031-0.587-0.098c-0.186-0.062-0.348-0.166-0.488-0.307c-0.14-0.145-0.252-0.328-0.336-0.557
	s-0.125-0.502-0.125-0.828c0-0.336,0.047-0.617,0.141-0.846c0.094-0.227,0.215-0.41,0.363-0.551
	c0.147-0.139,0.313-0.236,0.498-0.299c0.184-0.061,0.366-0.092,0.549-0.092c0.196,0,0.362,0.014,0.498,0.039
	c0.137,0.027,0.248,0.059,0.338,0.094l-0.133,0.57c-0.076-0.037-0.166-0.062-0.268-0.078c-0.104-0.018-0.229-0.025-0.377-0.025
	c-0.271,0-0.489,0.098-0.654,0.291c-0.166,0.193-0.248,0.494-0.248,0.898c0,0.178,0.02,0.34,0.059,0.486s0.101,0.27,0.181,0.373
	c0.079,0.104,0.181,0.184,0.299,0.24c0.119,0.057,0.259,0.086,0.415,0.086c0.146,0,0.271-0.016,0.373-0.043
	c0.102-0.029,0.189-0.066,0.266-0.113L32.612,118.458z"/>
<polygon style="fill:#1E1B1D;" points="37.216,115.761 36.214,115.761 36.214,118.599 35.543,118.599 35.543,115.761 
	34.536,115.761 34.536,115.163 37.216,115.163 "/>
<path style="fill:#1E1B1D;" d="M41.392,115.163h0.639v2.219c0,0.223-0.028,0.414-0.088,0.574s-0.142,0.293-0.244,0.396
	c-0.105,0.104-0.232,0.182-0.383,0.229c-0.151,0.051-0.315,0.074-0.496,0.074c-0.871,0-1.307-0.396-1.307-1.193v-2.301h0.674v2.17
	c0,0.133,0.012,0.248,0.035,0.34c0.024,0.096,0.063,0.17,0.115,0.227c0.053,0.059,0.118,0.1,0.196,0.123
	c0.079,0.023,0.171,0.037,0.274,0.037c0.205,0,0.354-0.059,0.446-0.172c0.091-0.115,0.138-0.301,0.138-0.555V115.163L41.392,115.163
	z"/>
<path style="fill:#1E1B1D;" d="M44.567,115.196c0.076-0.012,0.156-0.023,0.244-0.037c0.086-0.012,0.172-0.02,0.26-0.027
	c0.087-0.006,0.171-0.01,0.252-0.014c0.082-0.004,0.158-0.006,0.228-0.006c0.159,0,0.317,0.016,0.474,0.045s0.293,0.08,0.416,0.152
	c0.123,0.07,0.222,0.17,0.295,0.297c0.074,0.125,0.111,0.283,0.111,0.473c0,0.281-0.066,0.512-0.197,0.689
	c-0.131,0.176-0.306,0.299-0.524,0.367l0.241,0.15l0.785,1.312h-0.776l-0.78-1.346l-0.354-0.062v1.408h-0.672v-3.402H44.567z
	 M45.601,115.712c-0.07,0-0.139,0.002-0.205,0.006c-0.067,0.004-0.119,0.01-0.154,0.02v0.996h0.285c0.187,0,0.334-0.043,0.447-0.127
	c0.109-0.086,0.166-0.227,0.166-0.422c0-0.148-0.046-0.264-0.139-0.348C45.91,115.755,45.774,115.712,45.601,115.712"/>
<polygon style="fill:#1E1B1D;" points="49.485,115.163 51.522,115.163 51.522,115.761 50.158,115.761 50.158,116.562 
	51.397,116.562 51.397,117.159 50.158,117.159 50.158,117.999 51.546,117.999 51.546,118.599 49.485,118.599 "/>
<polygon style="fill:#1E1B1D;" points="7.638,4.692 7.847,2.757 7.763,2.757 7.164,4.316 5.088,7.954 4.478,7.954 2.289,4.303 
	1.677,2.757 1.606,2.757 1.886,4.679 1.886,9.75 0.074,9.75 0.074,0 1.815,0 4.42,4.458 4.879,5.57 4.937,5.57 5.354,4.429 7.817,0 
	9.545,0 9.545,9.75 7.638,9.75 "/>
<path style="fill:#1E1B1D;" d="M27.422,7.7h-2.993l-0.74,2.159H21.78l3.511-9.819h1.407l3.51,9.819h-2.007L27.422,7.7z
	 M24.914,6.167h2.09L26.28,3.995l-0.293-1.532h-0.069l-0.293,1.546L24.914,6.167z"/>
<polygon style="fill:#1E1B1D;" points="45.772,4.791 43.058,0 45.356,0 46.86,2.812 47.194,3.803 47.517,2.812 49.088,0 51.163,0 
	48.351,4.693 51.304,9.75 49.033,9.75 47.319,6.741 46.944,5.71 46.581,6.741 44.854,9.75 42.778,9.75 "/>
<polygon style="fill:#1E1B1D;" points="0.074,22.068 10.127,22.068 10.127,25.023 3.394,25.023 3.394,29.213 9.594,29.213 
	9.594,32.168 3.394,32.168 3.394,39.023 0.074,39.023 "/>
<path style="fill:#1E1B1D;" d="M28.478,35.27h-5.207l-1.285,3.755h-3.318l6.104-17.077h2.446l6.104,17.077h-3.486L28.478,35.27z
	 M24.116,32.604h3.634l-1.259-3.779l-0.51-2.664H25.86l-0.508,2.688L24.116,32.604z"/>
<path style="fill:#1E1B1D;" d="M52.989,26.017c0,0.42-0.053,0.839-0.156,1.259c-0.105,0.42-0.277,0.803-0.521,1.151
	c-0.24,0.346-0.556,0.654-0.941,0.919c-0.391,0.268-0.857,0.467-1.406,0.595v0.144c0.484,0.081,0.945,0.219,1.38,0.413
	c0.438,0.193,0.816,0.46,1.14,0.799c0.324,0.339,0.578,0.75,0.765,1.235c0.185,0.484,0.278,1.059,0.278,1.721
	c0,0.871-0.188,1.626-0.56,2.264c-0.37,0.639-0.868,1.159-1.489,1.562c-0.621,0.404-1.326,0.704-2.119,0.897
	c-0.791,0.194-1.606,0.29-2.446,0.29h-1.054c-0.428,0-0.89-0.011-1.381-0.035c-0.49-0.024-0.992-0.061-1.502-0.109
	c-0.509-0.05-0.973-0.122-1.393-0.219V22.188c0.307-0.048,0.658-0.096,1.055-0.146c0.395-0.048,0.819-0.088,1.271-0.119
	c0.452-0.034,0.915-0.058,1.393-0.074c0.476-0.015,0.949-0.024,1.417-0.024c0.792,0,1.562,0.061,2.314,0.182
	c0.75,0.12,1.42,0.336,2.01,0.641c0.589,0.308,1.061,0.736,1.417,1.285C52.813,24.482,52.989,25.177,52.989,26.017 M45.845,29.189
	c0.229,0,0.489-0.008,0.787-0.024c0.299-0.017,0.545-0.041,0.739-0.072c0.612-0.192,1.142-0.479,1.586-0.862
	s0.667-0.888,0.667-1.511c0-0.416-0.081-0.759-0.243-1.03c-0.159-0.272-0.374-0.488-0.642-0.648
	c-0.268-0.159-0.569-0.271-0.908-0.336c-0.339-0.062-0.693-0.095-1.066-0.095c-0.42,0-0.807,0.009-1.162,0.024
	c-0.354,0.016-0.629,0.04-0.822,0.071v4.483H45.845z M46.937,36.479c0.402,0,0.793-0.046,1.174-0.144
	c0.379-0.096,0.715-0.243,1.007-0.442c0.291-0.201,0.524-0.451,0.7-0.755c0.178-0.304,0.269-0.665,0.269-1.08
	c0-0.527-0.104-0.943-0.315-1.247c-0.209-0.304-0.483-0.54-0.822-0.708c-0.34-0.167-0.721-0.276-1.141-0.324
	c-0.42-0.046-0.84-0.072-1.26-0.072H44.78v4.628c0.08,0.033,0.209,0.057,0.388,0.072c0.177,0.017,0.367,0.03,0.569,0.037
	c0.199,0.007,0.41,0.017,0.631,0.024C46.584,36.476,46.774,36.479,46.937,36.479"/>
<path style="fill:#1E1B1D;" d="M0.074,51.305c0.37-0.064,0.77-0.125,1.2-0.183c0.427-0.058,0.854-0.101,1.283-0.132
	c0.428-0.034,0.842-0.059,1.246-0.074s0.775-0.023,1.113-0.023c0.793,0,1.57,0.073,2.338,0.217c0.768,0.146,1.453,0.396,2.061,0.752
	c0.604,0.355,1.088,0.844,1.453,1.465c0.363,0.621,0.545,1.402,0.545,2.338c0,1.389-0.324,2.52-0.969,3.391
	c-0.646,0.873-1.51,1.479-2.592,1.817l1.188,0.752l3.875,6.467H8.987l-3.852-6.637L3.394,61.14v6.951H0.074V51.305z M5.161,53.848
	c-0.34,0-0.674,0.008-1.006,0.023c-0.33,0.018-0.586,0.05-0.764,0.098v4.918h1.406c0.918,0,1.653-0.211,2.203-0.631
	c0.549-0.42,0.822-1.115,0.822-2.084c0-0.727-0.227-1.295-0.678-1.708C6.696,54.053,6.032,53.848,5.161,53.848"/>
<rect x="24.08" y="51.135" style="fill:#1E1B1D;" width="3.317" height="16.956"/>
<path style="fill:#1E1B1D;" d="M39.159,59.612c0-2.824,0.621-5.002,1.865-6.528c1.242-1.524,3.019-2.29,5.33-2.29
	c1.209,0,2.268,0.21,3.172,0.63c0.904,0.421,1.654,1.019,2.252,1.793c0.598,0.776,1.041,1.704,1.332,2.786
	c0.291,1.083,0.436,2.286,0.436,3.607c0,2.827-0.624,5.002-1.877,6.53c-1.251,1.525-3.021,2.289-5.314,2.289
	c-1.229,0-2.293-0.211-3.199-0.631c-0.903-0.42-1.649-1.018-2.239-1.793c-0.59-0.773-1.03-1.701-1.321-2.785
	C39.306,62.142,39.159,60.938,39.159,59.612 M42.647,59.612c0,0.857,0.07,1.643,0.217,2.362c0.146,0.719,0.367,1.338,0.666,1.854
	c0.3,0.52,0.683,0.922,1.15,1.211c0.469,0.291,1.025,0.438,1.674,0.438c1.176,0,2.09-0.461,2.734-1.381
	c0.646-0.922,0.971-2.414,0.971-4.483c0-0.823-0.07-1.59-0.207-2.301c-0.138-0.709-0.352-1.332-0.643-1.865
	c-0.291-0.531-0.67-0.947-1.139-1.246c-0.467-0.299-1.041-0.448-1.719-0.448c-1.18,0-2.094,0.472-2.738,1.417
	C42.969,56.112,42.647,57.596,42.647,59.612 M55.243,72.979c-0.776,0.213-1.559,0.318-2.352,0.318c-0.822,0-1.621-0.084-2.396-0.254
	s-1.527-0.352-2.253-0.545s-1.431-0.377-2.108-0.545c-0.678-0.17-1.314-0.254-1.91-0.254c-0.391,0-0.763,0.047-1.115,0.145v-2.859
	c0.451-0.096,0.92-0.143,1.402-0.143c0.68,0,1.354,0.078,2.023,0.236c0.671,0.158,1.352,0.33,2.047,0.514
	c0.695,0.182,1.406,0.354,2.132,0.512c0.728,0.16,1.494,0.24,2.302,0.24c0.354,0,0.719-0.021,1.09-0.062s0.75-0.109,1.14-0.207
	L55.243,72.979L55.243,72.979z"/>
<path style="fill:#1E1B1D;" d="M9.278,80.202h3.148v10.947c0,1.1-0.146,2.043-0.435,2.836c-0.291,0.789-0.695,1.443-1.212,1.963
	c-0.516,0.516-1.146,0.895-1.889,1.137c-0.744,0.242-1.561,0.363-2.447,0.363c-4.297,0-6.443-1.963-6.443-5.887V80.202h3.32v10.707
	c0,0.66,0.061,1.223,0.18,1.684c0.122,0.459,0.312,0.83,0.57,1.113s0.582,0.482,0.969,0.605c0.388,0.121,0.84,0.182,1.355,0.182
	c1.02,0,1.752-0.283,2.205-0.848c0.451-0.564,0.678-1.479,0.678-2.736V80.202z"/>
<polygon style="fill:#1E1B1D;" points="20.847,80.202 30.897,80.202 30.897,83.157 24.164,83.157 24.164,87.104 30.294,87.104 
	30.294,90.062 24.164,90.062 24.164,94.202 31.021,94.202 31.021,97.157 20.847,97.157 "/>
</svg>
