<?xml version="1.0" encoding="utf-8"?>
<!-- Generator: Adobe Illustrator 16.0.0, SVG Export Plug-In . SVG Version: 6.00 Build 0)  -->
<!DOCTYPE svg PUBLIC "-//W3C//DTD SVG 1.1//EN" "http://www.w3.org/Graphics/SVG/1.1/DTD/svg11.dtd">
<svg version="1.1" id="Layer_1" xmlns="http://www.w3.org/2000/svg" xmlns:xlink="http://www.w3.org/1999/xlink" x="0px" y="0px"
	 width="41.009px" height="42.585px" viewBox="0 0 41.009 42.585" style="enable-background:new 0 0 41.009 42.585;"
	 xml:space="preserve">
<path style="fill:#00B8B0;" d="M1.664,29.188L3.799,9.701L21.74,1.806l15.81,11.59l-2.134,19.487l-17.941,7.896L1.664,29.188z
	 M2.332,8.627L0,29.918l17.275,12.667l19.606-8.628l2.33-21.293L21.938,0L2.332,8.627z"/>
<rect x="-0.37" y="17.061" transform="matrix(0.7293 0.6842 -0.6842 0.7293 15.5468 -3.6005)" style="fill:#00B8B0;" width="25.387" height="1.575"/>
<rect x="25.845" y="6.824" transform="matrix(0.877 0.4804 -0.4804 0.877 11.5979 -10.6638)" style="fill:#00B8B0;" width="1.573" height="21.002"/>
<rect x="7.295" y="16.609" transform="matrix(0.5222 0.8528 -0.8528 0.5222 25.2767 5.1047)" style="fill:#00B8B0;" width="1.575" height="17.004"/>
<rect x="20.924" y="0.903" transform="matrix(1 0.0093 -0.0093 1 0.1286 -0.2014)" style="fill:#00B8B0;" width="1.574" height="25.631"/>
<rect x="18.691" y="26.246" transform="matrix(0.9636 0.2674 -0.2674 0.9636 9.8303 -3.9666)" style="fill:#00B8B0;" width="1.574" height="15.723"/>
<rect x="20.81" y="29.19" transform="matrix(0.904 0.4274 -0.4274 0.904 15.5831 -9.4618)" style="fill:#00B8B0;" width="16.111" height="1.574"/>
<rect x="13.167" y="27.528" transform="matrix(0.2751 0.9614 -0.9614 0.2751 42.234 10.8026)" style="fill:#00B8B0;" width="1.572" height="11.762"/>
<rect x="30.915" y="12.722" transform="matrix(0.1806 0.9836 -0.9836 0.1806 44.642 -15.6312)" style="fill:#00B8B0;" width="1.574" height="12.509"/>
</svg>
