<?xml version="1.0" encoding="utf-8"?>
<!-- Generator: Adobe Illustrator 16.0.0, SVG Export Plug-In . SVG Version: 6.00 Build 0)  -->
<!DOCTYPE svg PUBLIC "-//W3C//DTD SVG 1.1//EN" "http://www.w3.org/Graphics/SVG/1.1/DTD/svg11.dtd">
<svg version="1.1" id="Layer_1" xmlns="http://www.w3.org/2000/svg" xmlns:xlink="http://www.w3.org/1999/xlink" x="0px" y="0px"
	 width="38.028px" height="38.027px" viewBox="0 0 38.028 38.027" style="enable-background:new 0 0 38.028 38.027;"
	 xml:space="preserve">
<path style="fill:#1E1B1D;" d="M19.014,38.027C8.53,38.027,0,29.498,0,19.014S8.53,0,19.014,0c10.484,0,19.015,8.529,19.015,19.014
	S29.498,38.027,19.014,38.027 M19.014,1C9.081,1,1,9.081,1,19.014s8.081,18.014,18.014,18.014c9.934,0,18.015-8.081,18.015-18.014
	S28.947,1,19.014,1"/>
<path style="fill:#1E1B1D;" d="M19.014,35.157c-8.803,0-15.965-7.162-15.965-15.965S10.211,3.228,19.014,3.228
	c8.804,0,15.965,7.162,15.965,15.965S27.817,35.157,19.014,35.157 M19.014,4.228c-8.252,0-14.965,6.713-14.965,14.965
	s6.713,14.965,14.965,14.965s14.965-6.713,14.965-14.965S27.266,4.228,19.014,4.228"/>
<path style="fill:#1E1B1D;" d="M19.014,31.644c-6.943,0-12.594-5.649-12.594-12.594S12.07,6.456,19.014,6.456
	c6.944,0,12.595,5.649,12.595,12.594S25.958,31.644,19.014,31.644 M19.014,7.456c-6.393,0-11.594,5.201-11.594,11.594
	s5.201,11.594,11.594,11.594c6.394,0,11.595-5.201,11.595-11.594S25.407,7.456,19.014,7.456"/>
<path style="fill:#1E1B1D;" d="M19.014,28.479c-5.18,0-9.395-4.215-9.395-9.395s4.215-9.395,9.395-9.395
	c5.181,0,9.396,4.215,9.396,9.395S24.194,28.479,19.014,28.479 M19.014,10.69c-4.629,0-8.395,3.766-8.395,8.395
	s3.766,8.395,8.395,8.395s8.396-3.766,8.396-8.395S23.643,10.69,19.014,10.69"/>
<path style="fill:#1E1B1D;" d="M19.014,25.112c-3.304,0-5.992-2.688-5.992-5.991c0-3.305,2.688-5.992,5.992-5.992
	c3.305,0,5.991,2.688,5.991,5.992C25.005,22.425,22.318,25.112,19.014,25.112 M19.014,14.129c-2.753,0-4.992,2.239-4.992,4.992
	c0,2.752,2.239,4.991,4.992,4.991c2.752,0,4.991-2.239,4.991-4.991C24.005,16.368,21.766,14.129,19.014,14.129"/>
<path style="fill:#1E1B1D;" d="M19.014,21.384c-1.401,0-2.545-1.143-2.545-2.547c0-1.4,1.144-2.543,2.545-2.543
	c1.402,0,2.545,1.143,2.545,2.543C21.559,20.241,20.417,21.384,19.014,21.384 M19.014,17.294c-0.852,0-1.545,0.691-1.545,1.543
	c0,0.854,0.693,1.547,1.545,1.547c0.854,0,1.545-0.693,1.545-1.547C20.559,17.985,19.867,17.294,19.014,17.294"/>
</svg>
