<?xml version="1.0" encoding="utf-8"?>
<!-- Generator: Adobe Illustrator 16.0.0, SVG Export Plug-In . SVG Version: 6.00 Build 0)  -->
<!DOCTYPE svg PUBLIC "-//W3C//DTD SVG 1.1//EN" "http://www.w3.org/Graphics/SVG/1.1/DTD/svg11.dtd">
<svg version="1.1" id="Layer_1" xmlns="http://www.w3.org/2000/svg" xmlns:xlink="http://www.w3.org/1999/xlink" x="0px" y="0px"
	 width="25.909px" height="31.921px" viewBox="0 0 25.909 31.921" style="enable-background:new 0 0 25.909 31.921;"
	 xml:space="preserve">
<path style="fill:#E9A837;" d="M8.306,30.617c0,0.72-0.583,1.304-1.303,1.304c-0.719,0-1.302-0.584-1.302-1.304
	c0-0.719,0.583-1.303,1.302-1.303C7.723,29.314,8.306,29.898,8.306,30.617"/>
<path style="fill:#00B8B0;" d="M25.55,27.98l0.003-0.006c0,0-0.009-0.01-0.02-0.021c-0.006-0.006-0.014-0.011-0.02-0.017
	c-0.142-0.129-0.731-0.61-2.211-1.138c0,0-0.095,1.834,0,2.194c0.006,0.021,0.025,0.035,0.037,0.053
	c0.09,0.632,0.61,1.123,1.267,1.123c0.72,0,1.303-0.583,1.303-1.302C25.909,28.522,25.769,28.213,25.55,27.98"/>
<path style="fill:#00B8B0;" d="M8.471,2.604c0.719,0,1.303-0.583,1.303-1.303C9.773,0.583,9.189,0,8.471,0S7.168,0.583,7.168,1.302
	C7.168,2.021,7.752,2.604,8.471,2.604"/>
<path style="fill:#00B8B0;" d="M24.229,21.519l-0.005-0.004c1.446-1.928,1.978-4.28,0.933-6.347
	c-0.589-1.164-1.37-1.812-2.261-2.153c-0.031-0.035-0.085-0.062-0.189-0.069c-0.029-0.002-0.054-0.015-0.08-0.02
	c-0.067-0.021-0.134-0.045-0.201-0.062c-0.524-0.259-0.776-1.052-0.776-1.052l-0.004,0.013c-0.286-0.872-1.097-1.506-2.063-1.506
	c-1.116,0-2.025,0.841-2.155,1.922l-0.008-0.004c0,0-0.061,0.65-1.092,0.841c-2.168,0.078-3.979-0.527-4.515-4.074
	c-1.306-8.632-8.776-3.555-8.776-3.555C1.99,6.222,1.479,7.273,1.504,8.618C1.466,8.704,1.461,8.827,1.502,8.999
	c0.332,1.387-0.46,1.645-0.46,1.645l0.01-0.001C0.424,11.025,0,11.711,0,12.501c0,1.204,0.977,2.182,2.182,2.182
	c0.218,0,0.425-0.042,0.624-0.103l-0.001,0.011c0,0,0.953-0.217,1.455,0.727c0.028,0.057,0.062,0.101,0.099,0.137
	c1.253,1.885,2.906,4.004,4.988,6.387c1.745,1.996,3.699,3.041,5.633,3.402c0.255,0.15,0.732,0.215,1.507,0.155
	c0.051-0.004,0.094-0.005,0.145-0.008c0.319-0.003,0.638-0.021,0.953-0.056c4.825-0.206,5.351,0.935,5.351,0.935
	C22.199,23.952,24.229,21.519,24.229,21.519"/>
<path style="fill:#E9A837;" d="M18.611,24.244c0,2.838-2.302,5.14-5.14,5.14s-5.139-2.302-5.139-5.14s2.301-5.139,5.139-5.139
	S18.611,21.406,18.611,24.244"/>
</svg>
