<svg xmlns="http://www.w3.org/2000/svg" width="25.909" height="31.921" viewBox="0 0 25.909 31.921"><path d="M8.306 30.617c0 .72-.583 1.304-1.303 1.304S5.7 31.338 5.7 30.618s.584-1.303 1.303-1.303c.72 0 1.303.584 1.303 1.303" fill="#E9A837"/><path d="M25.55 27.98l.003-.006-.02-.02c-.006-.007-.014-.012-.02-.018-.142-.13-.73-.61-2.21-1.138 0 0-.096 1.834 0 2.194.005.02.024.035.036.053.09.632.61 1.123 1.266 1.123.72 0 1.303-.583 1.303-1.302 0-.344-.14-.653-.36-.886M8.47 2.604c.72 0 1.304-.583 1.304-1.303C9.774.584 9.19 0 8.47 0S7.17.583 7.17 1.302c0 .72.584 1.302 1.303 1.302M24.23 21.52l-.006-.005c1.446-1.928 1.978-4.28.933-6.347-.59-1.164-1.37-1.812-2.26-2.153-.032-.035-.086-.062-.19-.07-.03 0-.054-.014-.08-.02-.067-.02-.134-.044-.2-.06-.525-.26-.777-1.053-.777-1.053l-.004.013c-.286-.872-1.097-1.506-2.063-1.506-1.116 0-2.025.84-2.155 1.92l-.008-.003s-.06.65-1.092.84c-2.168.08-3.98-.526-4.515-4.073C10.507.372 3.037 5.45 3.037 5.45 1.99 6.22 1.48 7.272 1.504 8.617c-.038.086-.043.21-.002.38.332 1.388-.46 1.646-.46 1.646h.01C.424 11.023 0 11.71 0 12.5c0 1.205.977 2.183 2.182 2.183.218 0 .425-.042.624-.103v.01s.952-.216 1.454.728c.028.057.062.1.1.137 1.252 1.885 2.905 4.004 4.987 6.387 1.745 1.996 3.7 3.04 5.633 3.402.255.15.732.215 1.507.155.05-.005.094-.006.145-.01.32-.002.638-.02.953-.055 4.825-.206 5.35.935 5.35.935-.736-2.318 1.294-4.75 1.294-4.75" fill="#00B8B0"/><path d="M18.61 24.244c0 2.838-2.3 5.14-5.14 5.14s-5.138-2.302-5.138-5.14 2.3-5.14 5.14-5.14 5.14 2.302 5.14 5.14" fill="#E9A837"/></svg>