<svg xmlns="http://www.w3.org/2000/svg" width="38.028" height="38.027" viewBox="0 0 38.028 38.027"><path d="M19.014 38.027C8.53 38.027 0 29.497 0 19.014S8.53 0 19.014 0 38.03 8.53 38.03 19.014s-8.532 19.013-19.016 19.013m0-37.027C9.08 1 1 9.08 1 19.014s8.08 18.014 18.014 18.014 18.015-8.08 18.015-18.014S28.946 1 19.013 1" fill="#1E1B1D"/><path d="M19.014 35.157c-8.803 0-15.965-7.162-15.965-15.965S10.21 3.228 19.013 3.228 34.98 10.39 34.98 19.193s-7.163 15.964-15.966 15.964m0-30.93c-8.252 0-14.965 6.714-14.965 14.966s6.712 14.965 14.964 14.965S33.98 27.445 33.98 19.193 27.265 4.228 19.013 4.228" fill="#1E1B1D"/><path d="M19.014 31.644c-6.943 0-12.594-5.65-12.594-12.594S12.07 6.456 19.014 6.456c6.944 0 12.595 5.65 12.595 12.594s-5.652 12.594-12.596 12.594m0-24.188c-6.393 0-11.594 5.2-11.594 11.594s5.2 11.594 11.594 11.594c6.394 0 11.595-5.2 11.595-11.594S25.406 7.456 19.013 7.456" fill="#1E1B1D"/><path d="M19.014 28.48c-5.18 0-9.395-4.216-9.395-9.396s4.214-9.395 9.394-9.395 9.396 4.214 9.396 9.394-4.216 9.395-9.396 9.395m0-17.79c-4.63 0-8.395 3.766-8.395 8.395s3.765 8.395 8.394 8.395 8.396-3.766 8.396-8.395-3.767-8.395-8.396-8.395" fill="#1E1B1D"/><path d="M19.014 25.112c-3.304 0-5.992-2.688-5.992-5.99 0-3.306 2.688-5.993 5.992-5.993 3.305 0 5.99 2.687 5.99 5.99 0 3.305-2.686 5.992-5.99 5.992m0-10.983c-2.753 0-4.992 2.238-4.992 4.99 0 2.753 2.24 4.992 4.992 4.992s4.99-2.24 4.99-4.99c0-2.754-2.238-4.993-4.99-4.993" fill="#1E1B1D"/><path d="M19.014 21.384c-1.4 0-2.545-1.143-2.545-2.547 0-1.4 1.143-2.543 2.544-2.543 1.402 0 2.545 1.143 2.545 2.543 0 1.404-1.143 2.547-2.546 2.547m0-4.09c-.852 0-1.545.69-1.545 1.543 0 .854.692 1.547 1.544 1.547.854 0 1.545-.693 1.545-1.547 0-.852-.693-1.543-1.546-1.543" fill="#1E1B1D"/></svg>